<mxfile host="app.diagrams.net" modified="2024-03-26T12:06:25.216Z" agent="Mozilla/5.0 (X11; Ubuntu; Linux x86_64; rv:123.0) Gecko/20100101 Firefox/123.0" etag="f_e8PaIsb5gKJURcKGge" version="24.1.0" type="device">
  <diagram id="C5RBs43oDa-KdzZeNtuy" name="Page-1">
    <mxGraphModel dx="2279" dy="1274" grid="1" gridSize="10" guides="1" tooltips="1" connect="1" arrows="1" fold="1" page="1" pageScale="1" pageWidth="827" pageHeight="1169" math="0" shadow="0">
      <root>
        <mxCell id="WIyWlLk6GJQsqaUBKTNV-0" />
        <mxCell id="WIyWlLk6GJQsqaUBKTNV-1" parent="WIyWlLk6GJQsqaUBKTNV-0" />
        <mxCell id="TQJaViDsqMAskRc4-mNs-104" value="" style="endArrow=none;html=1;rounded=0;entryX=1;entryY=1;entryDx=0;entryDy=0;dashed=1;dashPattern=8 8;" parent="WIyWlLk6GJQsqaUBKTNV-1" edge="1">
          <mxGeometry width="50" height="50" relative="1" as="geometry">
            <mxPoint x="60" y="1990" as="sourcePoint" />
            <mxPoint x="60" y="710" as="targetPoint" />
          </mxGeometry>
        </mxCell>
        <mxCell id="TQJaViDsqMAskRc4-mNs-63" value="Neu-Mitglied" style="swimlane;horizontal=0;whiteSpace=wrap;html=1;fontSize=9;strokeColor=#000000;" parent="WIyWlLk6GJQsqaUBKTNV-1" vertex="1">
          <mxGeometry x="-210" y="710" width="1560" height="320" as="geometry">
            <mxRectangle x="-210" y="580" width="30" height="90" as="alternateBounds" />
          </mxGeometry>
        </mxCell>
        <mxCell id="WIyWlLk6GJQsqaUBKTNV-3" value="SAC Selbsregistrierungsformular&lt;br style=&quot;font-size: 9px;&quot;&gt;ausfüllen und abschicken&lt;br&gt;z.B. db.sac-cas.ch/de/groups/942/self_registration" style="rounded=1;whiteSpace=wrap;html=1;fontSize=9;glass=0;strokeWidth=1;shadow=0;fillColor=#dae8fc;strokeColor=#6c8ebf;" parent="TQJaViDsqMAskRc4-mNs-63" vertex="1">
          <mxGeometry x="310" y="50.63" width="160" height="90" as="geometry" />
        </mxCell>
        <mxCell id="TQJaViDsqMAskRc4-mNs-0" value="Sektionsauswahl auf&lt;br style=&quot;font-size: 9px;&quot;&gt;sac-cas.ch" style="rounded=1;whiteSpace=wrap;html=1;fontSize=9;glass=0;strokeWidth=1;shadow=0;fillColor=#dae8fc;strokeColor=#6c8ebf;" parent="TQJaViDsqMAskRc4-mNs-63" vertex="1">
          <mxGeometry x="130" y="66.25" width="130" height="57.5" as="geometry" />
        </mxCell>
        <mxCell id="TQJaViDsqMAskRc4-mNs-1" value="" style="rounded=0;html=1;jettySize=auto;orthogonalLoop=1;fontSize=9;endArrow=block;endFill=0;endSize=8;strokeWidth=1;shadow=0;labelBackgroundColor=none;edgeStyle=orthogonalEdgeStyle;exitX=1;exitY=0.5;exitDx=0;exitDy=0;" parent="TQJaViDsqMAskRc4-mNs-63" source="TQJaViDsqMAskRc4-mNs-0" target="WIyWlLk6GJQsqaUBKTNV-3" edge="1">
          <mxGeometry relative="1" as="geometry">
            <mxPoint x="274.83000000000004" y="50" as="sourcePoint" />
            <mxPoint x="274.83000000000004" y="100" as="targetPoint" />
          </mxGeometry>
        </mxCell>
        <mxCell id="TQJaViDsqMAskRc4-mNs-4" value="" style="ellipse;whiteSpace=wrap;html=1;aspect=fixed;dashed=1;fontSize=9;" parent="TQJaViDsqMAskRc4-mNs-63" vertex="1">
          <mxGeometry x="613" y="70" width="50" height="50" as="geometry" />
        </mxCell>
        <mxCell id="TQJaViDsqMAskRc4-mNs-5" value="" style="sketch=0;outlineConnect=0;fontColor=#232F3E;gradientColor=none;fillColor=#232F3D;strokeColor=none;dashed=0;verticalLabelPosition=bottom;verticalAlign=top;align=center;html=1;fontSize=9;fontStyle=0;aspect=fixed;pointerEvents=1;shape=mxgraph.aws4.email_2;" parent="TQJaViDsqMAskRc4-mNs-63" vertex="1">
          <mxGeometry x="627" y="87.46000000000004" width="24" height="15.08" as="geometry" />
        </mxCell>
        <mxCell id="TQJaViDsqMAskRc4-mNs-60" value="" style="ellipse;whiteSpace=wrap;html=1;aspect=fixed;fontSize=9;fillColor=#000000;" parent="TQJaViDsqMAskRc4-mNs-63" vertex="1">
          <mxGeometry x="55" y="75" width="40" height="40" as="geometry" />
        </mxCell>
        <mxCell id="TQJaViDsqMAskRc4-mNs-61" value="" style="rounded=0;html=1;jettySize=auto;orthogonalLoop=1;fontSize=9;endArrow=block;endFill=0;endSize=8;strokeWidth=1;shadow=0;labelBackgroundColor=none;edgeStyle=orthogonalEdgeStyle;exitX=1;exitY=0.5;exitDx=0;exitDy=0;entryX=0;entryY=0.5;entryDx=0;entryDy=0;" parent="TQJaViDsqMAskRc4-mNs-63" target="TQJaViDsqMAskRc4-mNs-0" edge="1">
          <mxGeometry relative="1" as="geometry">
            <mxPoint x="95" y="94.71000000000004" as="sourcePoint" />
            <mxPoint x="145" y="94.71000000000004" as="targetPoint" />
          </mxGeometry>
        </mxCell>
        <mxCell id="TQJaViDsqMAskRc4-mNs-76" value="" style="rounded=0;html=1;jettySize=auto;orthogonalLoop=1;fontSize=9;endArrow=block;endFill=0;endSize=8;strokeWidth=1;shadow=0;labelBackgroundColor=none;edgeStyle=orthogonalEdgeStyle;entryX=0;entryY=0.5;entryDx=0;entryDy=0;" parent="TQJaViDsqMAskRc4-mNs-63" edge="1">
          <mxGeometry relative="1" as="geometry">
            <mxPoint x="664" y="94.71000000000004" as="sourcePoint" />
            <mxPoint x="743" y="94.71000000000004" as="targetPoint" />
            <Array as="points">
              <mxPoint x="694" y="95" />
              <mxPoint x="694" y="95" />
            </Array>
          </mxGeometry>
        </mxCell>
        <mxCell id="TQJaViDsqMAskRc4-mNs-77" value="Passwort setzen/Email bestätigen (Login erstellen)" style="rounded=1;whiteSpace=wrap;html=1;fontSize=9;glass=0;strokeWidth=1;shadow=0;fillColor=#dae8fc;strokeColor=#6c8ebf;" parent="TQJaViDsqMAskRc4-mNs-63" vertex="1">
          <mxGeometry x="744" y="60" width="160" height="70" as="geometry" />
        </mxCell>
        <mxCell id="TQJaViDsqMAskRc4-mNs-78" value="" style="rounded=0;html=1;jettySize=auto;orthogonalLoop=1;fontSize=9;endArrow=block;endFill=0;endSize=8;strokeWidth=1;shadow=0;labelBackgroundColor=none;edgeStyle=orthogonalEdgeStyle;entryX=0;entryY=0.5;entryDx=0;entryDy=0;" parent="TQJaViDsqMAskRc4-mNs-63" edge="1">
          <mxGeometry relative="1" as="geometry">
            <mxPoint x="904" y="94.82999999999998" as="sourcePoint" />
            <mxPoint x="943" y="94.82999999999993" as="targetPoint" />
            <Array as="points">
              <mxPoint x="934" y="95.11999999999995" />
              <mxPoint x="934" y="95.11999999999995" />
            </Array>
          </mxGeometry>
        </mxCell>
        <mxCell id="TQJaViDsqMAskRc4-mNs-81" value="&lt;font style=&quot;font-size: 9px;&quot;&gt;Login Bedingung erfüllt&lt;br&gt;&lt;/font&gt;" style="text;html=1;align=center;verticalAlign=middle;whiteSpace=wrap;rounded=0;" parent="TQJaViDsqMAskRc4-mNs-63" vertex="1">
          <mxGeometry x="934" y="120" width="72.5" height="30" as="geometry" />
        </mxCell>
        <mxCell id="TQJaViDsqMAskRc4-mNs-101" value="" style="verticalLabelPosition=bottom;verticalAlign=top;html=1;shape=mxgraph.basic.tick;fillColor=#009900;" parent="TQJaViDsqMAskRc4-mNs-63" vertex="1">
          <mxGeometry x="980" y="83.13" width="25" height="25" as="geometry" />
        </mxCell>
        <mxCell id="TQJaViDsqMAskRc4-mNs-106" value="&lt;font style=&quot;font-size: 9px;&quot;&gt;Ich möchte Mitglied werden :)&lt;br&gt;&lt;/font&gt;" style="text;html=1;align=center;verticalAlign=middle;whiteSpace=wrap;rounded=0;" parent="TQJaViDsqMAskRc4-mNs-63" vertex="1">
          <mxGeometry x="30" y="120" width="90" height="30" as="geometry" />
        </mxCell>
        <mxCell id="b4T5uP7tchPNODKssLE_-4" value="" style="group" parent="TQJaViDsqMAskRc4-mNs-63" vertex="1" connectable="0">
          <mxGeometry x="120" y="110" width="20" height="20" as="geometry" />
        </mxCell>
        <mxCell id="b4T5uP7tchPNODKssLE_-2" value="" style="ellipse;whiteSpace=wrap;html=1;aspect=fixed;fillColor=#FF0000;" parent="b4T5uP7tchPNODKssLE_-4" vertex="1">
          <mxGeometry width="20" height="20" as="geometry" />
        </mxCell>
        <mxCell id="b4T5uP7tchPNODKssLE_-3" value="&lt;font style=&quot;font-size: 10px; background-color: rgb(255, 0, 0);&quot; color=&quot;#ffffff&quot;&gt;U1&lt;/font&gt;" style="text;html=1;align=center;verticalAlign=middle;whiteSpace=wrap;rounded=0;" parent="b4T5uP7tchPNODKssLE_-4" vertex="1">
          <mxGeometry x="3.125" y="3.125" width="13.75" height="13.75" as="geometry" />
        </mxCell>
        <mxCell id="b4T5uP7tchPNODKssLE_-7" value="" style="group" parent="TQJaViDsqMAskRc4-mNs-63" vertex="1" connectable="0">
          <mxGeometry x="300" y="128.53999999999996" width="20" height="20" as="geometry" />
        </mxCell>
        <mxCell id="b4T5uP7tchPNODKssLE_-8" value="" style="ellipse;whiteSpace=wrap;html=1;aspect=fixed;fillColor=#FF0000;" parent="b4T5uP7tchPNODKssLE_-7" vertex="1">
          <mxGeometry width="20" height="20" as="geometry" />
        </mxCell>
        <mxCell id="b4T5uP7tchPNODKssLE_-9" value="&lt;font style=&quot;font-size: 10px; background-color: rgb(255, 0, 0);&quot; color=&quot;#ffffff&quot;&gt;U2&lt;/font&gt;" style="text;html=1;align=center;verticalAlign=middle;whiteSpace=wrap;rounded=0;" parent="b4T5uP7tchPNODKssLE_-7" vertex="1">
          <mxGeometry x="3.125" y="3.125" width="13.75" height="13.75" as="geometry" />
        </mxCell>
        <mxCell id="b4T5uP7tchPNODKssLE_-10" value="" style="group" parent="TQJaViDsqMAskRc4-mNs-63" vertex="1" connectable="0">
          <mxGeometry x="740" y="120" width="20" height="20" as="geometry" />
        </mxCell>
        <mxCell id="b4T5uP7tchPNODKssLE_-11" value="" style="ellipse;whiteSpace=wrap;html=1;aspect=fixed;fillColor=#FF0000;" parent="b4T5uP7tchPNODKssLE_-10" vertex="1">
          <mxGeometry width="20" height="20" as="geometry" />
        </mxCell>
        <mxCell id="b4T5uP7tchPNODKssLE_-12" value="&lt;font style=&quot;font-size: 10px; background-color: rgb(255, 0, 0);&quot; color=&quot;#ffffff&quot;&gt;U3&lt;br&gt;&lt;/font&gt;" style="text;html=1;align=center;verticalAlign=middle;whiteSpace=wrap;rounded=0;" parent="b4T5uP7tchPNODKssLE_-10" vertex="1">
          <mxGeometry x="3.125" y="3.125" width="13.75" height="13.75" as="geometry" />
        </mxCell>
        <mxCell id="TQJaViDsqMAskRc4-mNs-86" value="Rechnung bezahlen" style="rounded=1;whiteSpace=wrap;html=1;fontSize=9;fillColor=#dae8fc;strokeColor=#6c8ebf;" parent="TQJaViDsqMAskRc4-mNs-63" vertex="1">
          <mxGeometry x="1174.5" y="210" width="120" height="60" as="geometry" />
        </mxCell>
        <mxCell id="TQJaViDsqMAskRc4-mNs-89" value="" style="rounded=0;html=1;jettySize=auto;orthogonalLoop=1;fontSize=9;endArrow=block;endFill=0;endSize=8;strokeWidth=1;shadow=0;labelBackgroundColor=none;edgeStyle=orthogonalEdgeStyle;exitX=1;exitY=0.5;exitDx=0;exitDy=0;" parent="TQJaViDsqMAskRc4-mNs-63" edge="1">
          <mxGeometry relative="1" as="geometry">
            <mxPoint x="1294.5" y="239.74" as="sourcePoint" />
            <mxPoint x="1355.5" y="240.02999999999997" as="targetPoint" />
            <Array as="points">
              <mxPoint x="1330.5" y="240.02999999999997" />
            </Array>
          </mxGeometry>
        </mxCell>
        <mxCell id="TQJaViDsqMAskRc4-mNs-90" value="&lt;font style=&quot;font-size: 9px;&quot;&gt;Rechnungs Bedingung erfüllt&lt;br&gt;&lt;/font&gt;" style="text;html=1;align=center;verticalAlign=middle;whiteSpace=wrap;rounded=0;" parent="TQJaViDsqMAskRc4-mNs-63" vertex="1">
          <mxGeometry x="1344.5" y="270" width="72.5" height="30" as="geometry" />
        </mxCell>
        <mxCell id="b4T5uP7tchPNODKssLE_-14" value="" style="group" parent="TQJaViDsqMAskRc4-mNs-63" vertex="1" connectable="0">
          <mxGeometry x="1161.5" y="260" width="20" height="20" as="geometry" />
        </mxCell>
        <mxCell id="b4T5uP7tchPNODKssLE_-15" value="" style="ellipse;whiteSpace=wrap;html=1;aspect=fixed;fillColor=#FF0000;" parent="b4T5uP7tchPNODKssLE_-14" vertex="1">
          <mxGeometry width="20" height="20" as="geometry" />
        </mxCell>
        <mxCell id="b4T5uP7tchPNODKssLE_-16" value="&lt;font style=&quot;font-size: 10px; background-color: rgb(255, 0, 0);&quot; color=&quot;#ffffff&quot;&gt;U4&lt;/font&gt;" style="text;html=1;align=center;verticalAlign=middle;whiteSpace=wrap;rounded=0;" parent="b4T5uP7tchPNODKssLE_-14" vertex="1">
          <mxGeometry x="3.125" y="3.125" width="13.75" height="13.75" as="geometry" />
        </mxCell>
        <mxCell id="MFehWvs3WyKKxc41Y9VR-2" value="" style="sketch=0;pointerEvents=1;shadow=0;dashed=0;html=1;strokeColor=none;fillColor=#505050;labelPosition=center;verticalLabelPosition=bottom;verticalAlign=top;outlineConnect=0;align=center;shape=mxgraph.office.users.user;" vertex="1" parent="TQJaViDsqMAskRc4-mNs-63">
          <mxGeometry x="134" y="70" width="15" height="15" as="geometry" />
        </mxCell>
        <mxCell id="MFehWvs3WyKKxc41Y9VR-4" value="" style="ellipse;whiteSpace=wrap;html=1;aspect=fixed;fillColor=#9999FF;" vertex="1" parent="TQJaViDsqMAskRc4-mNs-63">
          <mxGeometry x="607" y="104.99999999999997" width="20" height="20" as="geometry" />
        </mxCell>
        <mxCell id="MFehWvs3WyKKxc41Y9VR-5" value="&lt;font color=&quot;#ffffff&quot;&gt;M1&lt;/font&gt;" style="text;html=1;align=center;verticalAlign=middle;whiteSpace=wrap;rounded=0;fillColor=#9999FF;" vertex="1" parent="TQJaViDsqMAskRc4-mNs-63">
          <mxGeometry x="610.125" y="108.12499999999997" width="13.75" height="13.75" as="geometry" />
        </mxCell>
        <mxCell id="MFehWvs3WyKKxc41Y9VR-8" value="" style="group" vertex="1" connectable="0" parent="TQJaViDsqMAskRc4-mNs-63">
          <mxGeometry x="953.5" y="85.63" width="20" height="20" as="geometry" />
        </mxCell>
        <mxCell id="MFehWvs3WyKKxc41Y9VR-9" value="" style="ellipse;whiteSpace=wrap;html=1;aspect=fixed;fillColor=#009900;" vertex="1" parent="MFehWvs3WyKKxc41Y9VR-8">
          <mxGeometry width="20" height="20" as="geometry" />
        </mxCell>
        <mxCell id="MFehWvs3WyKKxc41Y9VR-10" value="&lt;font style=&quot;background-color: rgb(0, 153, 0); font-size: 10px;&quot; color=&quot;#ffffff&quot;&gt;B1&lt;/font&gt;" style="text;html=1;align=center;verticalAlign=middle;whiteSpace=wrap;rounded=0;" vertex="1" parent="MFehWvs3WyKKxc41Y9VR-8">
          <mxGeometry x="3.125" y="2.125" width="13.75" height="13.75" as="geometry" />
        </mxCell>
        <mxCell id="MFehWvs3WyKKxc41Y9VR-35" value="Abacus" style="rounded=0;whiteSpace=wrap;html=1;" vertex="1" parent="TQJaViDsqMAskRc4-mNs-63">
          <mxGeometry x="988" y="330" width="210" height="20" as="geometry" />
        </mxCell>
        <mxCell id="MFehWvs3WyKKxc41Y9VR-39" value="" style="sketch=0;pointerEvents=1;shadow=0;dashed=0;html=1;strokeColor=none;fillColor=#505050;labelPosition=center;verticalLabelPosition=bottom;verticalAlign=top;outlineConnect=0;align=center;shape=mxgraph.office.users.user;" vertex="1" parent="TQJaViDsqMAskRc4-mNs-63">
          <mxGeometry x="750" y="66.25" width="15" height="15" as="geometry" />
        </mxCell>
        <mxCell id="MFehWvs3WyKKxc41Y9VR-40" value="" style="sketch=0;pointerEvents=1;shadow=0;dashed=0;html=1;strokeColor=none;fillColor=#505050;labelPosition=center;verticalLabelPosition=bottom;verticalAlign=top;outlineConnect=0;align=center;shape=mxgraph.office.users.user;" vertex="1" parent="TQJaViDsqMAskRc4-mNs-63">
          <mxGeometry x="1178.5" y="215" width="15" height="15" as="geometry" />
        </mxCell>
        <mxCell id="MFehWvs3WyKKxc41Y9VR-41" value="" style="verticalLabelPosition=bottom;verticalAlign=top;html=1;shape=mxgraph.basic.tick;fillColor=#009900;" vertex="1" parent="TQJaViDsqMAskRc4-mNs-63">
          <mxGeometry x="1387.75" y="230" width="25" height="25" as="geometry" />
        </mxCell>
        <mxCell id="MFehWvs3WyKKxc41Y9VR-42" value="" style="group" vertex="1" connectable="0" parent="TQJaViDsqMAskRc4-mNs-63">
          <mxGeometry x="1361.25" y="232.5" width="20" height="20" as="geometry" />
        </mxCell>
        <mxCell id="MFehWvs3WyKKxc41Y9VR-43" value="" style="ellipse;whiteSpace=wrap;html=1;aspect=fixed;fillColor=#009900;" vertex="1" parent="MFehWvs3WyKKxc41Y9VR-42">
          <mxGeometry width="20" height="20" as="geometry" />
        </mxCell>
        <mxCell id="MFehWvs3WyKKxc41Y9VR-44" value="&lt;font style=&quot;background-color: rgb(0, 153, 0); font-size: 10px;&quot; color=&quot;#ffffff&quot;&gt;B2&lt;/font&gt;" style="text;html=1;align=center;verticalAlign=middle;whiteSpace=wrap;rounded=0;" vertex="1" parent="MFehWvs3WyKKxc41Y9VR-42">
          <mxGeometry x="3.125" y="2.125" width="13.75" height="13.75" as="geometry" />
        </mxCell>
        <mxCell id="MFehWvs3WyKKxc41Y9VR-60" value="" style="rounded=0;html=1;jettySize=auto;orthogonalLoop=1;fontSize=9;endArrow=block;endFill=0;endSize=8;strokeWidth=1;shadow=0;labelBackgroundColor=none;edgeStyle=orthogonalEdgeStyle;entryX=0;entryY=0.5;entryDx=0;entryDy=0;" edge="1" parent="TQJaViDsqMAskRc4-mNs-63" target="TQJaViDsqMAskRc4-mNs-4">
          <mxGeometry relative="1" as="geometry">
            <mxPoint x="470" y="94.80000000000007" as="sourcePoint" />
            <mxPoint x="549" y="94.80000000000007" as="targetPoint" />
            <Array as="points" />
          </mxGeometry>
        </mxCell>
        <mxCell id="TQJaViDsqMAskRc4-mNs-74" value="Automatisiert" style="swimlane;horizontal=0;whiteSpace=wrap;html=1;fontSize=9;" parent="WIyWlLk6GJQsqaUBKTNV-1" vertex="1">
          <mxGeometry x="-210" y="1030" width="1560" height="540" as="geometry" />
        </mxCell>
        <mxCell id="TQJaViDsqMAskRc4-mNs-117" value="&lt;font style=&quot;font-size: 9px;&quot;&gt;Kein Duplikat Bedingung erfüllt&lt;br&gt;&lt;/font&gt;" style="text;html=1;align=center;verticalAlign=middle;whiteSpace=wrap;rounded=0;" parent="TQJaViDsqMAskRc4-mNs-74" vertex="1">
          <mxGeometry x="462" y="257.69" width="80" height="30" as="geometry" />
        </mxCell>
        <mxCell id="TQJaViDsqMAskRc4-mNs-107" value="Duplikatsprüfung" style="rounded=1;whiteSpace=wrap;html=1;fontSize=9;glass=0;strokeWidth=1;shadow=0;fillColor=#e1d5e7;strokeColor=#9673a6;" parent="TQJaViDsqMAskRc4-mNs-74" vertex="1">
          <mxGeometry x="428" y="30" width="160" height="40" as="geometry" />
        </mxCell>
        <mxCell id="TQJaViDsqMAskRc4-mNs-18" value="&lt;font style=&quot;font-size: 8px;&quot;&gt;Bestätigung von &lt;br&gt;Sektion nötig?&lt;/font&gt;" style="rhombus;whiteSpace=wrap;html=1;fontSize=9;" parent="TQJaViDsqMAskRc4-mNs-74" vertex="1">
          <mxGeometry x="615.5" y="259.75" width="75" height="75" as="geometry" />
        </mxCell>
        <mxCell id="TQJaViDsqMAskRc4-mNs-22" value="" style="rounded=0;html=1;jettySize=auto;orthogonalLoop=1;fontSize=9;endArrow=block;endFill=0;endSize=8;strokeWidth=1;shadow=0;labelBackgroundColor=none;edgeStyle=orthogonalEdgeStyle;exitX=0.5;exitY=1;exitDx=0;exitDy=0;entryX=0.495;entryY=-0.032;entryDx=0;entryDy=0;entryPerimeter=0;" parent="TQJaViDsqMAskRc4-mNs-74" source="TQJaViDsqMAskRc4-mNs-18" target="TQJaViDsqMAskRc4-mNs-21" edge="1">
          <mxGeometry relative="1" as="geometry">
            <mxPoint x="723" y="65" as="sourcePoint" />
            <mxPoint x="653" y="360" as="targetPoint" />
          </mxGeometry>
        </mxCell>
        <mxCell id="TQJaViDsqMAskRc4-mNs-36" value="Ja" style="edgeLabel;html=1;align=center;verticalAlign=middle;resizable=0;points=[];fontSize=9;" parent="TQJaViDsqMAskRc4-mNs-22" vertex="1" connectable="0">
          <mxGeometry x="-0.3415" y="1" relative="1" as="geometry">
            <mxPoint x="-1" as="offset" />
          </mxGeometry>
        </mxCell>
        <mxCell id="TQJaViDsqMAskRc4-mNs-21" value="&lt;font style=&quot;font-size: 9px;&quot;&gt;Gruppe&lt;br style=&quot;font-size: 9px;&quot;&gt;&quot;Neuanmeldung (zur Freigabe)&quot;&lt;/font&gt;" style="rounded=1;whiteSpace=wrap;html=1;fontSize=9;fillColor=#ffe6cc;strokeColor=#d79b00;" parent="TQJaViDsqMAskRc4-mNs-74" vertex="1">
          <mxGeometry x="573" y="380" width="160" height="40" as="geometry" />
        </mxCell>
        <mxCell id="TQJaViDsqMAskRc4-mNs-108" value="Duplikat?" style="rhombus;whiteSpace=wrap;html=1;fontSize=9;" parent="TQJaViDsqMAskRc4-mNs-74" vertex="1">
          <mxGeometry x="461" y="117.12" width="75" height="70" as="geometry" />
        </mxCell>
        <mxCell id="TQJaViDsqMAskRc4-mNs-151" value="" style="rounded=1;whiteSpace=wrap;html=1;arcSize=0;" parent="TQJaViDsqMAskRc4-mNs-74" vertex="1">
          <mxGeometry x="773" y="245" width="717" height="205" as="geometry" />
        </mxCell>
        <mxCell id="TQJaViDsqMAskRc4-mNs-20" value="Gruppe&lt;br style=&quot;font-size: 9px;&quot;&gt;&quot;Neuanmeldung&quot;&lt;br&gt;(Pufferliste)" style="rounded=1;whiteSpace=wrap;html=1;fontSize=9;fillColor=#ffe6cc;strokeColor=#d79b00;" parent="TQJaViDsqMAskRc4-mNs-74" vertex="1">
          <mxGeometry x="803" y="315" width="120" height="60" as="geometry" />
        </mxCell>
        <mxCell id="TQJaViDsqMAskRc4-mNs-42" value="&lt;font style=&quot;font-size: 9px;&quot;&gt;Alle Kriterien&lt;/font&gt;&lt;br style=&quot;font-size: 9px;&quot;&gt;&lt;font style=&quot;font-size: 9px;&quot;&gt;erfüllt?&lt;font style=&quot;font-size: 9px;&quot;&gt;&lt;br style=&quot;font-size: 9px;&quot;&gt;&lt;/font&gt;&lt;/font&gt;" style="rhombus;whiteSpace=wrap;html=1;fontSize=9;" parent="TQJaViDsqMAskRc4-mNs-74" vertex="1">
          <mxGeometry x="1165" y="310" width="80" height="80" as="geometry" />
        </mxCell>
        <mxCell id="TQJaViDsqMAskRc4-mNs-43" value="" style="rounded=0;html=1;jettySize=auto;orthogonalLoop=1;fontSize=9;endArrow=block;endFill=0;endSize=8;strokeWidth=1;shadow=0;labelBackgroundColor=none;edgeStyle=orthogonalEdgeStyle;exitX=1;exitY=0.573;exitDx=0;exitDy=0;exitPerimeter=0;" parent="TQJaViDsqMAskRc4-mNs-74" source="TQJaViDsqMAskRc4-mNs-20" edge="1">
          <mxGeometry relative="1" as="geometry">
            <mxPoint x="944" y="349.71000000000004" as="sourcePoint" />
            <mxPoint x="1005" y="350" as="targetPoint" />
            <Array as="points">
              <mxPoint x="980" y="349" />
            </Array>
          </mxGeometry>
        </mxCell>
        <mxCell id="TQJaViDsqMAskRc4-mNs-47" value="Überprüfung der Kriterien" style="rounded=1;whiteSpace=wrap;html=1;fontSize=9;fillColor=#e1d5e7;strokeColor=#9673a6;" parent="TQJaViDsqMAskRc4-mNs-74" vertex="1">
          <mxGeometry x="1005" y="320" width="120" height="60" as="geometry" />
        </mxCell>
        <mxCell id="TQJaViDsqMAskRc4-mNs-48" value="" style="rounded=0;html=1;jettySize=auto;orthogonalLoop=1;fontSize=9;endArrow=block;endFill=0;endSize=8;strokeWidth=1;shadow=0;labelBackgroundColor=none;edgeStyle=orthogonalEdgeStyle;exitX=1;exitY=0.5;exitDx=0;exitDy=0;entryX=0;entryY=0.5;entryDx=0;entryDy=0;" parent="TQJaViDsqMAskRc4-mNs-74" source="TQJaViDsqMAskRc4-mNs-47" target="TQJaViDsqMAskRc4-mNs-42" edge="1">
          <mxGeometry relative="1" as="geometry">
            <mxPoint x="954" y="359.71000000000004" as="sourcePoint" />
            <mxPoint x="1015" y="360" as="targetPoint" />
            <Array as="points">
              <mxPoint x="1145" y="350" />
              <mxPoint x="1145" y="350" />
            </Array>
          </mxGeometry>
        </mxCell>
        <mxCell id="TQJaViDsqMAskRc4-mNs-49" value="" style="rounded=0;html=1;jettySize=auto;orthogonalLoop=1;fontSize=9;endArrow=block;endFill=0;endSize=8;strokeWidth=1;shadow=0;labelBackgroundColor=none;edgeStyle=orthogonalEdgeStyle;exitX=1;exitY=0.5;exitDx=0;exitDy=0;entryX=0.027;entryY=0.545;entryDx=0;entryDy=0;entryPerimeter=0;" parent="TQJaViDsqMAskRc4-mNs-74" source="TQJaViDsqMAskRc4-mNs-42" target="MFehWvs3WyKKxc41Y9VR-88" edge="1">
          <mxGeometry relative="1" as="geometry">
            <mxPoint x="1245" y="350" as="sourcePoint" />
            <mxPoint x="1300" y="350" as="targetPoint" />
            <Array as="points" />
          </mxGeometry>
        </mxCell>
        <mxCell id="TQJaViDsqMAskRc4-mNs-52" value="&lt;font style=&quot;font-size: 9px;&quot;&gt;Ja&lt;/font&gt;" style="edgeLabel;html=1;align=center;verticalAlign=middle;resizable=0;points=[];fontSize=9;" parent="TQJaViDsqMAskRc4-mNs-49" vertex="1" connectable="0">
          <mxGeometry x="0.0267" y="-1" relative="1" as="geometry">
            <mxPoint x="-5" y="-1" as="offset" />
          </mxGeometry>
        </mxCell>
        <mxCell id="TQJaViDsqMAskRc4-mNs-53" value="" style="ellipse;whiteSpace=wrap;html=1;aspect=fixed;strokeWidth=3;fontSize=9;" parent="TQJaViDsqMAskRc4-mNs-74" vertex="1">
          <mxGeometry x="1420.75" y="330.75" width="35" height="35" as="geometry" />
        </mxCell>
        <mxCell id="TQJaViDsqMAskRc4-mNs-54" value="Person wird als Mitglied in Sektion aufgenommen" style="text;html=1;align=center;verticalAlign=middle;whiteSpace=wrap;rounded=0;fontSize=9;" parent="TQJaViDsqMAskRc4-mNs-74" vertex="1">
          <mxGeometry x="1388" y="379.25" width="100" height="30" as="geometry" />
        </mxCell>
        <mxCell id="TQJaViDsqMAskRc4-mNs-58" value="" style="rounded=0;html=1;jettySize=auto;orthogonalLoop=1;fontSize=9;endArrow=block;endFill=0;endSize=8;strokeWidth=1;shadow=0;labelBackgroundColor=none;edgeStyle=orthogonalEdgeStyle;" parent="TQJaViDsqMAskRc4-mNs-74" edge="1">
          <mxGeometry relative="1" as="geometry">
            <mxPoint x="1205" y="390" as="sourcePoint" />
            <mxPoint x="1055" y="380" as="targetPoint" />
            <Array as="points">
              <mxPoint x="1205" y="425" />
              <mxPoint x="1055" y="425" />
            </Array>
          </mxGeometry>
        </mxCell>
        <mxCell id="TQJaViDsqMAskRc4-mNs-59" value="Nein" style="edgeLabel;html=1;align=center;verticalAlign=middle;resizable=0;points=[];fontSize=9;" parent="TQJaViDsqMAskRc4-mNs-58" vertex="1" connectable="0">
          <mxGeometry x="-0.1111" relative="1" as="geometry">
            <mxPoint x="-8" as="offset" />
          </mxGeometry>
        </mxCell>
        <mxCell id="TQJaViDsqMAskRc4-mNs-95" value="" style="endArrow=none;html=1;rounded=0;" parent="TQJaViDsqMAskRc4-mNs-74" edge="1">
          <mxGeometry width="50" height="50" relative="1" as="geometry">
            <mxPoint x="1123" y="310" as="sourcePoint" />
            <mxPoint x="1123" y="270" as="targetPoint" />
            <Array as="points">
              <mxPoint x="1123" y="290" />
            </Array>
          </mxGeometry>
        </mxCell>
        <mxCell id="TQJaViDsqMAskRc4-mNs-97" value="" style="endArrow=none;html=1;rounded=0;" parent="TQJaViDsqMAskRc4-mNs-74" edge="1">
          <mxGeometry width="50" height="50" relative="1" as="geometry">
            <mxPoint x="1133" y="270" as="sourcePoint" />
            <mxPoint x="1123" y="270" as="targetPoint" />
            <Array as="points">
              <mxPoint x="1125" y="270" />
            </Array>
          </mxGeometry>
        </mxCell>
        <mxCell id="TQJaViDsqMAskRc4-mNs-98" value="" style="endArrow=none;html=1;rounded=0;" parent="TQJaViDsqMAskRc4-mNs-74" edge="1">
          <mxGeometry width="50" height="50" relative="1" as="geometry">
            <mxPoint x="1133" y="310" as="sourcePoint" />
            <mxPoint x="1123" y="310" as="targetPoint" />
            <Array as="points">
              <mxPoint x="1127" y="310" />
            </Array>
          </mxGeometry>
        </mxCell>
        <mxCell id="TQJaViDsqMAskRc4-mNs-99" value="&lt;div align=&quot;left&quot;&gt;&lt;font style=&quot;font-size: 7px;&quot;&gt;-&amp;nbsp;&amp;nbsp;&amp;nbsp;&amp;nbsp;&amp;nbsp;&amp;nbsp;&amp;nbsp;&amp;nbsp; Login vorhanden?&lt;/font&gt;&lt;/div&gt;&lt;div align=&quot;left&quot;&gt;&lt;font style=&quot;font-size: 7px;&quot;&gt;-&amp;nbsp;&amp;nbsp;&amp;nbsp;&amp;nbsp;&amp;nbsp;&amp;nbsp;&amp;nbsp;&amp;nbsp; Mitgliederbeitrag bezahlt?&lt;/font&gt;&lt;/div&gt;&lt;div align=&quot;left&quot;&gt;&lt;font style=&quot;font-size: 7px;&quot;&gt;-&amp;nbsp;&amp;nbsp;&amp;nbsp;&amp;nbsp;&amp;nbsp;&amp;nbsp;&amp;nbsp;&amp;nbsp; Kein Duplikat?&lt;br&gt;&lt;/font&gt;&lt;/div&gt;" style="text;html=1;align=left;verticalAlign=middle;whiteSpace=wrap;rounded=0;" parent="TQJaViDsqMAskRc4-mNs-74" vertex="1">
          <mxGeometry x="1125" y="270" width="108" height="40" as="geometry" />
        </mxCell>
        <mxCell id="TQJaViDsqMAskRc4-mNs-154" value="&lt;font style=&quot;font-size: 8px;&quot;&gt;Automatische Überprüfung der Kriterien&lt;br&gt;&lt;/font&gt;" style="rounded=1;whiteSpace=wrap;html=1;arcSize=7;" parent="TQJaViDsqMAskRc4-mNs-74" vertex="1">
          <mxGeometry x="773" y="210" width="130" height="35" as="geometry" />
        </mxCell>
        <mxCell id="TQJaViDsqMAskRc4-mNs-152" value="" style="endArrow=none;html=1;rounded=0;exitX=0.75;exitY=0;exitDx=0;exitDy=0;" parent="TQJaViDsqMAskRc4-mNs-74" source="TQJaViDsqMAskRc4-mNs-47" edge="1">
          <mxGeometry width="50" height="50" relative="1" as="geometry">
            <mxPoint x="1013" y="440" as="sourcePoint" />
            <mxPoint x="1123" y="290" as="targetPoint" />
          </mxGeometry>
        </mxCell>
        <mxCell id="TQJaViDsqMAskRc4-mNs-23" value="" style="rounded=0;html=1;jettySize=auto;orthogonalLoop=1;fontSize=9;endArrow=block;endFill=0;endSize=8;strokeWidth=1;shadow=0;labelBackgroundColor=none;edgeStyle=orthogonalEdgeStyle;exitX=1;exitY=0.5;exitDx=0;exitDy=0;entryX=0;entryY=0.5;entryDx=0;entryDy=0;" parent="TQJaViDsqMAskRc4-mNs-74" source="TQJaViDsqMAskRc4-mNs-18" target="TQJaViDsqMAskRc4-mNs-20" edge="1">
          <mxGeometry relative="1" as="geometry">
            <mxPoint x="733" y="75" as="sourcePoint" />
            <mxPoint x="783" y="75" as="targetPoint" />
          </mxGeometry>
        </mxCell>
        <mxCell id="TQJaViDsqMAskRc4-mNs-35" value="Nein" style="edgeLabel;html=1;align=center;verticalAlign=middle;resizable=0;points=[];fontSize=9;" parent="TQJaViDsqMAskRc4-mNs-23" vertex="1" connectable="0">
          <mxGeometry x="0.0619" y="-2" relative="1" as="geometry">
            <mxPoint x="-27" y="-11" as="offset" />
          </mxGeometry>
        </mxCell>
        <mxCell id="TQJaViDsqMAskRc4-mNs-111" value="" style="rounded=0;html=1;jettySize=auto;orthogonalLoop=1;fontSize=9;endArrow=block;endFill=0;endSize=8;strokeWidth=1;shadow=0;labelBackgroundColor=none;edgeStyle=orthogonalEdgeStyle;exitX=0.445;exitY=1.021;exitDx=0;exitDy=0;exitPerimeter=0;entryX=0.5;entryY=0;entryDx=0;entryDy=0;" parent="TQJaViDsqMAskRc4-mNs-74" edge="1" target="TQJaViDsqMAskRc4-mNs-108" source="TQJaViDsqMAskRc4-mNs-107">
          <mxGeometry relative="1" as="geometry">
            <mxPoint x="455.75" y="95.71000000000001" as="sourcePoint" />
            <mxPoint x="456" y="115.71000000000001" as="targetPoint" />
            <Array as="points" />
          </mxGeometry>
        </mxCell>
        <mxCell id="b4T5uP7tchPNODKssLE_-43" value="Sektionsüberprüfung" style="rounded=1;whiteSpace=wrap;html=1;fontSize=9;glass=0;strokeWidth=1;shadow=0;fillColor=#e1d5e7;strokeColor=#9673a6;" parent="TQJaViDsqMAskRc4-mNs-74" vertex="1">
          <mxGeometry x="578" y="192" width="160" height="40" as="geometry" />
        </mxCell>
        <mxCell id="b4T5uP7tchPNODKssLE_-24" value="" style="group" parent="TQJaViDsqMAskRc4-mNs-74" vertex="1" connectable="0">
          <mxGeometry x="793" y="360" width="20" height="20" as="geometry" />
        </mxCell>
        <mxCell id="b4T5uP7tchPNODKssLE_-25" value="" style="ellipse;whiteSpace=wrap;html=1;aspect=fixed;fillColor=#3333FF;" parent="b4T5uP7tchPNODKssLE_-24" vertex="1">
          <mxGeometry width="20" height="20" as="geometry" />
        </mxCell>
        <mxCell id="b4T5uP7tchPNODKssLE_-26" value="&lt;font style=&quot;font-size: 10px; background-color: rgb(51, 51, 255);&quot; color=&quot;#ffffff&quot;&gt;A5&lt;/font&gt;" style="text;html=1;align=center;verticalAlign=middle;whiteSpace=wrap;rounded=0;" parent="b4T5uP7tchPNODKssLE_-24" vertex="1">
          <mxGeometry x="3.125" y="3.125" width="13.75" height="13.75" as="geometry" />
        </mxCell>
        <mxCell id="b4T5uP7tchPNODKssLE_-30" value="" style="group" parent="TQJaViDsqMAskRc4-mNs-74" vertex="1" connectable="0">
          <mxGeometry x="996" y="370" width="20" height="20" as="geometry" />
        </mxCell>
        <mxCell id="b4T5uP7tchPNODKssLE_-31" value="" style="ellipse;whiteSpace=wrap;html=1;aspect=fixed;fillColor=#3333FF;" parent="b4T5uP7tchPNODKssLE_-30" vertex="1">
          <mxGeometry width="20" height="20" as="geometry" />
        </mxCell>
        <mxCell id="b4T5uP7tchPNODKssLE_-32" value="&lt;font color=&quot;#ffffff&quot;&gt;A8&lt;/font&gt;" style="text;html=1;align=center;verticalAlign=middle;whiteSpace=wrap;rounded=0;" parent="b4T5uP7tchPNODKssLE_-30" vertex="1">
          <mxGeometry x="3.125" y="3.125" width="13.75" height="13.75" as="geometry" />
        </mxCell>
        <mxCell id="b4T5uP7tchPNODKssLE_-54" value="" style="rounded=0;html=1;jettySize=auto;orthogonalLoop=1;fontSize=9;endArrow=block;endFill=0;endSize=8;strokeWidth=1;shadow=0;labelBackgroundColor=none;edgeStyle=orthogonalEdgeStyle;entryX=0.5;entryY=0;entryDx=0;entryDy=0;exitX=0.471;exitY=1.003;exitDx=0;exitDy=0;exitPerimeter=0;" parent="TQJaViDsqMAskRc4-mNs-74" source="b4T5uP7tchPNODKssLE_-43" target="TQJaViDsqMAskRc4-mNs-18" edge="1">
          <mxGeometry relative="1" as="geometry">
            <mxPoint x="665" y="160" as="sourcePoint" />
            <mxPoint x="664" y="206" as="targetPoint" />
            <Array as="points">
              <mxPoint x="653" y="240" />
              <mxPoint x="653" y="240" />
            </Array>
          </mxGeometry>
        </mxCell>
        <mxCell id="b4T5uP7tchPNODKssLE_-21" value="" style="group" parent="TQJaViDsqMAskRc4-mNs-74" vertex="1" connectable="0">
          <mxGeometry x="564.25" y="406" width="20" height="20" as="geometry" />
        </mxCell>
        <mxCell id="b4T5uP7tchPNODKssLE_-22" value="" style="ellipse;whiteSpace=wrap;html=1;aspect=fixed;fillColor=#3333FF;" parent="b4T5uP7tchPNODKssLE_-21" vertex="1">
          <mxGeometry width="20" height="20" as="geometry" />
        </mxCell>
        <mxCell id="b4T5uP7tchPNODKssLE_-23" value="&lt;font style=&quot;font-size: 10px; background-color: rgb(51, 51, 255);&quot; color=&quot;#ffffff&quot;&gt;A4&lt;/font&gt;" style="text;html=1;align=center;verticalAlign=middle;whiteSpace=wrap;rounded=0;" parent="b4T5uP7tchPNODKssLE_-21" vertex="1">
          <mxGeometry x="3.125" y="3.125" width="13.75" height="13.75" as="geometry" />
        </mxCell>
        <mxCell id="b4T5uP7tchPNODKssLE_-57" value="" style="ellipse;whiteSpace=wrap;html=1;aspect=fixed;fillColor=#000000;" parent="TQJaViDsqMAskRc4-mNs-74" vertex="1">
          <mxGeometry x="568" y="220" width="20" height="20" as="geometry" />
        </mxCell>
        <mxCell id="b4T5uP7tchPNODKssLE_-58" value="" style="group" parent="TQJaViDsqMAskRc4-mNs-74" vertex="1" connectable="0">
          <mxGeometry x="568" y="220" width="20" height="20" as="geometry" />
        </mxCell>
        <mxCell id="b4T5uP7tchPNODKssLE_-59" value="" style="ellipse;whiteSpace=wrap;html=1;aspect=fixed;fillColor=#3333FF;" parent="b4T5uP7tchPNODKssLE_-58" vertex="1">
          <mxGeometry width="20" height="20" as="geometry" />
        </mxCell>
        <mxCell id="b4T5uP7tchPNODKssLE_-60" value="&lt;font style=&quot;font-size: 10px; background-color: rgb(51, 51, 255);&quot; color=&quot;#ffffff&quot;&gt;A3&lt;/font&gt;" style="text;html=1;align=center;verticalAlign=middle;whiteSpace=wrap;rounded=0;" parent="b4T5uP7tchPNODKssLE_-58" vertex="1">
          <mxGeometry x="3.125" y="3.125" width="13.75" height="13.75" as="geometry" />
        </mxCell>
        <mxCell id="MFehWvs3WyKKxc41Y9VR-14" value="" style="verticalLabelPosition=bottom;verticalAlign=top;html=1;shape=mxgraph.basic.tick;fillColor=#009900;" vertex="1" parent="TQJaViDsqMAskRc4-mNs-74">
          <mxGeometry x="502" y="225.6900000000001" width="25" height="25" as="geometry" />
        </mxCell>
        <mxCell id="MFehWvs3WyKKxc41Y9VR-15" value="" style="group" vertex="1" connectable="0" parent="TQJaViDsqMAskRc4-mNs-74">
          <mxGeometry x="472" y="230.6900000000001" width="20" height="20" as="geometry" />
        </mxCell>
        <mxCell id="MFehWvs3WyKKxc41Y9VR-16" value="" style="ellipse;whiteSpace=wrap;html=1;aspect=fixed;fillColor=#009900;" vertex="1" parent="MFehWvs3WyKKxc41Y9VR-15">
          <mxGeometry width="20" height="20" as="geometry" />
        </mxCell>
        <mxCell id="MFehWvs3WyKKxc41Y9VR-17" value="&lt;font style=&quot;background-color: rgb(0, 153, 0); font-size: 10px;&quot; color=&quot;#ffffff&quot;&gt;B2&lt;/font&gt;" style="text;html=1;align=center;verticalAlign=middle;whiteSpace=wrap;rounded=0;" vertex="1" parent="MFehWvs3WyKKxc41Y9VR-15">
          <mxGeometry x="3.125" y="2.125" width="13.75" height="13.75" as="geometry" />
        </mxCell>
        <mxCell id="MFehWvs3WyKKxc41Y9VR-1" value="" style="sketch=0;pointerEvents=1;shadow=0;dashed=0;html=1;strokeColor=none;fillColor=#505050;labelPosition=center;verticalLabelPosition=bottom;verticalAlign=top;outlineConnect=0;align=center;shape=mxgraph.office.users.users_two;" vertex="1" parent="TQJaViDsqMAskRc4-mNs-74">
          <mxGeometry x="576" y="382" width="20" height="15" as="geometry" />
        </mxCell>
        <mxCell id="MFehWvs3WyKKxc41Y9VR-23" value="" style="sketch=0;pointerEvents=1;shadow=0;dashed=0;html=1;strokeColor=none;fillColor=#505050;labelPosition=center;verticalLabelPosition=bottom;verticalAlign=top;outlineConnect=0;align=center;shape=mxgraph.office.users.users_two;" vertex="1" parent="TQJaViDsqMAskRc4-mNs-74">
          <mxGeometry x="807" y="318.5" width="20" height="15" as="geometry" />
        </mxCell>
        <mxCell id="MFehWvs3WyKKxc41Y9VR-26" value="" style="ellipse;whiteSpace=wrap;html=1;aspect=fixed;fontSize=9;fillColor=#000000;" vertex="1" parent="TQJaViDsqMAskRc4-mNs-74">
          <mxGeometry x="1426" y="336" width="24.5" height="24.5" as="geometry" />
        </mxCell>
        <mxCell id="MFehWvs3WyKKxc41Y9VR-34" value="" style="rounded=0;whiteSpace=wrap;html=1;" vertex="1" parent="TQJaViDsqMAskRc4-mNs-74">
          <mxGeometry x="988" y="30" width="210" height="100" as="geometry" />
        </mxCell>
        <mxCell id="MFehWvs3WyKKxc41Y9VR-33" value="" style="sketch=0;pointerEvents=1;shadow=0;dashed=0;html=1;strokeColor=none;fillColor=#505050;labelPosition=center;verticalLabelPosition=bottom;verticalAlign=top;outlineConnect=0;align=center;shape=mxgraph.office.concepts.settings;" vertex="1" parent="TQJaViDsqMAskRc4-mNs-74">
          <mxGeometry x="1008" y="322.75" width="15" height="15" as="geometry" />
        </mxCell>
        <mxCell id="TQJaViDsqMAskRc4-mNs-85" value="Rechnung wird erstellt" style="rounded=1;whiteSpace=wrap;html=1;fontSize=9;fillColor=#e1d5e7;strokeColor=#9673a6;" parent="TQJaViDsqMAskRc4-mNs-74" vertex="1">
          <mxGeometry x="1038.44" y="50" width="120" height="60" as="geometry" />
        </mxCell>
        <mxCell id="b4T5uP7tchPNODKssLE_-27" value="" style="group" parent="TQJaViDsqMAskRc4-mNs-74" vertex="1" connectable="0">
          <mxGeometry x="1027.5700000000002" y="100" width="20" height="20" as="geometry" />
        </mxCell>
        <mxCell id="b4T5uP7tchPNODKssLE_-28" value="" style="ellipse;whiteSpace=wrap;html=1;aspect=fixed;fillColor=#3333FF;" parent="b4T5uP7tchPNODKssLE_-27" vertex="1">
          <mxGeometry width="20" height="20" as="geometry" />
        </mxCell>
        <mxCell id="b4T5uP7tchPNODKssLE_-29" value="&lt;font color=&quot;#ffffff&quot;&gt;A6&lt;/font&gt;" style="text;html=1;align=center;verticalAlign=middle;whiteSpace=wrap;rounded=0;" parent="b4T5uP7tchPNODKssLE_-27" vertex="1">
          <mxGeometry x="3.125" y="3.125" width="13.75" height="13.75" as="geometry" />
        </mxCell>
        <mxCell id="MFehWvs3WyKKxc41Y9VR-36" value="" style="sketch=0;pointerEvents=1;shadow=0;dashed=0;html=1;strokeColor=none;fillColor=#505050;labelPosition=center;verticalLabelPosition=bottom;verticalAlign=top;outlineConnect=0;align=center;shape=mxgraph.office.concepts.settings;" vertex="1" parent="TQJaViDsqMAskRc4-mNs-74">
          <mxGeometry x="1041.5700000000002" y="54" width="15" height="15" as="geometry" />
        </mxCell>
        <mxCell id="MFehWvs3WyKKxc41Y9VR-47" value="" style="ellipse;whiteSpace=wrap;html=1;aspect=fixed;fillColor=#009900;" vertex="1" parent="TQJaViDsqMAskRc4-mNs-74">
          <mxGeometry x="1133" y="271.94" width="10" height="10" as="geometry" />
        </mxCell>
        <mxCell id="MFehWvs3WyKKxc41Y9VR-48" value="&lt;font style=&quot;background-color: rgb(0, 153, 0); font-size: 4px;&quot; color=&quot;#ffffff&quot;&gt;B1&lt;/font&gt;" style="text;html=1;align=center;verticalAlign=middle;whiteSpace=wrap;rounded=0;" vertex="1" parent="TQJaViDsqMAskRc4-mNs-74">
          <mxGeometry x="1131.125" y="268.065" width="13.75" height="13.75" as="geometry" />
        </mxCell>
        <mxCell id="MFehWvs3WyKKxc41Y9VR-49" value="" style="ellipse;whiteSpace=wrap;html=1;aspect=fixed;fillColor=#009900;" vertex="1" parent="TQJaViDsqMAskRc4-mNs-74">
          <mxGeometry x="1132.88" y="285.69000000000005" width="10" height="10" as="geometry" />
        </mxCell>
        <mxCell id="MFehWvs3WyKKxc41Y9VR-50" value="&lt;font style=&quot;background-color: rgb(0, 153, 0); font-size: 4px;&quot; color=&quot;#ffffff&quot;&gt;B2&lt;/font&gt;" style="text;html=1;align=center;verticalAlign=middle;whiteSpace=wrap;rounded=0;" vertex="1" parent="TQJaViDsqMAskRc4-mNs-74">
          <mxGeometry x="1131.005" y="281.81500000000005" width="13.75" height="13.75" as="geometry" />
        </mxCell>
        <mxCell id="MFehWvs3WyKKxc41Y9VR-53" value="mySAC/CAS Rechnung" style="rounded=1;whiteSpace=wrap;html=1;fontSize=9;glass=0;strokeWidth=1;shadow=0;fillColor=#e1d5e7;strokeColor=#9673a6;" vertex="1" parent="TQJaViDsqMAskRc4-mNs-74">
          <mxGeometry x="1228" y="151.87" width="160" height="40" as="geometry" />
        </mxCell>
        <mxCell id="MFehWvs3WyKKxc41Y9VR-54" value="" style="ellipse;whiteSpace=wrap;html=1;aspect=fixed;fillColor=#000000;" vertex="1" parent="TQJaViDsqMAskRc4-mNs-74">
          <mxGeometry x="1218" y="179.87" width="20" height="20" as="geometry" />
        </mxCell>
        <mxCell id="MFehWvs3WyKKxc41Y9VR-55" value="" style="group" vertex="1" connectable="0" parent="TQJaViDsqMAskRc4-mNs-74">
          <mxGeometry x="1218" y="179.87" width="20" height="20" as="geometry" />
        </mxCell>
        <mxCell id="MFehWvs3WyKKxc41Y9VR-56" value="" style="ellipse;whiteSpace=wrap;html=1;aspect=fixed;fillColor=#3333FF;" vertex="1" parent="MFehWvs3WyKKxc41Y9VR-55">
          <mxGeometry width="20" height="20" as="geometry" />
        </mxCell>
        <mxCell id="MFehWvs3WyKKxc41Y9VR-57" value="&lt;font color=&quot;#ffffff&quot;&gt;A7&lt;/font&gt;" style="text;html=1;align=center;verticalAlign=middle;whiteSpace=wrap;rounded=0;" vertex="1" parent="MFehWvs3WyKKxc41Y9VR-55">
          <mxGeometry x="3.125" y="3.125" width="13.75" height="13.75" as="geometry" />
        </mxCell>
        <mxCell id="MFehWvs3WyKKxc41Y9VR-58" value="" style="sketch=0;pointerEvents=1;shadow=0;dashed=0;html=1;strokeColor=none;fillColor=#505050;labelPosition=center;verticalLabelPosition=bottom;verticalAlign=top;outlineConnect=0;align=center;shape=mxgraph.office.concepts.settings;" vertex="1" parent="TQJaViDsqMAskRc4-mNs-74">
          <mxGeometry x="1231" y="154.87" width="15" height="15" as="geometry" />
        </mxCell>
        <mxCell id="MFehWvs3WyKKxc41Y9VR-61" value="" style="ellipse;whiteSpace=wrap;html=1;aspect=fixed;dashed=1;fontSize=9;" vertex="1" parent="TQJaViDsqMAskRc4-mNs-74">
          <mxGeometry x="1071" y="147" width="50" height="50" as="geometry" />
        </mxCell>
        <mxCell id="MFehWvs3WyKKxc41Y9VR-62" value="" style="sketch=0;outlineConnect=0;fontColor=#232F3E;gradientColor=none;fillColor=#232F3D;strokeColor=none;dashed=0;verticalLabelPosition=bottom;verticalAlign=top;align=center;html=1;fontSize=9;fontStyle=0;aspect=fixed;pointerEvents=1;shape=mxgraph.aws4.email_2;" vertex="1" parent="TQJaViDsqMAskRc4-mNs-74">
          <mxGeometry x="1085" y="164.46000000000004" width="24" height="15.08" as="geometry" />
        </mxCell>
        <mxCell id="MFehWvs3WyKKxc41Y9VR-63" value="" style="ellipse;whiteSpace=wrap;html=1;aspect=fixed;fillColor=#9999FF;" vertex="1" parent="TQJaViDsqMAskRc4-mNs-74">
          <mxGeometry x="1065" y="183" width="20" height="20" as="geometry" />
        </mxCell>
        <mxCell id="MFehWvs3WyKKxc41Y9VR-64" value="&lt;font style=&quot;font-size: 10px;&quot; color=&quot;#ffffff&quot;&gt;M2&lt;/font&gt;" style="text;html=1;align=center;verticalAlign=middle;whiteSpace=wrap;rounded=0;fillColor=#9999FF;" vertex="1" parent="TQJaViDsqMAskRc4-mNs-74">
          <mxGeometry x="1068.125" y="186.125" width="13.75" height="13.75" as="geometry" />
        </mxCell>
        <mxCell id="MFehWvs3WyKKxc41Y9VR-66" value="&lt;font style=&quot;font-size: 8px;&quot;&gt;Notification Mail mit Hitobito Link&lt;/font&gt;" style="text;html=1;align=center;verticalAlign=middle;whiteSpace=wrap;rounded=0;" vertex="1" parent="TQJaViDsqMAskRc4-mNs-74">
          <mxGeometry x="1067" y="199.88" width="60" height="30" as="geometry" />
        </mxCell>
        <mxCell id="MFehWvs3WyKKxc41Y9VR-67" value="" style="rounded=0;html=1;jettySize=auto;orthogonalLoop=1;fontSize=9;endArrow=block;endFill=0;endSize=8;strokeWidth=1;shadow=0;labelBackgroundColor=none;edgeStyle=orthogonalEdgeStyle;exitX=0.5;exitY=1;exitDx=0;exitDy=0;" edge="1" parent="TQJaViDsqMAskRc4-mNs-74" source="TQJaViDsqMAskRc4-mNs-85">
          <mxGeometry relative="1" as="geometry">
            <mxPoint x="1135" y="360" as="sourcePoint" />
            <mxPoint x="1098" y="146" as="targetPoint" />
            <Array as="points">
              <mxPoint x="1098" y="140" />
              <mxPoint x="1098" y="140" />
            </Array>
          </mxGeometry>
        </mxCell>
        <mxCell id="MFehWvs3WyKKxc41Y9VR-68" value="" style="rounded=0;html=1;jettySize=auto;orthogonalLoop=1;fontSize=9;endArrow=block;endFill=0;endSize=8;strokeWidth=1;shadow=0;labelBackgroundColor=none;edgeStyle=orthogonalEdgeStyle;exitX=1;exitY=0.5;exitDx=0;exitDy=0;entryX=-0.019;entryY=0.589;entryDx=0;entryDy=0;entryPerimeter=0;" edge="1" parent="TQJaViDsqMAskRc4-mNs-74" source="MFehWvs3WyKKxc41Y9VR-61" target="MFehWvs3WyKKxc41Y9VR-53">
          <mxGeometry relative="1" as="geometry">
            <mxPoint x="1162" y="79.86000000000013" as="sourcePoint" />
            <mxPoint x="1221" y="70" as="targetPoint" />
            <Array as="points">
              <mxPoint x="1121" y="175" />
              <mxPoint x="1182" y="175" />
            </Array>
          </mxGeometry>
        </mxCell>
        <mxCell id="MFehWvs3WyKKxc41Y9VR-72" value="" style="rounded=0;html=1;jettySize=auto;orthogonalLoop=1;fontSize=9;endArrow=block;endFill=0;endSize=8;strokeWidth=1;shadow=0;labelBackgroundColor=none;edgeStyle=orthogonalEdgeStyle;" edge="1" parent="TQJaViDsqMAskRc4-mNs-74">
          <mxGeometry relative="1" as="geometry">
            <mxPoint x="660" y="50" as="sourcePoint" />
            <mxPoint x="590" y="50" as="targetPoint" />
            <Array as="points">
              <mxPoint x="610" y="50" />
              <mxPoint x="610" y="50" />
            </Array>
          </mxGeometry>
        </mxCell>
        <mxCell id="b4T5uP7tchPNODKssLE_-18" value="" style="group" parent="TQJaViDsqMAskRc4-mNs-74" vertex="1" connectable="0">
          <mxGeometry x="418" y="58.00000000000001" width="20" height="20" as="geometry" />
        </mxCell>
        <mxCell id="b4T5uP7tchPNODKssLE_-19" value="" style="ellipse;whiteSpace=wrap;html=1;aspect=fixed;fillColor=#3333FF;" parent="b4T5uP7tchPNODKssLE_-18" vertex="1">
          <mxGeometry width="20" height="20" as="geometry" />
        </mxCell>
        <mxCell id="b4T5uP7tchPNODKssLE_-20" value="&lt;font style=&quot;font-size: 10px; background-color: rgb(51, 51, 255);&quot; color=&quot;#ffffff&quot;&gt;A1&lt;/font&gt;" style="text;html=1;align=center;verticalAlign=middle;whiteSpace=wrap;rounded=0;" parent="b4T5uP7tchPNODKssLE_-18" vertex="1">
          <mxGeometry x="3.125" y="3.125" width="13.75" height="13.75" as="geometry" />
        </mxCell>
        <mxCell id="MFehWvs3WyKKxc41Y9VR-11" value="" style="sketch=0;pointerEvents=1;shadow=0;dashed=0;html=1;strokeColor=none;fillColor=#505050;labelPosition=center;verticalLabelPosition=bottom;verticalAlign=top;outlineConnect=0;align=center;shape=mxgraph.office.concepts.settings;" vertex="1" parent="TQJaViDsqMAskRc4-mNs-74">
          <mxGeometry x="430" y="32" width="15" height="15" as="geometry" />
        </mxCell>
        <mxCell id="MFehWvs3WyKKxc41Y9VR-73" value="" style="rounded=0;html=1;jettySize=auto;orthogonalLoop=1;fontSize=9;endArrow=block;endFill=0;endSize=8;strokeWidth=1;shadow=0;labelBackgroundColor=none;edgeStyle=orthogonalEdgeStyle;exitX=0.445;exitY=1.021;exitDx=0;exitDy=0;exitPerimeter=0;entryX=0.5;entryY=0;entryDx=0;entryDy=0;" edge="1" parent="TQJaViDsqMAskRc4-mNs-74">
          <mxGeometry relative="1" as="geometry">
            <mxPoint x="498.3" y="184.69000000000005" as="sourcePoint" />
            <mxPoint x="498.3" y="230.69000000000005" as="targetPoint" />
            <Array as="points" />
          </mxGeometry>
        </mxCell>
        <mxCell id="MFehWvs3WyKKxc41Y9VR-74" value="Nein" style="edgeLabel;html=1;align=center;verticalAlign=middle;resizable=0;points=[];" vertex="1" connectable="0" parent="MFehWvs3WyKKxc41Y9VR-73">
          <mxGeometry x="-0.1952" relative="1" as="geometry">
            <mxPoint as="offset" />
          </mxGeometry>
        </mxCell>
        <mxCell id="MFehWvs3WyKKxc41Y9VR-75" value="" style="rounded=0;html=1;jettySize=auto;orthogonalLoop=1;fontSize=9;endArrow=block;endFill=0;endSize=8;strokeWidth=1;shadow=0;labelBackgroundColor=none;edgeStyle=orthogonalEdgeStyle;" edge="1" parent="TQJaViDsqMAskRc4-mNs-74">
          <mxGeometry relative="1" as="geometry">
            <mxPoint x="460" y="150" as="sourcePoint" />
            <mxPoint x="360" y="220" as="targetPoint" />
            <Array as="points">
              <mxPoint x="360" y="151" />
              <mxPoint x="360" y="200" />
            </Array>
          </mxGeometry>
        </mxCell>
        <mxCell id="MFehWvs3WyKKxc41Y9VR-82" value="Ja" style="edgeLabel;html=1;align=center;verticalAlign=middle;resizable=0;points=[];" vertex="1" connectable="0" parent="MFehWvs3WyKKxc41Y9VR-75">
          <mxGeometry x="-0.3134" y="2" relative="1" as="geometry">
            <mxPoint as="offset" />
          </mxGeometry>
        </mxCell>
        <mxCell id="MFehWvs3WyKKxc41Y9VR-77" value="&lt;font style=&quot;font-size: 9px;&quot;&gt;Gruppe&lt;br style=&quot;font-size: 9px;&quot;&gt;&quot;Duplikate&quot;&lt;/font&gt;" style="rounded=1;whiteSpace=wrap;html=1;fontSize=9;fillColor=#ffe6cc;strokeColor=#d79b00;" vertex="1" parent="TQJaViDsqMAskRc4-mNs-74">
          <mxGeometry x="285" y="222.07" width="160" height="40" as="geometry" />
        </mxCell>
        <mxCell id="MFehWvs3WyKKxc41Y9VR-78" value="" style="group" vertex="1" connectable="0" parent="TQJaViDsqMAskRc4-mNs-74">
          <mxGeometry x="276.25" y="248.07" width="20" height="20" as="geometry" />
        </mxCell>
        <mxCell id="MFehWvs3WyKKxc41Y9VR-79" value="" style="ellipse;whiteSpace=wrap;html=1;aspect=fixed;fillColor=#3333FF;" vertex="1" parent="MFehWvs3WyKKxc41Y9VR-78">
          <mxGeometry width="20" height="20" as="geometry" />
        </mxCell>
        <mxCell id="MFehWvs3WyKKxc41Y9VR-80" value="&lt;font style=&quot;font-size: 10px; background-color: rgb(51, 51, 255);&quot; color=&quot;#ffffff&quot;&gt;A2&lt;/font&gt;" style="text;html=1;align=center;verticalAlign=middle;whiteSpace=wrap;rounded=0;" vertex="1" parent="MFehWvs3WyKKxc41Y9VR-78">
          <mxGeometry x="3.125" y="3.125" width="13.75" height="13.75" as="geometry" />
        </mxCell>
        <mxCell id="MFehWvs3WyKKxc41Y9VR-81" value="" style="sketch=0;pointerEvents=1;shadow=0;dashed=0;html=1;strokeColor=none;fillColor=#505050;labelPosition=center;verticalLabelPosition=bottom;verticalAlign=top;outlineConnect=0;align=center;shape=mxgraph.office.users.users_two;" vertex="1" parent="TQJaViDsqMAskRc4-mNs-74">
          <mxGeometry x="288" y="224.07" width="20" height="15" as="geometry" />
        </mxCell>
        <mxCell id="MFehWvs3WyKKxc41Y9VR-88" value="" style="ellipse;whiteSpace=wrap;html=1;aspect=fixed;dashed=1;fontSize=9;" vertex="1" parent="TQJaViDsqMAskRc4-mNs-74">
          <mxGeometry x="1302.53" y="322.7499999999999" width="50" height="50" as="geometry" />
        </mxCell>
        <mxCell id="MFehWvs3WyKKxc41Y9VR-89" value="" style="sketch=0;outlineConnect=0;fontColor=#232F3E;gradientColor=none;fillColor=#232F3D;strokeColor=none;dashed=0;verticalLabelPosition=bottom;verticalAlign=top;align=center;html=1;fontSize=9;fontStyle=0;aspect=fixed;pointerEvents=1;shape=mxgraph.aws4.email_2;" vertex="1" parent="TQJaViDsqMAskRc4-mNs-74">
          <mxGeometry x="1316.53" y="340.2099999999999" width="24" height="15.08" as="geometry" />
        </mxCell>
        <mxCell id="MFehWvs3WyKKxc41Y9VR-90" value="" style="ellipse;whiteSpace=wrap;html=1;aspect=fixed;fillColor=#9999FF;" vertex="1" parent="TQJaViDsqMAskRc4-mNs-74">
          <mxGeometry x="1296.53" y="358.7499999999999" width="20" height="20" as="geometry" />
        </mxCell>
        <mxCell id="MFehWvs3WyKKxc41Y9VR-91" value="&lt;font style=&quot;font-size: 10px;&quot; color=&quot;#ffffff&quot;&gt;M3&lt;/font&gt;" style="text;html=1;align=center;verticalAlign=middle;whiteSpace=wrap;rounded=0;fillColor=#9999FF;" vertex="1" parent="TQJaViDsqMAskRc4-mNs-74">
          <mxGeometry x="1299.655" y="361.8749999999999" width="13.75" height="13.75" as="geometry" />
        </mxCell>
        <mxCell id="MFehWvs3WyKKxc41Y9VR-93" value="" style="rounded=0;html=1;jettySize=auto;orthogonalLoop=1;fontSize=9;endArrow=block;endFill=0;endSize=8;strokeWidth=1;shadow=0;labelBackgroundColor=none;edgeStyle=orthogonalEdgeStyle;entryX=0;entryY=0.5;entryDx=0;entryDy=0;" edge="1" parent="TQJaViDsqMAskRc4-mNs-74" target="TQJaViDsqMAskRc4-mNs-53">
          <mxGeometry relative="1" as="geometry">
            <mxPoint x="1354" y="348" as="sourcePoint" />
            <mxPoint x="1372" y="349.8399999999999" as="targetPoint" />
            <Array as="points" />
          </mxGeometry>
        </mxCell>
        <mxCell id="TQJaViDsqMAskRc4-mNs-103" value="SAC Webseite" style="rounded=0;whiteSpace=wrap;html=1;" parent="WIyWlLk6GJQsqaUBKTNV-1" vertex="1">
          <mxGeometry x="-187" y="690" width="257" height="20" as="geometry" />
        </mxCell>
        <mxCell id="TQJaViDsqMAskRc4-mNs-105" value="Hitobito" style="rounded=0;whiteSpace=wrap;html=1;" parent="WIyWlLk6GJQsqaUBKTNV-1" vertex="1">
          <mxGeometry x="70" y="690" width="1280" height="20" as="geometry" />
        </mxCell>
        <mxCell id="TQJaViDsqMAskRc4-mNs-75" value="Mitgliederverwaltung Sektion" style="swimlane;horizontal=0;whiteSpace=wrap;html=1;fontSize=9;" parent="WIyWlLk6GJQsqaUBKTNV-1" vertex="1">
          <mxGeometry x="-210" y="1570" width="1560" height="320" as="geometry" />
        </mxCell>
        <mxCell id="TQJaViDsqMAskRc4-mNs-29" value="&lt;font style=&quot;font-size: 9px;&quot;&gt;Person wird angenommen&lt;/font&gt;" style="rhombus;whiteSpace=wrap;html=1;fontSize=9;" parent="TQJaViDsqMAskRc4-mNs-75" vertex="1">
          <mxGeometry x="613" y="100" width="80" height="80" as="geometry" />
        </mxCell>
        <mxCell id="TQJaViDsqMAskRc4-mNs-30" value="" style="rounded=0;html=1;jettySize=auto;orthogonalLoop=1;fontSize=9;endArrow=block;endFill=0;endSize=8;strokeWidth=1;shadow=0;labelBackgroundColor=none;edgeStyle=orthogonalEdgeStyle;exitX=0.5;exitY=1;exitDx=0;exitDy=0;entryX=0;entryY=0.5;entryDx=0;entryDy=0;" parent="TQJaViDsqMAskRc4-mNs-75" edge="1" target="TQJaViDsqMAskRc4-mNs-32">
          <mxGeometry relative="1" as="geometry">
            <mxPoint x="652.71" y="180" as="sourcePoint" />
            <mxPoint x="652.71" y="230" as="targetPoint" />
            <Array as="points">
              <mxPoint x="653" y="238" />
              <mxPoint x="971" y="238" />
            </Array>
          </mxGeometry>
        </mxCell>
        <mxCell id="TQJaViDsqMAskRc4-mNs-31" value="&lt;font style=&quot;font-size: 9px;&quot;&gt;Nein&lt;/font&gt;" style="edgeLabel;html=1;align=center;verticalAlign=middle;resizable=0;points=[];fontSize=9;" parent="TQJaViDsqMAskRc4-mNs-30" vertex="1" connectable="0">
          <mxGeometry x="-0.4343" relative="1" as="geometry">
            <mxPoint x="-137" y="-28" as="offset" />
          </mxGeometry>
        </mxCell>
        <mxCell id="TQJaViDsqMAskRc4-mNs-32" value="" style="ellipse;whiteSpace=wrap;html=1;aspect=fixed;strokeWidth=3;fontSize=9;" parent="TQJaViDsqMAskRc4-mNs-75" vertex="1">
          <mxGeometry x="1287.5" y="220" width="35" height="35" as="geometry" />
        </mxCell>
        <mxCell id="TQJaViDsqMAskRc4-mNs-33" value="&lt;font style=&quot;font-size: 9px;&quot;&gt;Person wurde abgelehnt und ist somit nicht weiterhin als neuangemeldete Person in Hitobito&lt;/font&gt;" style="text;html=1;align=center;verticalAlign=middle;whiteSpace=wrap;rounded=0;fontSize=9;" parent="TQJaViDsqMAskRc4-mNs-75" vertex="1">
          <mxGeometry x="1225" y="270" width="160" height="30" as="geometry" />
        </mxCell>
        <mxCell id="TQJaViDsqMAskRc4-mNs-37" value="" style="rounded=0;html=1;jettySize=auto;orthogonalLoop=1;fontSize=9;endArrow=block;endFill=0;endSize=8;strokeWidth=1;shadow=0;labelBackgroundColor=none;edgeStyle=orthogonalEdgeStyle;entryX=0.25;entryY=1;entryDx=0;entryDy=0;" parent="TQJaViDsqMAskRc4-mNs-75" source="TQJaViDsqMAskRc4-mNs-29" target="TQJaViDsqMAskRc4-mNs-20" edge="1">
          <mxGeometry relative="1" as="geometry">
            <mxPoint x="628" y="57.5" as="sourcePoint" />
            <mxPoint x="748" y="-90" as="targetPoint" />
          </mxGeometry>
        </mxCell>
        <mxCell id="TQJaViDsqMAskRc4-mNs-38" value="&lt;font style=&quot;font-size: 9px;&quot;&gt;Ja&lt;/font&gt;" style="edgeLabel;html=1;align=center;verticalAlign=middle;resizable=0;points=[];fontSize=9;" parent="TQJaViDsqMAskRc4-mNs-37" vertex="1" connectable="0">
          <mxGeometry x="0.0619" y="-2" relative="1" as="geometry">
            <mxPoint x="-117" y="112" as="offset" />
          </mxGeometry>
        </mxCell>
        <mxCell id="b4T5uP7tchPNODKssLE_-33" value="Person kontrollieren" style="rounded=1;whiteSpace=wrap;html=1;fontSize=9;fillColor=#dae8fc;strokeColor=#6c8ebf;" parent="TQJaViDsqMAskRc4-mNs-75" vertex="1">
          <mxGeometry x="573" y="30" width="160" height="40" as="geometry" />
        </mxCell>
        <mxCell id="b4T5uP7tchPNODKssLE_-38" value="" style="rounded=0;html=1;jettySize=auto;orthogonalLoop=1;fontSize=9;endArrow=block;endFill=0;endSize=8;strokeWidth=1;shadow=0;labelBackgroundColor=none;edgeStyle=orthogonalEdgeStyle;" parent="TQJaViDsqMAskRc4-mNs-75" edge="1">
          <mxGeometry relative="1" as="geometry">
            <mxPoint x="653" y="70" as="sourcePoint" />
            <mxPoint x="652.85" y="100" as="targetPoint" />
          </mxGeometry>
        </mxCell>
        <mxCell id="MFehWvs3WyKKxc41Y9VR-24" value="" style="sketch=0;pointerEvents=1;shadow=0;dashed=0;html=1;strokeColor=none;fillColor=#505050;labelPosition=center;verticalLabelPosition=bottom;verticalAlign=top;outlineConnect=0;align=center;shape=mxgraph.office.users.user;" vertex="1" parent="TQJaViDsqMAskRc4-mNs-75">
          <mxGeometry x="576" y="33" width="15" height="15" as="geometry" />
        </mxCell>
        <mxCell id="MFehWvs3WyKKxc41Y9VR-25" value="" style="ellipse;whiteSpace=wrap;html=1;aspect=fixed;fontSize=9;fillColor=#000000;" vertex="1" parent="TQJaViDsqMAskRc4-mNs-75">
          <mxGeometry x="1293" y="225" width="24.5" height="24.5" as="geometry" />
        </mxCell>
        <mxCell id="TQJaViDsqMAskRc4-mNs-123" value="Mitgliederverwaltung Nationalverband" style="swimlane;horizontal=0;whiteSpace=wrap;html=1;fontSize=9;" parent="WIyWlLk6GJQsqaUBKTNV-1" vertex="1">
          <mxGeometry x="-210" y="1890" width="1560" height="100" as="geometry" />
        </mxCell>
        <mxCell id="TQJaViDsqMAskRc4-mNs-129" value="" style="ellipse;whiteSpace=wrap;html=1;aspect=fixed;fontSize=9;fillColor=#000000;" parent="TQJaViDsqMAskRc4-mNs-123" vertex="1">
          <mxGeometry x="380" y="30" width="40" height="40" as="geometry" />
        </mxCell>
        <mxCell id="TQJaViDsqMAskRc4-mNs-130" value="Duplikate zusammenfügen" style="rounded=1;whiteSpace=wrap;html=1;fontSize=9;fillColor=#dae8fc;strokeColor=#6c8ebf;" parent="TQJaViDsqMAskRc4-mNs-123" vertex="1">
          <mxGeometry x="470" y="30" width="160" height="40" as="geometry" />
        </mxCell>
        <mxCell id="TQJaViDsqMAskRc4-mNs-131" value="" style="rounded=0;html=1;jettySize=auto;orthogonalLoop=1;fontSize=9;endArrow=block;endFill=0;endSize=8;strokeWidth=1;shadow=0;labelBackgroundColor=none;edgeStyle=orthogonalEdgeStyle;exitX=1;exitY=0.5;exitDx=0;exitDy=0;" parent="TQJaViDsqMAskRc4-mNs-123" edge="1">
          <mxGeometry relative="1" as="geometry">
            <mxPoint x="420" y="49.710000000000036" as="sourcePoint" />
            <mxPoint x="470" y="50" as="targetPoint" />
            <Array as="points">
              <mxPoint x="440" y="50" />
              <mxPoint x="440" y="50" />
            </Array>
          </mxGeometry>
        </mxCell>
        <mxCell id="TQJaViDsqMAskRc4-mNs-134" value="" style="rounded=0;html=1;jettySize=auto;orthogonalLoop=1;fontSize=9;endArrow=block;endFill=0;endSize=8;strokeWidth=1;shadow=0;labelBackgroundColor=none;edgeStyle=orthogonalEdgeStyle;exitX=1;exitY=0.5;exitDx=0;exitDy=0;" parent="TQJaViDsqMAskRc4-mNs-123" edge="1">
          <mxGeometry relative="1" as="geometry">
            <mxPoint x="630" y="49.87000000000012" as="sourcePoint" />
            <mxPoint x="680" y="50.16000000000008" as="targetPoint" />
            <Array as="points">
              <mxPoint x="650" y="50.16000000000008" />
              <mxPoint x="650" y="50.16000000000008" />
            </Array>
          </mxGeometry>
        </mxCell>
        <mxCell id="TQJaViDsqMAskRc4-mNs-136" value="&lt;font style=&quot;font-size: 9px;&quot;&gt;Kein Duplikat Kriterium erfüllt&lt;br&gt;&lt;/font&gt;" style="text;html=1;align=center;verticalAlign=middle;whiteSpace=wrap;rounded=0;" parent="TQJaViDsqMAskRc4-mNs-123" vertex="1">
          <mxGeometry x="670" y="65" width="80" height="30" as="geometry" />
        </mxCell>
        <mxCell id="b4T5uP7tchPNODKssLE_-40" value="" style="group" parent="TQJaViDsqMAskRc4-mNs-123" vertex="1" connectable="0">
          <mxGeometry x="460" y="60" width="20" height="20" as="geometry" />
        </mxCell>
        <mxCell id="b4T5uP7tchPNODKssLE_-41" value="" style="ellipse;whiteSpace=wrap;html=1;aspect=fixed;fillColor=#FF9933;" parent="b4T5uP7tchPNODKssLE_-40" vertex="1">
          <mxGeometry width="20" height="20" as="geometry" />
        </mxCell>
        <mxCell id="b4T5uP7tchPNODKssLE_-42" value="&lt;font style=&quot;background-color: rgb(255, 153, 51); font-size: 6px;&quot;&gt;&lt;font style=&quot;font-size: 6px;&quot; color=&quot;#ffffff&quot;&gt;N&lt;/font&gt;&lt;font style=&quot;font-size: 6px;&quot; color=&quot;#ffffff&quot;&gt;MV1&lt;/font&gt;&lt;/font&gt;" style="text;html=1;align=center;verticalAlign=middle;whiteSpace=wrap;rounded=0;" parent="b4T5uP7tchPNODKssLE_-40" vertex="1">
          <mxGeometry x="3.125" y="2.125" width="13.75" height="13.75" as="geometry" />
        </mxCell>
        <mxCell id="MFehWvs3WyKKxc41Y9VR-27" value="" style="sketch=0;pointerEvents=1;shadow=0;dashed=0;html=1;strokeColor=none;fillColor=#505050;labelPosition=center;verticalLabelPosition=bottom;verticalAlign=top;outlineConnect=0;align=center;shape=mxgraph.office.users.user;" vertex="1" parent="TQJaViDsqMAskRc4-mNs-123">
          <mxGeometry x="472" y="32" width="15" height="15" as="geometry" />
        </mxCell>
        <mxCell id="MFehWvs3WyKKxc41Y9VR-28" value="" style="verticalLabelPosition=bottom;verticalAlign=top;html=1;shape=mxgraph.basic.tick;fillColor=#009900;" vertex="1" parent="TQJaViDsqMAskRc4-mNs-123">
          <mxGeometry x="712.5" y="35" width="25" height="25" as="geometry" />
        </mxCell>
        <mxCell id="MFehWvs3WyKKxc41Y9VR-29" value="" style="group" vertex="1" connectable="0" parent="TQJaViDsqMAskRc4-mNs-123">
          <mxGeometry x="682.5" y="40" width="20" height="20" as="geometry" />
        </mxCell>
        <mxCell id="MFehWvs3WyKKxc41Y9VR-30" value="" style="ellipse;whiteSpace=wrap;html=1;aspect=fixed;fillColor=#009900;" vertex="1" parent="MFehWvs3WyKKxc41Y9VR-29">
          <mxGeometry width="20" height="20" as="geometry" />
        </mxCell>
        <mxCell id="MFehWvs3WyKKxc41Y9VR-31" value="&lt;font style=&quot;background-color: rgb(0, 153, 0); font-size: 10px;&quot; color=&quot;#ffffff&quot;&gt;B3&lt;/font&gt;" style="text;html=1;align=center;verticalAlign=middle;whiteSpace=wrap;rounded=0;" vertex="1" parent="MFehWvs3WyKKxc41Y9VR-29">
          <mxGeometry x="3.125" y="2.125" width="13.75" height="13.75" as="geometry" />
        </mxCell>
        <mxCell id="TQJaViDsqMAskRc4-mNs-166" value="" style="rounded=0;html=1;jettySize=auto;orthogonalLoop=1;fontSize=9;endArrow=block;endFill=0;endSize=8;strokeWidth=1;shadow=0;labelBackgroundColor=none;edgeStyle=orthogonalEdgeStyle;" parent="WIyWlLk6GJQsqaUBKTNV-1" edge="1">
          <mxGeometry relative="1" as="geometry">
            <mxPoint x="311" y="804" as="sourcePoint" />
            <mxPoint x="450" y="1220" as="targetPoint" />
            <Array as="points">
              <mxPoint x="309" y="919" />
              <mxPoint x="255" y="919" />
            </Array>
          </mxGeometry>
        </mxCell>
        <mxCell id="b4T5uP7tchPNODKssLE_-35" value="" style="group" parent="WIyWlLk6GJQsqaUBKTNV-1" vertex="1" connectable="0">
          <mxGeometry x="353" y="1629" width="20" height="20" as="geometry" />
        </mxCell>
        <mxCell id="b4T5uP7tchPNODKssLE_-36" value="" style="ellipse;whiteSpace=wrap;html=1;aspect=fixed;fillColor=#99FF33;" parent="b4T5uP7tchPNODKssLE_-35" vertex="1">
          <mxGeometry width="20" height="20" as="geometry" />
        </mxCell>
        <mxCell id="b4T5uP7tchPNODKssLE_-37" value="&lt;font style=&quot;background-color: rgb(153, 255, 51); font-size: 7px;&quot; color=&quot;#ffffff&quot;&gt;MV1&lt;/font&gt;" style="text;html=1;align=center;verticalAlign=middle;whiteSpace=wrap;rounded=0;" parent="b4T5uP7tchPNODKssLE_-35" vertex="1">
          <mxGeometry x="3.125" y="3.125" width="13.75" height="13.75" as="geometry" />
        </mxCell>
        <mxCell id="TQJaViDsqMAskRc4-mNs-91" value="" style="rounded=0;html=1;jettySize=auto;orthogonalLoop=1;fontSize=9;endArrow=block;endFill=0;endSize=8;strokeWidth=1;shadow=0;labelBackgroundColor=none;edgeStyle=orthogonalEdgeStyle;entryX=0;entryY=0.5;entryDx=0;entryDy=0;exitX=0.5;exitY=0;exitDx=0;exitDy=0;" parent="WIyWlLk6GJQsqaUBKTNV-1" edge="1" target="TQJaViDsqMAskRc4-mNs-85">
          <mxGeometry relative="1" as="geometry">
            <mxPoint x="748" y="1379" as="sourcePoint" />
            <mxPoint x="749" y="1105" as="targetPoint" />
            <Array as="points">
              <mxPoint x="748" y="1350" />
              <mxPoint x="748" y="1110" />
            </Array>
          </mxGeometry>
        </mxCell>
        <mxCell id="MFehWvs3WyKKxc41Y9VR-45" value="JSON:API" style="edgeLabel;html=1;align=center;verticalAlign=middle;resizable=0;points=[];" vertex="1" connectable="0" parent="TQJaViDsqMAskRc4-mNs-91">
          <mxGeometry x="-0.1419" y="-1" relative="1" as="geometry">
            <mxPoint y="30" as="offset" />
          </mxGeometry>
        </mxCell>
        <mxCell id="MFehWvs3WyKKxc41Y9VR-3" value="" style="sketch=0;pointerEvents=1;shadow=0;dashed=0;html=1;strokeColor=none;fillColor=#505050;labelPosition=center;verticalLabelPosition=bottom;verticalAlign=top;outlineConnect=0;align=center;shape=mxgraph.office.users.user;" vertex="1" parent="WIyWlLk6GJQsqaUBKTNV-1">
          <mxGeometry x="105" y="765" width="15" height="15" as="geometry" />
        </mxCell>
        <mxCell id="MFehWvs3WyKKxc41Y9VR-12" value="" style="sketch=0;pointerEvents=1;shadow=0;dashed=0;html=1;strokeColor=none;fillColor=#505050;labelPosition=center;verticalLabelPosition=bottom;verticalAlign=top;outlineConnect=0;align=center;shape=mxgraph.office.concepts.settings;" vertex="1" parent="WIyWlLk6GJQsqaUBKTNV-1">
          <mxGeometry x="371" y="1225" width="15" height="15" as="geometry" />
        </mxCell>
        <mxCell id="TQJaViDsqMAskRc4-mNs-27" value="" style="rounded=0;html=1;jettySize=auto;orthogonalLoop=1;fontSize=9;endArrow=block;endFill=0;endSize=8;strokeWidth=1;shadow=0;labelBackgroundColor=none;edgeStyle=orthogonalEdgeStyle;exitX=0.5;exitY=1;exitDx=0;exitDy=0;entryX=0.5;entryY=0;entryDx=0;entryDy=0;" parent="WIyWlLk6GJQsqaUBKTNV-1" edge="1" target="b4T5uP7tchPNODKssLE_-33" source="TQJaViDsqMAskRc4-mNs-21">
          <mxGeometry relative="1" as="geometry">
            <mxPoint x="377.8" y="1430" as="sourcePoint" />
            <mxPoint x="378" y="1500" as="targetPoint" />
          </mxGeometry>
        </mxCell>
        <mxCell id="MFehWvs3WyKKxc41Y9VR-51" value="" style="ellipse;whiteSpace=wrap;html=1;aspect=fixed;fillColor=#009900;" vertex="1" parent="WIyWlLk6GJQsqaUBKTNV-1">
          <mxGeometry x="923" y="1329.94" width="10" height="10" as="geometry" />
        </mxCell>
        <mxCell id="MFehWvs3WyKKxc41Y9VR-52" value="&lt;font style=&quot;background-color: rgb(0, 153, 0); font-size: 4px;&quot; color=&quot;#ffffff&quot;&gt;B3&lt;/font&gt;" style="text;html=1;align=center;verticalAlign=middle;whiteSpace=wrap;rounded=0;" vertex="1" parent="WIyWlLk6GJQsqaUBKTNV-1">
          <mxGeometry x="921.125" y="1326.065" width="13.75" height="13.75" as="geometry" />
        </mxCell>
        <mxCell id="MFehWvs3WyKKxc41Y9VR-70" value="" style="rounded=0;html=1;jettySize=auto;orthogonalLoop=1;fontSize=9;endArrow=block;endFill=0;endSize=8;strokeWidth=1;shadow=0;labelBackgroundColor=none;edgeStyle=orthogonalEdgeStyle;exitX=0.5;exitY=0;exitDx=0;exitDy=0;entryX=0.5;entryY=1;entryDx=0;entryDy=0;" edge="1" parent="WIyWlLk6GJQsqaUBKTNV-1" source="MFehWvs3WyKKxc41Y9VR-53" target="TQJaViDsqMAskRc4-mNs-86">
          <mxGeometry relative="1" as="geometry">
            <mxPoint x="1098" y="1083.52" as="sourcePoint" />
            <mxPoint x="1138" y="1083.52" as="targetPoint" />
            <Array as="points">
              <mxPoint x="1098" y="1050" />
              <mxPoint x="1025" y="1050" />
            </Array>
          </mxGeometry>
        </mxCell>
        <mxCell id="MFehWvs3WyKKxc41Y9VR-83" value="" style="shape=image;verticalLabelPosition=bottom;labelBackgroundColor=default;verticalAlign=top;aspect=fixed;imageAspect=0;image=data:image/png,iVBORw0KGgoAAAANSUhEUgAAAfsAAAJYCAYAAABl608PAAAABmJLR0QA/wD/AP+gvaeTAAAAB3RJTUUH2AMHCRcSESW42gAAIABJREFUeJzsnXeYHVX5+D+bTUISQhJKqCF0kBKqSJUgShOlIypSpCmIyk9QUak2FBXEDqKggAURRHoNiiIgNfQiHQIESCA92ez+/nh3vjt35pwz58ycuffu7vt5nveB7D3lnbl35rS3gKIoiqIoiqIoiqIoiqIoiqIoiqIoiqIoiqIoiqIoiqIoiqIoiqIoiqIoiqIoiqIoiqIoiqIMEDparYCiKP2GDmAiMAEY2fu3HmAa8CSwuEV6KYqiKIpSkqHAB4GfAQ8Cc5HB3SQzgW8B41qiqaIoiqIoQQwDvgi8jn1wt8kLwNbNV1lRFEVRFF/eA9xH+CCfloXAoc1WXFEUO3pmryitoQPYFpgErIcMkO8ADwM3AQtaoNP2wN+BpSO01QMcC/wqQluKoiiK0q/oQAbBp7CvjF8D9mmyXh/BfSZfRrqAnZp5EYqiKIrSasYDt+I3UHYDn2+SXnsCizz1KnOGP7RJ16EoiqIoLWU88AhhA2U3cGDNek0CZgXqFSofrPkaFEVRFKXlDAFuo9xAOQcxmquD8cCzJfUKkc/WpL+iKIqitA3HUW2wvBOZMMSkA7ilpD5vAT8ADgaORozw3nKU15W9oiiKMqAZAbxC9dXxwZH1OqqkHucDYw3tLQF8HLgZiaSXlL8W9fpRFEVRBjifIs5W+LPEM3RbHng7sP9u4HOe7a8A7AFMJv6OhKIoiqK0HVcQ7+w7ljvepSX6PilS34qiKIoyoOhEDOxiDfZXRtBp2xL9XhShX0VRFEUZkGxA+MD6LrJlbvpsFtW38kON8l4AlqrYp6IoiqIMWA4ibGCdBayP23p/tQr6TA7UpwfYtUJ/iqIoijLgOYmwgfXLqbo/tZRZt4I+/wjU55oKfSmKoijKoODHhA2uq6bqDiM/OC+g/Jb61oG6LAY2LtmXoiiKogwaQqze5xvqLwPc0Pv5XODkCrr8OUCXnt7yiqIoiqIUcBX+g+vzjnaWqKjHRMIT3WxdsU9FUdoIDXihKPXRGVB2luOzqrntjyPMiv+uXlEUZYCgg72i1EfI8zWmJh2GAocE1vlJHYooitI6dLBXlProDig7oiYddkHC1/ryDnGC9yiK0kboYK8o9bEwoOxY6kkYE7qq/wtmY0FFURRFUQxcQphR3MqR+x+DWPGH6LBDZB0URWkDdGWvKPXxdmD5iZH7/wgwMqD8NOBfkXVQFKUN0MFeUerjrcDyq0fuf4/A8tcQZmegKEo/QQd7RamP0MF+/Yh9DyN8sL8qYv+KorQROtgrSn28Elh+UsS+t0eM/nyZDdwasX9FUdoIHewVpT6eDyy/ScS+dw8sfwdqha8oAxYd7BWlPp4PLL8G8XLHfyCw/G2R+lUURVGUQcdMwlzfdozQ5xigK7DfzSL0qyhKm6Ire0WplycCy28boc/tCIvL/xbwUIR+FUVpU3SwV5R6eSyw/HYR+pwcWP5O1OVOUQY0OtgrSr2EDvZbUz1s7vsDy99dsT9FUdocHewVpV4eCSy/DLBhhf46gU0D69xToT9FURRFGfSMJ8xQrgf4fIX+JgX21Q0sXaE/RVH6AbqyV5R6mQ48E1hn5wr9vTew/HPAjAr9KYrSD9DBXlHq57+B5XdEwt2WYYvA8qE2BYqi9EN0sFeU+gk1gFsKMdQrQ+jK/tGS/SiK0o/QwV5R6ueuEnXKbOUPATYKrKMre0VRFEWJwAhgAWGGc/eV6GfNwD56gK1KXpOiKIqiKBnuJnwgnhjYx54l+hhf4ZoURekn6Da+ojSHMr7sewWW3yCw/BzEW6CdGQ18Bbl/bwOvIbse5xMePEhRFEVRauUgwlfdNwX2cWlg+6EBf5rNZMQ10HUNn2uZdoqiKIqSYSXCB/uFwNiAPh4IbP+aitdUJ8cg1190DTOBkS3SUVEURVFyPEL4gH+kZ9tDgHmBbV8Q4Zrq4FTCriPU3VBRBh16Zq8ozePWEnWO8Cy3KmL1H8LrgeXrpgP4IXBGYL3la9BFUQYUOtgrSvMoM9hvjZ/v/Lol2m4n47whwC+AE0rUnRdZF0UZcOhgryj+fBU5R56PBKP5KzI4bY1feNt/AItL9Ouzul+nRLvtsrLvBC4EPluy/rsRdVEURVEGMWviNhibCZxHcZjbOx1t2ORNio3Qzi7R7q4e1103HYjtQKjuaRnTdK0VRVGUAcnp+A8+DwC7Wdr5dkA7aTmqQL+rS7S5ne/F18hPqDbQv9R8lRVFUZSBypWED0Q3Autn2plcop0eJGFNh0O/J0q0OSn8NkTl+/jp+TLwXWCa4bNbmq61oiiKMmB5iHKD9Ls0RsJbAphbsi3btvtQ/HzSs7J6yXsRg9MsOqXlFcReYXhvnRsNZX7eVK0VRVGUAc1Uym81dyNBYhJMg5aP3GDRbe2S7S1X9mZU5HMFes1FjjtGZ+pdYyirEfQURVGUaDxH+cG+B+gCdult6ysl2+jGHP/+wyXbC4nOF4udkXth0+l27AmATIP9TvWqqyiKogwmHqbaYN8DzAAmAJtWaOPXBt0+X7KtZg/2ayD3wKbPtbi9DkyD/bI16qsoiqIMMm6n+mDfg2zhdyIBbcrUX4BEy0vz05JtNXOw78TtdvgQMCpVfkvgemBc6m/Zwf7l2rVWFEVRBhVXEGew70Hc6P5UoX7WKO36ku00c7A/2aHH2/RNYMbTmL0v7YGQvc5rm6G4oiiKMng4n3iD/QzglAr15wErp3R7tmQ7q0S6N0Wsg0QdtOnx6d5yGwCvpv4+I9POHZl6Z9atuKIoijK4OIl4g30P1W0AzunVawncBm8uWTve7XFiOmtP5EZk9T4JeCPz2XOZdrIpfA9sgu6KoijKIOJA4g72VWUOku1t8wptNCOozk6O/mchRnvjMXs7/DfT1pOZz7MBixRFsTC01QooSj/hf61WIMMo4FvAfyq00Qw/e1e62m8ALyLxA1Y3fJ41wBuf+v95wFOVNFMURVGUDGMRP/dWr+jT0gXcVaH+QVHvUJ4POfr+N5J181uOMuem2hqR+Sy76lcUxYGmuFUUP95BDOHaiU5gqwr16zbQ+4rl74uAIxHdv+aon05yk03h+1AFvRRl0KGDvaL4c3+rFYhM1l8/JhsgK3sT5yAD+cXIhMVGerDfIvPZveVVU5TBhw72iuLPQBtgTKF3Y3Ec5ix9ryBb9+cAaxW0kd5J2T7zmW7jK4qiKLWwPa0/p48p0+Lenv9jHGJpb+rzYGBfD90W0JftbgjwWuqzeanPFEVRFCUqncBMWj9Ix5Rlot4h4UuWvp5EdhPe8tDr7lR7Wzs+UxTFA93GVxR/FgO3tlqJyMTeyh9CYzrfNIuQ++czwbgn9f9Zr4F7UBQlCB3sFSWMq1utQGS2i9zeHtgj820IrOjZTjKgDwc+nvlsoNlOKIqiKG3GaOBdWr/9Hktujnt7uCGSXuv1treX4bN1I+usKIqiKDl+TesH6RmIxfsPKrYzj8bUslXYgDiBh55PtZnNNvhCJF0VRVEUxcm6uLO41S3dwM4pff5Ysb3PRLovv4p0fUnkvJWQc/70Z+dH0lVRFEVRCvkOrRvsz8rosiIwu0J7r+N/lm7D5W4XKrv0tnmq4bP9KuqpKIqiKN6MQhKxNHugfxHztvt3K7b7KJJFrywnRrq+WUja3qFIIpz0Z13IpEJRFEVRmsbaNN/v/pMWXZaOoMuTwEYl7sNQ5Cw9xvVd1tvmfobP/lVCN0VRFEWpzE5ItLdmDPT/xhyCNuGUCH3MIjwb3t4RrzHpe4rhs1MC9VIURVGUaOyNWLXXOdAvBt5boMdSwJuR+vsj/vnu/xGpz3eQI4rNLJ9v6qmPoiiKotTCZMQdrq7B/teeenwjYp+vA58o6O+jEfv7VW+bJu+CRz2vX1EURVFqZX3gAeIP9DOA8Z46jAXejtz/FGS1nWUUcs4fq5+tgYnk3e16gJM9r19RFEVRamc4cDwwnXiD4BcCdTgtYt+JLAauAnZA7AZGAH+P2P4jvbqfbfncFoJXURRFUVrGOMQdbi7VBsF7EGv30L7rPFKY1isx2zwRWAGYY/hMs9wpiqIobc2qwF8oNwDOpnwc+K+W7LMVsgDx8T/X8vkXS94DRVEURWkqZULJHl2hvxHE832vW/4ITMDs0bAAWfEriqIoStsyFPgs4Zny/hqh70MC+2yV7Aj82fLZ7yLcB0VRFEWphSFIHvYnCB/8bidOJroO4D8l+m+mvAx8zvG5yQtAURRFUVpKB7APMJVyg99diPtcLGL6wTdbpkS8D4qiKIoShcnAfZQf3K4Floms0zYV9Gm17BX5XiiKoihKaUYBFyB55ssMak8DRyJb/7GJES+/FfJ0TfdDURRFUYIZBdyJ/yD2DpK97VfAMcB7atRtCPBsgG7tJAfXcD8URVEUpRRnYR+wXgMuBb4M7A6s1mTd9nTo1s7yX9zZ/RRFURSlqdis7Y+m9QPWf2n9wF1GdqjjZiiKoihKWV4mP1g93lKNhANo/aBdRi6v42YoiqIoShVuIz9gXdNSjcSOoL9Ez0vLu0gkPUVRIqPWropSjZsNf1u16Vo0chKSKra/cQqyU6IoiqIobcXG5FeoC5HY9K1gDcwx5ttd7gU6a7gfiqIoihIFU+76bVukS8wc882SLmDzOm6GoiiKosRgODCL/AB2WAt0OcKgR3+Qc+u4GYqiKIoSi6MwD2A7N1mPtTFPOtpdXgbG1HA/FEVRFCUK6wBvkR/A7qe5PvZDkQQ6rR64y8jHargfiqIoihKFDwPTyA9eM4FJTdbFFcWvneX6Om6GoiiKolRlReBCzIPXAmCnJuvzGYsu7S7zgLVquB+KoiiKUpoNkMx28zEPXnOR+PfNYiRwBuUz7bVazoh/SxRFURQlnHHA4UjgHNegOg3Yrkk6LY0k1nnVoU+7y1vA2Ng3RlFKoLEdFGWQshTwceAq7Kv4tNwErNwEvdYBzkN2EFo9WFeVr0e+N4pShknAya1WQlGU5rEC4kJ3Lf7R514EPtUE3YYD30LsAXz0mgk8DzyFRKW7H/gf7eOWNxdYLuYNUpQSbIk8wyu0WhFFUeplHWQ7/F/AYvwHq6lI+trhTdBxGeD2An26gd8CH8I9iHYggX66CtqrW35f+m4oShwmIZPib7VaEUVR4tMBvBf4DvAIYQPU48CPgC2aqO86yOq8SLdvB7b7PY8265Q9AvVVlJisDbyEhLjWYE6KMoDYChmofVO+zgL+CZwDHIQklmk2H8QcrMckoa5+Y/CzRahDZgFLBOqrKLEYDzyN/Ba/1GJdFEWJwFDEiv4h3IPP64il/Y+AgxH3ulZb5x6JZM3zHUA/WaKPewLajylTSuiqKDEYixzB9SA2LTrpVJR+zobAw5gHm2eQbeyP0n6GOZ3ADwgfQP8W2M/KwNsl+okh5wTqqigxGAX8g77f4WEt1UZRlMrsgN3q/H7Era4dGU351LTdwGTPPo5HdjNaMdD3AMeG3hhFqUgn4kab/AYfpvW7d4qiVGAzYDbmQaad86VvhH0nwlemAx8wtD0B2Au4FPu9iSHdwDXAXwvK7VfhPilKKB3AJTT+BvdsqUaKolRiDOJLbhtkLmudalaGAyfh79fvI28g9+EJmrdV/xDi5QCyYprpKDu5+m1TFG/OofH396/WqqMoSlV+gXtA2qd1qjUwAdgf8TX3tbZvV+lGDBuzhk5POOpsX/rOKUoYJ6G/P0UZUGxCcaCYbZukSyewSm9/+yNn5L9EjINaZRQXIn9AMtFtB9zlKPcSEsTHxB2OevqyVZrBMeR/e39vqUZtwNBWK6AoFTmVYoOby5Eocw8CryBhMl9DIueZGINklVsSSYYzErHoXQaJUrdsSpbrlRWQ9Lf99Zm6GQn/240cBewA/BnYO1PuciSt7tuWdt6oS0FF8WA/4KeZv3Wj+RgUpV+zPmGhblXMMg9z8KBhwJ96yzwN7Gb/Kv6PXzv60ZW9Uic7Yc4hcVELdVIGMEsAywNr9sro1qozoDmb1g+UA0F+XnCfVweGFJRJ+LGjnw97tqEooWyM2Th0PrBaC/VSBggbAp8GfoYkLHmRfN7zz7dKuQHOMMTlrNUDZX+XRcDEwHvv4tuOvvaK2I+iJKyNHB+ZfnMayKmX/nq+2Ereh2Q9+zCwkkf5NetVZ9CyI5oqNQZXIZPUWMx2fLZqxH4UBSTe/fW9/83yLpL4SlGCeA+NIRd95cZWKDsI+CWtXxUPBDEF46nCsY6+9FlQYjIWiYxp+719o3WqKf2VT1A++Mn0Fug7GHAF0Skj3ciL46dI7Oztke3BdYBdEfuAOqPQtUIeRaKMxeSQgj5/AIyI3Kcy+BgO3Ir9d/Yq4kGjKN4cSrEfd5HEPBNVxMUtxmA3B7gaOZZZ2aPfTegf/vK+cpTHNYeyn0e/05Gz/VVq6F8Z+HTS5yVik6Nbpp3SL3kvZleOUDmo2YoPcPal2vdxB5LStszM/6iKfbeLTEPiB8RmtwAdFgO3IX77E2rQRRmYFEXMfBy1R1MCGAE8S5wX66VN1n2g8yPCv4OZwLmIB0UVhgNvlui/3eTIivfBxrYVdJqKWE/vidngSlG+RvHvqF3CYyv9hG8Q78X6Ov5+ykox/8H/3s8HvotEv4vFhQH9t6PcS31pPidF1PNJJCDK0Uh2wNj2BUr/whQGNyt3or8TJYAVELeNmC/YrZt6BQOX4fgfrTwKbFCDDod69h9DZiHGiP8DnsOdVc5H3gXWi39L/o+Jka7bJG8hqXRPBnZGrLGVwcGe+NlOvb9VCir9k28R/0WlwR3isBF+93sxfkZ3ZYi5ek3Ls4jV/97IccMYS/9LAVshbm6XIolpfNqfA+wS4wY4GOepSwxZDDyGrP6PATZDz2oHIjsBcyn+PQz6ZDdKGCOpJzLbK+hWfgz2x+9+dyGDYh0MRyLPxfpt3IK80KpsP05EXER/AvwbcT1K2p8HTAE2r9C+L53Euy9lZA7wTySYyh7o6r+/sxl+u1ldVLfHUQYZB1Pfi2inJl7HQOVk/O/3GTXq8XiAHjZ5Br/kMmVZgvomPC7m0NoBPy2LEcO/nyOTIY3i1750Alv0ynZITvp38Puef9MCfZV+zjXU9+L5fROvY6Dye/zvdxf2vOtV+VuAHia5iIGbJGka9Q/iXUiMhAcI32V5FhkcDsIv5LXSHL5Cud/CXHQSpwSyJH5nQ2VlAfpyqcqNhN3zOcj5dmy+F6hHIrOQKHMDmaeof7DvQZKf7II8t+8HTgT+gsT6D2nnMWTlvx9xvTYUfzZEPGfK/A6+1wJ9lX7OltT/gjq5aVczMPkv5QaFdSPrsXcJPR5GciwMdO6lOYN9D7JN/03yroSrI5Oq3wJPB7TXhbhvnYK8D9TOpn6GAvdQ7vt/C1i6+Sor/Z0RFIdhrCoas7kaD1Duvr8GbBpRj7GE5Uu4gMHzvU+heYN9IrfgzoK4CrJtfx5h9hZvAJf01tVAP/UQYoeTlRNboK8ygDiBuNbWWflm8y5lwFHlrHwGkuAmFgch2/KuPp8Gdo/YZ3/g7zR/sO9B4hD4TuhWAD4G/Ax4xLP9LiTz5ZfQ1NWx2JjyIcnfQZMqKRHYiXpc8HqQFeEazbuUAcW+SIa6svd+PnAcjf7Yw5GX/3pIPoQPISE3D0ait30C2AHzee7ySFKXdGjlhcDtwKcZnH7fl9Cawb4HsdH4RAmdJyAhhC/HP3DRQ8jEvRkujQOR4ZTfqUtku6ZrrQxI1qY+Y6Mrm3gdA4kO4uSy70Yy2IW6iV3m0G08MokbFula+ytFiUqaId+ifNyCocjk7rtI2mOfyeVTvX2qr7c/Z1D9e76m6VorA5ZlCYvFHiIfbuJ19Hc2Bc4kXnKisvJC3Rc6APgprR/sexA7iRg5AFZEdmkux8/v+2Ekt8ZaEfoeqGxBnKPSBUjURkWJwhgkLWrsl9FTSOATxcwGyOz/Sfzu53yqbfEXSTdwYK1XPDD4Pq0f6BO5iripfJdA4rRfjN/AfydyFKSR/PpYAn87iSKpM3DWgEKzA/mzJHAzsE3kdr+G+ommmQh8Ejl33big7CLEYOpaxAI8iZR2jKX8YuSc9Skknvy7vW3MQFYHyfOwFLKVO5Y+16s5iOHZ7YHXMxi5GvhIq5VI8S9gL+TYJiZLIBEQDwA+ij2XAYidzhVIMKXbkInjYOV7wFcjtPMgEkNjYYS2FKWBsciAEnPlMRvxCR7MLA0chQzci3Hfr5nAn5HJgGn77nOWetORiYRSL6tT3rq6TnkAt2teVUYgsRcupThj5gvIinRCjfq0K1vjl72uSBYAmzRZd2WQMQH/LGO+cn1Tr6A96ERWW1dSHDnrbSS86a6IBa+Lwyxt/CL2BSg5OoDraP3AbpMHaY6v/AhktX8t7slrF+JKuiuDI3jPSOLklOgBTm2y7sogZTPiJ/v4ZFOvoHWshWQkewX3/XgXceH6KGF2DQdY2jsqjvqKgzNp/YBeJFNpbnCciUg0vucK9Pof8GXq3X1oNT8iznd4L4PTpVVpEQcQ1xjsdcTyfyCyBGLYdjPuezYfsXjel/JGVXtY2t6rvPqKB1+l9QO5rzyCxEdoJkOQ+A1/wL2TNQfZhRpoQXu2p/iIzkfmAxs1WXdF4SzivoQubK76tbMS4nv8Gu7rvhM5a4+RhOQDlj40J0F99KeBPpGptM5CfhkksJPL/qcLienw3hbpGJMlkXTOMb63rzVZd0UB5Pz4buK9gLqBDzb1Cupha+CPiJWs7VpfQaxyYyeGWcPR523Imf7qkftsBtsgoV0vQ4K9TGqtOv/HSbR+4C4rt1JsA1I32yG7WS6jtduQmBz91XsqVtyFu4kTN0FRSrEG/uE1feRp4voFN4uhwKdwZ6VbjES82oP6HtpOJBNW0X1+EfgrcDqwPxIqtx1fJJthNnrrRraE126dapxi0Ku/ySW0xyC6JnAObkv+qcCh9K8IjTsR57hzHrB+k3VXlBwfI+4L6Mzmql+JUcDngeexX88MxDinWRHFfuLQxSVzEeOfC5Htwo8jfrwrNEnvNCsgHghF55wLkMxfzR6wYoQ6bRdpp+dtDJKI63ns+j6H7FC1u5HaUhQbJvqKZrdT2oYY8doTWUT7+5Aug7i/uJIFTUWihy3ZZN3GAo869CojsxHDrr8D5wL/DzEk3A7Z3Ym1G7My4q0wI1C/m2iegecxgbq1u3QjiY/aiaGIEbArVPcTyEKjXd32fkOc7+dO2nPXTRmkjCRuwJ17aM8f+ArIKn02dt1vRXyHW7k9OgYZlF16xpYZwGNINL9LgLMR47VjgEOA/RCL7K2QM/f1kBjhu/WWuxq3nUORPA6sFuPmOZhEewbNifHdtWsmyu0RTxab7g/SXhELQVxmY3wvc4F1mqy7ohSyPvLjjPUC+mJz1XcyHvgh9vgCifXwFq1S0MIYZJD9OXAX8eMjtJu8Qr3n+Je2wTXWJffQeoM9F9sjE2mb/nfSHga+ywHTiPOdHN9k3RXFmy8Q7+Uzi9avNpZDrOZnYdZxLuIX3F8yfA1BdN0TWU1fSesHmdjyNPWFYq0r5XO7yLnxblVt7IDsHtmu4RbEI6ZVXG7RK1T+SfseUSgKHYirTKyXzy20Zjt8NOIjbxvkZwM/oPnBSWJzIa0fYOqQ/1LPMZBPprdWSKyjhW4kxn1/YEckn4TtOv6AxLpoJgdb9AmV2fSfBYQyiFmd4mQYIfKZJuo+FDgWiehn0mUWksK0mSFH62J3Wj9I1SXdxHdVGtEG12WSK4D3EyfBSg/y248R4KlZ7IQ9Bfcs4Bs0x513VcINS21yXBP0VZQoHEm8l9lMmpMhax/s27TvIlbiAyWk71iqJTT6JmIL8O8KbdQlLyCxDGKzWhtcm0k269UvlvV3D5KKtr+xD3KEY7qeZ6jX46ADtxFhiNxGe8Q+UBRvriXey+e6GvXcEruLz1wkYluMlc4o5LxxmwhtVeVCyn8XD9H3MhpH+2xt172Ke28bXGNWHk/ptwrxDDC7gZ2r3rAWMBzx07etsG8FNqih389b+ivzG261nZKiBLMyftHcfOWwyPotB1yAOXDLIuD83muowjpIXPo76DtXnYU5F32zqLp9nz3T/UvF9qrKAsTbYMUI98bFTi2+TpP8MKPjtyO2/T+aHyMiFsshsT9sz/bPgaUj9bUu8SZZzTyyVJSofJJ4L5+3ifNCH4qciZlm/93IGWiV896lgS8B9xnaT+TrFdqvwmjc0cmK5N/ktxi/XqG9KtKN5CBoVsjcWL7TMSWbGnoMdnuTMpKdTMRiacRi/hNI4KmjgYOQ+BRrEs8KfTPslvvTkMBQVehEXFpj3OtWGSMrSjRirvyuqKjL9kgQDlPb91DNZWcD4Ff4zfJfpTU+zVVyandjvj9HVWizrNwFbB7hfoQQc+IaS0z34HMR2++izyagKpMQ49aHKQ6DPAcZ/L4BbBihb9d5/mWU96o52dJmqOj2vTIgWI7iNK8h8vESOoxF/OFNSSneRFYWZVcTK+EXxz0rB5fsryyb42exbTt6+bOl3UM82owpZ9KauOifLalvnbKdQc9hwJOGsm8jA21oH7eUvWG9bEd147VHkEiMS1TQYwRyzGGK0vgm+V2SIja3tFVGPlv+shSlvdiHeC+46YS5vu0FvGxoZzFyLr9cyWvqQF5AZd0Mq75EQ+jEfayQyN+Qc9o3M3+fj2yvmjjOo91Y0sqkLSc69GqVbG/R1fS8/RmZ9JYJa/3hEvdrDDIJjpH1LZGXEdfYKpO9jbGn5v47YuhYxCgkNHSMa9Lte2XA8UfiPfR/8ehvRWSLzlT/v8D7KlzLssANFa9hMeKb2wyO9dDnDvqOFrIrw1MdbZ/p0XYMuY/WRhQ73aBTq+VjDn2vyZS9tPfvEwh3u3yYsCBF6yKeAnVd98NIUJ2yDEHCcZuCZs0ADsc9AP8q0nXo9r0yIFmOuMZDn7L00wEcgWxbZuvfqOC7AAAgAElEQVTMRh7yKoPGJMRSuYruLyMv42a44Y0D3ijQ5xkad0vSL8G5uLdPryhoO5bsVfYGROKHNOc6Q+S7Dn23z5S9KfXZFkiO9JC+Dve8T5tQ/HuLJX+g/M4cSACw6yxtX495lb9vRP2PqaC7orQ1+xPvQZlBfmW8Lnbr29uwb0X7sgXmSYRLuoB/IcY8O1Pt5VSGokFqDrBpqvzShjK2oEYdxEv64ZJ3qXZeG4NYq7mYcoND30MzZR/JfH54YF+vINvXLlaneQN9Iq9RPWDOJzEvRN5G7mPCROK5E+v2vTLgibmdfxuyvTgMsdw1rVbeQfxXqz5Yk5Bofr66vQmcht8ZYF2sjZy3u/Q8LFNnZ0MZ28t044K2Y8lVJa8/Ju2Y8W469l2qczNlFyLPSZoLA/v7muP+xE5zHSrnUc3DZVngr5a2r0K22++PpKtu3yuDgtjb+X/A/pK5njjn4svjf865CEmSs1SEfqtSlIHrPEOdMwzlbNvFXy5oP5acVurq4/J3WjeQuWRbi77/MpTdOFNmNGFHUtOwRyis4ta5CInMeDPym72LsIl1Iv/svaYqHIkc92XbDvW2cYlu3yuDhpjb+SaZhTy0MQjJ5Pc6EhK3HdgMtyX0k5i3xqcYyl5v6eMmR/sxZc8yNyAyrlzqrZTvG3TtwOwl8gVD2W0IS6JztKGNzQLbSOR2JLCObQKxJTJxDjk6O8rSVgjrAfeWuB4f0e17ZdBRV5jVu4kbVc03SMmriM1Au1C0Et3FUGdpzL7DLxvKLk+81KpFsl7JexCTWJHSYks6Pn7CREvZGy3XFuJR8TT5o4PrA3V+kbBz9rGIN0SRUWEX8Z79YchEKuaKXrfvlUHJ8siZY6wHqQvJQR8z4MrS+K0qFiCJUtqF9+Fe1d9kqecKkJNNBnSSo2yIvIR7sFlIa4LoZCkTkKZZkv3t7WEpNx/z8dIIwlzl9k/VDU0QdC/lw15vgLjN2tr+Zcl2XXyQahki03JsDfopSr/g48R5iJ7DHE2sKt/07P+UGvqugs2dKJHjLfWuctRJB3AZAjxb0IePvIGsxDqARy1lnix/G6LyAnEH6B7i7YxcmNH1BEdZ2/HWZwL6uytV78KAev+jegKa4cAlhrZnEBZsKwSX8Z6vTEG375VBTlU/7UuQaF2xGYqfW9l06kurWgaflZYpRsFKuMN/puvs5tFHkcwBtkq1+QVLOdvWc7OJmcGxBzEC2wR4IkJbc2l06fypo+y9luv7RmCfk5Hnbq5n+YU0unhWoYN8hj+TPUJsvkC5ELnzkAyYijKoKbudP484xjg2dvHU4+wadSjDnynW+fOGeqcW1PlGquzfPPookiMy/a9vKXd+iXtQB6FBaIokiQK5NnF8009M6Vpkr7Gl4fp+Edjfn5BdAt/ydWTQOxY5vnuY5h31vJ/w2BIul0VFGVSEbuc/RbxVgo3veeqyc816hLAa4sZUpHM2/O1wJGiKq04y6G5M9XjnFxp038pS9uRSdyIuncQb5BNJ5y7fnupb+mm3uCJ/d1NSI9cRjkkWIO5yPmWnU8/uG4j9gC1HQF2sjNm10SQPko9voCiDGt/t/Muo78WR5hZPfcoaG9XBT/DT+SeZerYt9LQkRn1VvSimYo7E9n1L+WZnBzQxlviD/R6ZPr4eoc0TetsqSs7UTd7nvi5Xsx5ky32gMQz4Ge7r7qK9DHcVpS1YEfe56ELshmV18JRDl7S0C+MwJ/YwyWWpemPw20Z+DnlxVXFFehezG91I7Ec5k8vfkmisQfwBMGs30Yk9G5uvvIHcX5+yV2b6j5mGOiuTim5wP+Zg7HYL7XbEpyhtwwWYH5oXga2brItvBK+QbGB18iX8X763puplDZ1cUtUi/VCL7sc76qxe7nZEZUviD4C/MvTzHqrbBvh+R93Arr39DiduKtq0vOtzg/s5m2L2TvkP7RFJU1Hair0xR+H6J2LE12x8B/uJLdAtSwdhVt1JUpQtaTwrvjKgjVCx+fYvgd1eoIv2OO/8CPHvxyuY49r7untm5U2PMt00Gle+hBxRrFbD9SUy1fMetwsrAl+lOOlPlmUwp72+k+Ynv1KUtuVgzC4tVZNbVOFlgz4m+WiL9EuzI2Ev4BcR3+F03vpLkF2Kpwvq/gO3H7dJ5mHPOPjFAj3bgRAf9BAxpTgeRfgOyiJkdVlkJX4ZMrlKr0L/Qj4dbky5zvMet5oOJBTwDETvh5GdlhA6Mbs9PgWsFU1TRemnnEB+C3Eh8NlWKoX/+ek5rVIwxR8IewHPRVb36cEiCTPqGnx7kDj1wyi23k/LmRa9l8a9Ir2j/C2JyjnUMxD+ztLfAYHtXNpb71sF5RKr9SMyf6/TOO8W961tCzZAfmtZ3WdhP3pycRz5Xco3aIwroSiDhg7MmbJeR3xZW82F+L3MplG/j68rl/t4qrttXZhqb1nsaXFfp+9aTdnxbHVs3hNnF9T9o+O6m8mN1DMQLkCCGZnwde3qoe95cRkSprfThxKW7a6KPOi4r61mBHJsUvT8XEj4tv7u5L0i5iDHlYoyaFgCCcqRfajuJ05K2hj4JsDpAT5dkw7LANcghos2jrPotBg5BvHRf8NMm7bAPGkr/on4GXWdgJm1KH7JZl0EW8FI/KPElZFvWfr9kGf9x2kMw2qLcf/FTPuf92j7TcSQsMr1zcBsm9BqPkDjMVaRlNnWn0T+SKYLc1ArRRlwLIN5y+xKYMmAdoYjFugHUc/LZF38XwQvEaa7DxsBz/S23409cMidFp2uQFZwRdvtUwxt7mopm31J2fpOZDr2+2Ka7GXldEvdZhIrf4PrHtnCLRfd3x5kdyyNyfe7i3w8iNEUu2p+F5mYV3XLa6ft62WRlXoZ74N3kBV7CCtiPhL8IRorXxnArIXZf/0cwlzYtqPRkOx+xEgtNrbkLCa5JGK/B5J/ET9C3jJ9TewvrW17yxSdN5u2FYcgKXuLXtonF7Rti373XofeaWlGvHMXwwnLBldWbNnQ9vGou2+mzuGGMjZPiKIgTJv0lvtuxetLbApazcFUD03cRX6XpIiRmINRXYYcJSjKgGIb8oFTupBtaF86gdOwh4S9gri5z0Otzr9esb9hwI8d7WeDCtmSlzydKrOdo730GXwWk1Vx1oVod0fbrvNo39j6rYye1wFcbNErtphyxIP8Hl4vqJtdsZvCDh9mucbNHO0+nyq3OtX88LupZzLuy1rAzZTX3ySHB+rQgXnSdDvi/qgoA4L9yJ97ziLMbW0C5u3/rCxCBsxxEfReDv+odImcSbntua1x5+ruQSZL6RfDI5Zy6dj3Hdi38n/s0GdypqwpOMraDl1N8deTOr5R+EK3TGPRiT3AU12yl0UXkxFrIm8ayi+XKTMPd3hpW3yGczPlQgwGTfIS8gw3k2FIEpo6bC7KRsc7hryl/v3ACiXbU5S2IclMlf5xvwJsEdDGZIpXOFl5HZl9Vz0X+05gvz3A9fS5shWxHvAb/AfA7/bWW8tRJmtI9GtLuckOvTppPKt9zFDGFTM+G/s94VzP6+yhNWe9yyDfX+zBoUimWPSZ5KjzgKH80EyZvxjKpLFFUPxQppxP/oQieQT7bk9stqU4IVAV2a2CbgeQN059AglupCj9EpN71iOERZ37f/hlcrPJf6iWjGIc5vPrIpmLWMN/ADEKGoL4la+L7Gh8FbinRLvJeaHtiOEZwzXsbSi3kOLzwrQl9p2WMiaL+jcxR74bRlg643UL9IvN5jTPJc0ktpznD1jKX2UpPztVZr+CazYdxcwj/9tYkTghdZ9D7nNdjEN+t2VzONxMsWHkPOxGlb58kPyu4YuEW/wrSkvpxOyycyeycvJhKPBbQxtlZDGSorVs2MrQICd1yDwaXfxus5T7hUH/0eR95582lMvy0VT56y1lTGGFf2spu4fj+kzSrDCjQ5GjD1MUx2aKLe+5Ld3yzyzl07/7pQuufaKhXVswowcjXecC4BSqD5hZPkl4rvlE3kUiJXZQHEXyxkj6bkneYHA6milP6Scsgdny9DrCAlN82dBGVZmBHCuUCYJzfg36+Mr/EGOqhHHYB6ZDLfrfmil3s8c1j6HvCMYW4OZFgw4HWMqGRvprRhKRzak3glyImLblAXaxlDdFJkzbUfgEtBlK/pjNFvHwrAL9Q8/GX0DiWVT9ntdCPA7K3veb6dtC39SjvC12RBnegxhDptt/l9YaNCpKIUuSH1R6ENeb0IQmthdcDLmf8Ch9I/Hze44tF5B/GX7CUT6bpzwh6yZ3jed1P99b/lnMk6QkFkAiXZh3bzpxpzA2SZ0sR7Xt3rrEFEN9JOaohqcayh6Z+tzmcpcluzvzYUu5fQt0vwpJ3WuLwGiTdxDX1QMIO9MfjniklDXAS6/mE3yyQMZO2TuBvJvvHPqyEipKWzEW+Df5B+PHlDOSW4JwS/gQ6UZeMCEvl7HIRKEZL/1XsVto23YZ5mHftcgmO/mr5/WmV32HGcpkjaBsWc5MLmFFUgdDkLwLIbYDzZRPWPQ2eaKcVFDufs97kvbWWIzdk2WDAt3v7i23HWG5E7LyEuKDfjywikWX9yNGo2X7uJ28QVwH5lS1aXnFok9VlkHsi7LPs23ipSgtYTngPhp/qN3IrLsKf8X94C1EXngzCsq5ZBZwIv47D+MQy+m6XvZdiMW6y/fWdqZo2wYGmTylDR19Ap18OtP+k+SDH2UHe1toX1tMAJfEZmuaN1krK7bwuSaPimwwng0zn3chuROKSId0fcRRbhhuY9lnU2VXRAbUqvcja4OyLOK9UtZYsAsxHDYF8drBo77NHiUGS5J/tyxA4+krbcJK5LeguomTte5Qih++/Xt1uMajrEsexf+cbChiNBVzC7gbCQq0CW5WdrRxeUHd9PfkE/HPNDBmV57Zwd72vV/t0NsmsVgHCZATw5q8brHtuHzNUPaYTJnfG8qc4XF/0lEti34X2WOb7MCUHkSHIoGmquzQ7dLb1hDElbbKjszLiHeMjd94tPHxgvtTlVHkj0IXAh+ruV9FcbIq5jPbwyK1vzzFA+rFvWWTfNSzC8oXyR/w39p/H9XP8d9CVvIbePb5SUdbPyiom45Hb7LaT7O1pY+HaYz2lh3sJ1vaK+O+6AoG48MayEqsiutms8W2sj7QUDY92K9muc7pFLtYpr/DLxeUtXmBJLKaoc5KlJtsTUd2E7bCP+W0TW7CvcsxCrEdcLWxGNlZqJtR5CP+dSH2EIrSdFYl75PchQxGMTHZAaRlFo3JVtam+gA8C7G49bXan4xMEkxuaFlZhFhJnwvsjBgZheDyCsiu9LKckipbNNi7VjkHpsplz5JXNrS1kqMtlyxfoKONVRHju6qpf1shr1quaUtD2XRiol842iwKO5z24y8KFlOUwMi1ct4USULja8B3NWEBp2zyPMWeQC6j10TuttaOzyjyqZW7gEOaqIOiGAf6BciWemxOovghzE4whiJnn1mXolAJ2doHWYVs1qvPlxBr6ZOQ6GMHIFEDq2bHs4XI7aE4vGw6sYprsB+De+v1CfomQunBfqGlPZ+zUJNsZmrMwSpIcpdQa/B2ktmWa3uPoWxioLc67onNfwruW9r1MBtrP0tRYqWjC+qDhIY9FXNSrDqkG8lb7zIU9omaaLOnqIuRBr260C19pUnYBnqb5XhVNqL4IbS5kU1GLHurvixCtvbrZCzuVc6WBfXTPtiuwf6IVLnbLX0d0Vs2vSp82dLeIQ6dXbJnwfUkbI5sE/fHlbxJTDtKpuA3yWBvi+OfDne8vuP+Jdv4bzjKJBQZWn7Po400GyFuobYogTHlMsxHQ6vgtzCwpZmukyWQGCVpPRYiE3dFqY0J5M/om+Ee4jIK6kG2xm1bvsvin2XNJaFb+3Wws0GvtNjCrSYMQb6vHtyD/d97y9yH7ESY3JFeRM6C0y5WNm+AUwv0toktuAtIVMDDgH+WbLudxRSnIJvgpgex0VgP81n9P3rbmdP7b1t0Pugb7Kc4yiQcV6D7ZR5t2PgQxTYBVeUJ8n7yp3vUm0l4rJBYDCdvgLwAdctTamJ58i5fc+mzlq0Tn+QprhzTHciAE8MaO3RrPyZFAT98wss+3Fv2l5bPR9MXpCQZID5i6e8iGrfMbWFWXZnbil7MaZuGpZCjot9TbwyGVospd4Qp6dAj5F1ee5BgMWv01rus9293GdpMSAb78xxlEo4u0N3Xt9/FvjTuSviKj81MD/KbPRGZ/C6Bn/HoFRGuqwrDgWtp1GkesgBQlGgsQ97qegHNS0H6QYofxqLQoGOoFoQjLd2In3qztvbXR1yyiiYrRVbXIFHOehBDKxPpKGnrpf7+d4rvy62WNs/zqGuTh5Dwy/cxcLbpi8Q02HcE1E+Hc00i6i3GbDwJfZP4Ikt8cHuD9CATxRhhjpdB3AB9rvc/SCCfYUhWSF9bnbsxuyuaJIYrcVVGkU81PIfWZIdUBiBjkFVB+gfW7EAPw/CbtdvS5i5PPaFu30UM8era2p+IWCP7uo65AvEk/KC37A2WzxOr7pcyf9+A4peoLUHIpZ76q4j4ruxN8jyNk75VU5/ZovMlYYz3tXyepmiw7wGuxG/i6cPe2H3r38Ccxvr9mHM2VJE1qMYIxFD1SCTj5QmIndOEwHbGkl94vUH8EL7KIGMU+TO0Luqxui8i2Y50iSkL2MbkE03ElJcQI6OYjEOSjoTG/F7V0NZSyIThSuTF+bnesrbz9SSz2cWGz4pWQbZtfFP0NxW7VBnsDzXUTXa0fm74bESq7u7I4HkdYohnsl7/jKceTxDPoG0lGq3SuxEXPpfP+3jyrmtl5ckKui+FeDC44n/ci7jN+mYBHE/+SPUlwicOigJIJKxkyzeROvzofTmI4ofyLRofmCOoHmTHJVMo7wtuYigSArVslDCTxXV2kpTsEixAzivTpGPhH0GeNXCngbXlvP9ZyesZrGIa7E3W+Fl5msaARwnJbs1Dhs+2TdXPfrcnG8qfEHAdi5GJZozjrg5kZ+IKZMvehyGIy11VP/2fltR5DcLcC19HnjvTd5hldfKeRlPx291TlAayQTq6acyn3myWwe8s7ihkZVwU/CMtUwjfaj6buNv3u5EPO5zIHPyMiPbLtPnegvLbZMqnrf3XtOj5O0d7T1nqnOGhu0qfmHzdfQb7oyz3/4DezxeTHwxcg/cs8q5qZXZpZgFfITyAVCx2p1r+jD1K9Lk25ZMB3YE5EmGWjZAt/HTdWwlLJa4Mcr5D/gfoY7wDMtB+GZkYmJJNVOEfBr2y8j/8t+27kTPsZND+sEfdWcSNj70J9oAeMxCL+LGI/3LR9WSDfhTV+W6mfOJDnT2vTzMJu6HgDEudIyzlVfLShfm52byg3qvYz8mXo+87y26tF7m6HZQp/2BB+R7sv4+nKTdwxmBdyhnozsV/ez1hAvlYJKEyA7/YJVuRD/N7FfHfvcoA5BjyPzyXv3OajWnMoPVn4s7mQ7YQi+Qd8ithENezszEbxT2IRDKLwUrYQ4HORe750qnyrjC5iVyb6cMVba8HOVdN88fev9tW6Ak3ONo0DTgf8tBdRWSa5Z7vWVCvKMNkMvikrcrHU7xblnbHWxI/Y9EvIhNPm3vkdcjKt9mMITxhls3o1EYn1eP4J7IYv0XWTuQ9VX4UqLcyyNiT/MP/G/zy0W8HvE3+B3sD8Sxz1zO0X0YepXjQnkTfTkI3YtwU4zpGIC9m04uwG4nWZzqz/YOhfFbSq5DR+J1Vpq14EyvfFwquIe2el5UNDeXX8tBDReReyz0/1lGni+Jz8eT3lj5/TtzyXHJPqvwenteQxMcfjxinmVwmFyAT2tEFesemEzHu8/0+vhDYfswFSSJFCa7AHP/g8EDdlUHCJMpvB+1OX6Quk8TcVnrc0Y+P/IWwF8wuxLMq3gV7Lvr7cQfr8V2RJC6R23mW/3Zv+WH0GWjNLbiOJehz18qKKcTtEOo1lBxIYgv9/F1HnestdRJWTJVNx0KY4qHPPPqOuVzJdtKS9U5ZH7tl/KuI4Z3PgiIWY/A32iuKSplmKBIyuo7fxXc8+k/cahNZgLghKsr/MZ7G7fceJCa6j6HHTrgH+kQuIs4DfaZHXybpRgzFmvlSSVgZu+vgq8gMvMgC93ZLfdN9hj4XuyJ5prd8NgdBkVXvryzt2cKy1hHnYCDKDy337y+OOjb/+YTtU2Vf6/3bqvgPeMng/ZxnedPOFEg89+x7JpEpyLl6M9jLooPt2fAlfZ/rkJNwY/KgeoPqMQKUAcJw8kFznsad+zlhK/xDVP6XOLmgt/LsLy1ziWtU58tQ4Hgk+E5WpwXIi903Z3s6M5lLZiAr7596lu9B7ukBmb8VHXPYXmy22Og/D9BnMIsthsXzlvLvUDwpPyxTZzwS2MVXpwOBrQPKj3PoMhKZdJtiSMxFjrjqjkHvu0NxbmC7h3m22wO8idg27Im4pvrsfHVTnABnNPmgO1Pxf88oA5hsoJQ38TOe2YC824ftB/oT8j7dZRlCmEvL6xRng6uDbbFbLl9LuIFS9gF2yT74pexM5Dfk3eM+WKDPEOTeZtuyrYY+FaDPYJbVDfduRUd5n8Qz2ZwKO2M/TjLJ6YRN1nyO7NZE8tWb6k+l3hCwRYm1Egn1HPi0Z7vTyO9+rIZfEKA5FEfLm0A+t8AVtGZXU2kTPk/jD2IBsi1fxCj83Fjeph5XG99Y69Nxp/asg2URy3nTFulLlI8+GDLY/4W+F9rLFKcP7SLvh+yTl/xCS3umbdxVAvQfrPK65T5/1FHnUEudNNmYE0966JKucyV2G42szPHQJ82+mM+5FyMr6xhx9tP4GouWcbnbxbPtIy31h+B3TPmkh25bkT9ePcFZQxmwbEfeSjbrU2vDZ7B9CbNldgx29+i/h/KRr8rQgczsTdHvFiFWyVUsj31XIz2IUVXiIjUVmZzdHFC/h3xe8onkVwZ7W+ragrtUNa4c6GLLrPZDS/kuzJkOs9+T7xFQIici8R/S/fjWtbkOulgKGdhN/byAuG7G4guGPkySdWP1YRx+96po0PUJQuXjWndwps4C5DhGGUSsQH4r3Me9A8Q3veiH+Abx/NFNLIH5HDwrU2vUIc3q2AfTO5EXZ1Vshk2+92AUYoldduC5CUmLmzYkHE1jittELrdcw49LXsNgkcMs9802ScrmIhiFHN9kvUd8npVEkpgak0peQzZ2QwhbYJ6YJEeBoSttE64YEWkJdblL+LdH27awxmmKVvhdyFFqEb/J1HseiUaqDAI6yVt234LfOdsIil1LZmLPPhcTn8Q4PdjTesagAwlSYnqZvo1shfvEufah6mAPsvLwPat9OFWvkz4/7V9k9DJNIGZi/j3Vba3cn2Uh5pfwOo466UA6w+mbcKa/o1Ud9bNyEX27AmVjWtxtuIYQOhGjVpOHz+NUt78xxQIxyVol2/+sZ/s+GQb/7Kj/Bn6D/SjyYbivQs/vBwWn0PjFv4Sf5T1IOteiH3GRtaiNcUhI0C0wb01m8Um12UN9gSXWwB5q9K/ETZADcQZ7kCiHPq6Sc+h7IWQH6WNT7Z1mqW+KTTCE+vyQ+7vcYrhf4A7SkvhQd9LomjedPot233Pke2iMdukTi98kN1uuI5S1kJ2LbPuLkN9c2bwUB2GP7JdIUQRJF6M92u9B4moUDbhjMD/3TxE2GdmQ/DN/fEB9pR+yDY1nSgvwt3odTbH1/SWB+qyFZKXKZobqRlz1XP7n43BnYEvEtqVclg7Eh93kKjOD+lz8Yg32IPfVp26SMveszN+7EHcskGhpprrZM/+Es0tex0CXz1nu1+2W8vPoi+hociXbufcznzPqt8knXik72Md83oZjTwB1D+X98jfCbT8S6nKXxfe46iMebWWjVf6Lci7M2fwUcwkLGKT0I8aSD4rxWWeNRkzhGNMyncZY7i42Qix8bQkz0nIf9ofax+hsFvHc/tbCHdymThc/22BfdEb4iKW9awvq9dAX0e8Jw2eJ58YozOFQX8Q8UXsPft/7YJIFmHezJmIPfPPP3jInWT5PYtr/0qP/wyx9u+pMB/5j+PsFhrbKkvUWysos/I2Ks4ymLxdEVnY1lD8E2Vb3YWVkMlZ03+/ybC+xM7iAaiG7L8n0fwe6nT8gyfrT2yx/bRQZd53l0cYKSIrU0PzSM5AUsFmO86xf1f1vCLJCKtr+/nHFflzYBvuPYrfW7sEe535lis8vj8adbW0msBlyvm/63OarH2IoOBjk95b79DVHnZ8hqzXbxOk15HdblCnSFmp3GUedbiRDpCkt9OmW9kJZA7/t8B5kYlN2EDyORiPTrMtdJ40r9WxaaBu+cQlME4ssE+jbSavCaPJul7YdJaWf8mEav+BXCdsKGonZ6jotNt9RkJfOZ6iWU3oBfVuTCavit0qs4l+6MnKe6qNjF/4vg1Bsg/0eyHbnfy2fv2ZqrBdThsO0nIW4DLrKzMQcXKcHuNjSryuRzmAUmzuUK5bF0xT/9j+I++htIWKIZ8Jl2Jcc0Zhy29vcLkPowP+ZS+QBym9Lvxd4treddG6CMeSt92/ybHMifhkC/1VS57JsT+NiaxYaTnfAMAYxwku+3G7ETz2ELSj+0V5qqbsp8eKiz0EezDT3FdQ5j/IW8XsjEQVDdHyceMcGaWyDfRKkZx3MK6FZjjaHkrfUTcvd2AdyH1mA2fhzCGFBggaypLPKpdkxQttF/vXnWPqGfK6ERO7CnRgnRhCtz5S41h4kdHDZbf2lkYE+WelOxP4bzS46bPzOU++YcQR8yNoU2JIvKf2MbMKSMoFmfBJHdCPnWgmrIoYuPrPbEHmUxtjZWe+CRLoov6IfhX+UPpP4ZKgKxbbK+2SqzBctZVx+tb4BisrKyZZ+D6y53/4itm3cv9Xc72zcXjimZ342jfYzpsF+M0ebPkzAP9+GTX5Gufj6HchW9xa4Q3I/hZ/P/wb47TzeUKVOVEAAACAASURBVELXKixJ305GIkXhsZU2Z2saf2wvUC6K2yfwf9D+jbikhUTdCpV0wIuNDZ/bzvh9WAd7THtfWUT1l14W2yrjiFSZTsy7KLsUtH2/pe0Y8irm89QhFIfxHeiSTjebZm3C7VpCxZZdL+Fbhjqfz5S5yFCmarKr60peT1am4OfCa2I3j/Z9F022+P9p6aZ5Gf8S9szocB/xYoIoTaaDvLWsKde4Dx/C/yFrhvw7o9//Up/dSfkzqP2RrcAYOj5A3OxdtsE+u3LekLxLYtGLKWQyV0ayg0TC5Jr7bWfpxu694WNBX0UWACtZ+k7IHo/dTz5QUtZAb3pBm0UcVvJ6bPIsshgog8n4MCsHe7STzSZpk1NK6lmFawi/HqUNOZTGL/KqCm2thN8PtlmymMZ86+f0/u07lAu2MQT4PvFdwtIRzqqSTUOcyE8MZbNnci/idrEZ2lumru/rVezbnr6REAea2FzUVsfsyhhT/mjpOyHrdteN2YgwuwrPhu8NYUX8o9uFyCz8otVlWRa7j38iPonDfN+dNq+IOlmHxmPWF2gMrKT0A0bSGKlsNuZMZCE8RPiDVqekrYjXovwMfhTihliHjvOJlwzIFE2sB4mclmUZ8oaFmxe0/01L+7HEZj+xMv4Z1QaKvETjZDVNNpZ5HbKtpe+ErH+7zU03a0fy64J2XcR8BrNHiN2IS2CoT/muFC8A5uA22Hu/p873B+oWiwsyeujqvp9xPI1f4HcjtFnkplVGFiHbZR9BBu99sPtsh76wfFgRsTjPth1zhXEnfnkHirAN9jbXnS9nytkM5RLWoN5gNzOwG4R9vMZ+21Fs3jCTiG/QmpVnKR70bkqVtyVc6SS/A3FiQbs2Yn7/UxCbhymGz/5EuKfMqR59LkBCSGfvqykPiU2albQryxo0fo//aZEeSglG0rj9NBP/yHYuhuF20wqV65CHMsuS+OXbNsVeD2ESeXe2xcgKd2nipmP9UkVdAW60tP2WpfxoGuMa+GwTFgW7OQix0n6uoJxNXCu/bM71gSq/tFx/BxIVr2y7jwIfo3rwq2xERFvUuNUMbZcxih2POS10GXmNPluETsQbKFtmChJq25cO8pHnbHIL4jI5AjHQDUkrfW+ATrG5OKOLpsHtJ2SjysU0/NiQsHSZJnmGYkNBk0tPVtavcB27G65jFuJXnzCJ4kBCvjKb8lm0ElwvnFUtddIW1TMptrY9ytFHD327KaMpZ0S2GPuOzGgktG+M+92u8m/sZ6K+iZ2yMg8JmZu0W5QLvSikc9YY1/biN7ls+ibUSuPK7BYiXZjdxz5LfrfkYezPjIlhiM1Tnb+NPwToE5ttMrpc2EJdFE86aFwVzwCWitzHdpSLhDcXyVbl45+aDe2blfmUt3Q/lvyZ3otI8J8sXynQI0Ruo1ocaldyDVsgk/HIfU/KbVLQx3jcLpOTMuU/hV8GvbQ8haweTaxDdR/rdpWXsVvAr0BxkimTPEv+d2uLtZCULyJtu+GK3Z6dVDzv0XaWmF4g33b0swf53+nL5H/PLtIphOuQVp+Vp49P3yLO0aNSIzvS+AOqK1b7GhRH50qkC5m1+rrDdeAOaNGDJNEJpQNzxrW7kbN7E51U21rNymdK6J3gipPusvpPb9Ed6yiX4NoGNr0cN6XYajkrrqxiO1G/NXqz5V3c2SXLBNC5DvPxnMu25vsOHRLS4WGPcJTL/k5MhqIuViWebcx9FE/+tzH0NxPJ2ujLKMy2AFXlGZpvBb85cmSacFpGJ93Kb3OyvqFVtrqL6ETc++7HbNj1NOISF7p97eOX+uESupp2C66geKdhTfwTchTJO0iEsDLs72j3ake9nVLlbqV4K/+rjn62sNRZE3lh+d6HbtxhVfei3qBMzZQ5wA6Oay06OjHJpdhXXsc66vm8wJPwyLOx7wp2kn8mvurRdkKZ2Pc2mYe/x8sm5HeOFtB4fFfEcMw5AcpKF9Xtj8owisZIn5Myep3WAp0UT4bT+AD+I/P5ptSXznBZ4H3Ied9WwCol2xmBTBJcD8dDhF3HcMxuPT/Gf6vqcwU6hch1AbqnMUUKTORd7CubITQaIv4X2WGwTTq2dvTjCqm5IsXfXVreRiYJNg6mfsv0umU+bresLWg8ZvGR3+L+3dpS3rq2ZjfsrZcOwuXyxd/S0H6Rv3ka11FDqIQav55oaGMRcqQQwgnEmZCeHthvTH6BvLdB3qlpF9jbW6ST4sEHaPwRpaOWbY5Y6rY72Tj+JikK/ZpmFHkr9m7CXYQ68Heh8ZFPBfYPEvjGNTC4VgemFLjdyMD/NSTHfLqfbAS+RPbHzdrANIeOWbkf+/k9iCGnT17wdpSZuAfA8diTG9nkaop3Zr5tqfunVJnhyHP0YxqjT6bF9b7I5qPowj8M9wbE+06nEBbidRJ2m5Au4PCAtkCMFF+roP+PAvuLzWTgr6l/X0+fbtNaopHixVk0/pCSIDPDkYeiTGS5ZnI4xQ9HyFn9WMy+6WWj2sXczn8LMcoK5d+ONk931NvVQ6fHkJf4+7Eb3fnYHOxI2IrnKtwr1R0oZ7zWSnkW99byKMIzQT6BPRBPmoss9U9F0lBfQfHveD5uw95sKN0HPfQCeRcVZan0lXeRaIO+TKAx+6dJugnP774cEggpJJfBHOwhpOugA3OshCGIfVTyXWddFTVWfptyLX1f0jv0fVGfoS//dLvycYoHiHn456teHvtLZSp+L00TMbfzQw2awG2Rf6ej3kjCt4tNUpQ8JeF7ge3+AvfRzET8DUJbLf9Cfn82Ogl34+rGP4hUDIPSKY72VyVvo/MrT92+E0G3REJW4ePJxwjpQtyUTfErvhLQdsImwPm4J1LzkcmY73ssJhcj6c6z3EhffIRv0Khv2fekUjPp89InU3+/D/sqo2xWqJgcj99K8Au2BjJMoDggzj9wbx/biL2df2Bg/y5f7G7cvsMxDKJ8816PJnx78ye4B/wRyMqj7mxwZWUhEqXQtUvRiX+AlrRc5GgzzRDihB4+1dGHyQDQ51hqW+IZXf7No7+EseSjZHbRl/d+CLKdnu2jbHyS0YidxleQSdB5yNHK3rT2fftJJPVvlrPo22XIDvYaJ79NSQeJ+Wfv31bC7v96JGGRpGIzDv8X33X4GeWtST662wwaz6ISKdo+trEWYqkc46U1Hbvbn4nVCtpz2SLEWFW9hv89O7lE+z+n+HueTD4Xd6vlEeC9BXoPR3ZzyrRfFB8h4X2Rrmeyow+Ta6YpEmaaccT7zt7A/whsFPmdji7MxnimsLhf9uynPzAciS2Q/S19gT7L+3Qws7nNU00JJW14cnvv33bHvF28La0zDhmCbMH5nsO+hN/DvTr5zG2P0bfa/Sr57cdLKOehENOaODRmwPOOtlwhN/eLpK/LujzNCpRbhV9KcfzykcgqJJYNRVl5HVnpFtnDjKZ8nvb7CtpO4xPHvUi6aPS/TrMS+e/0nQKdOoC/R9ArkSIj0YQR5IPgdOHeTfsS+XfEFz376w+cQT788THAmch7+Sn6rvuZ5qqmhJAe6J7o/dvngB9kyg1Ftvzr9MG3sT1ige37YL+B3/nWBPJWxfcgLoFpjsF83hg64A/BnpimjIREz/pdQVu2+7VGqsxjyFbofwkPYHNRgK62tLxF8k8kc18RKyHb/7F2WnxlOvLi9LFAXxOxEynbV/b5tZGs3ELanoYMxH+mb/L9uKMP0yS3G/E7Pwxx28yGzD2twrVnpSg1b/peXJ2puwiJ4VFENtx4NxILoT+xA+YAWJshtk8jUn87FhnsT6Dxun9es45KBdKz59nI6ug75M/fDkfOsFrB1vgPLjOQH2cRK5JPnHM/duOSw8ifHf6U8AF/beINMm8jqV59OKKgLVfY0OQ8N50Bb0nEQOfH+A0Wi/CfKGY9RELkWdxR59Isi/zOi6ytq8rDyIvfJ+QziBdE1SQvvgFfPu3Z3oPA14F1M/WTwdEVo92UIdIk7/b2c1vFa0/LNPwmgJ3kj0u6CHM9zroWdiMBxPoLw5DjluwO2VDk+U3bcP0EOYZK79jMp3ouD6VGvkTjD/QoZMadtaC+EUmQkqUDv4epKgdRnEp1Gn7nlOPJJ095hOKEHAeRH/DLhBaOuZ1/rWefaxa0Mx27YU2yG5ENuJQwBHGdOx93zPsbPXU9rEDXIlmI/K59XYCGIL7tvyWeu95UJEX0tvhPCEcgv6cYKYM38uhvOdzxDWYh3+nmlvrD6LP5OclSZv0I11JFipJngXz/2Z2vLsrFnc8a7RUdAbQbJ2OOgvcyjTE5TDutX6tdO6USY4A36fvC5iArkStSZYYg2zimfNrfRwzAmkE6G1tWnsYdWS1haWT1kK3ru0I+hPyAH2rHMAS373uo+LoTFYWmPcRSLwnzuZDiLehlEDsH22rZZ2tzhwI9feUOwo+dhiBGc0cjOREuQuwjbs7I9cBlvXI+MrAfiUwabIlrXOxI3FTQPomsLrfUnYkcNxSluJ6cqmN6N4Db7bNuucjjHnQg31+6XjfhgXLS7f0m094C4CMl26sLm4X/ssiEN/sbfoG+wX4v8vf6auqLtKpExOQW8wZ9BkQr9/4tu0WzNeXDuJbFZB1+K35pMsciZ/Lpui8i/tghfJq8wZFPspA06xMvFe5M/FJv/rygnUcwuxamQ4X6rnZGIoN+NtPhAopjeq9XoGeIzEeOKGJncYzFKohxYYzVfCKzPfo93lDvbeRYw9dP+mepuqZQ1xNpXTbClyierIDk4cgO9Ed7Xr8N05HAHPyPl5rB+7GHvr4AyWKYZiby3K5KfvfrLuzGmUobYnJn27f3s217/51+CXQAD+BnvBKbU5GHcjFiJOLj1rUk+dX0qxS7/9g4nPwL+jvOGnnKuJnZ5EaKZ9Yf9Wjnf4grTTpk60cy/YSwLHK+l54cvY47itmqHnqGynTELzhtZNRKVkH8/+sI6/taQd970rg7NQPxUjAFT7ExnL4dwbdSfx+B7BD9gb7kOM2WbvoCvrj4vqGeb1yOIoaTdzd8g/Lvm9h0IDZHpqO7/REj3IThiP4fIx+L5FH8FlpKGzGK/PZ2kkP84+QH+48g53W2c94ta9NU+AD2bGpZTA/eTMLyUps4ivyAf3pA/WFUs7jOSlFY2tGE7SYkk7l0kpvFlEtYtAXyAknaeRb7bsTYAB1D5XVkstiqQCXvQ7Z564zd73J/2p4+u4puZKu7zLHDx1L93YEc35xGe4Qo/rWH/mcY6oUmxyliLPnn+2naZ3D8COYoqROQiVzC5ojuWXuclyifjVNpMRPIB7G4nr4ZcHpW+mvsKVKPxW9buRl0kN+1WEBYti0XJrc8VySxLFsSL0LYLMRVzkVoyNUe8tb2ZYwSQc7Dv0zfhONpzC+LOgf7ROYjdil7U+yfX5U1keuOFd+9SKZa9NgG8W/vQZ7z95e8ng4aDbSm0RicyyW/RNzUbEmTqsrzFB/ZZK3me7AbGFbFFFv/LspF4oxNB6LL6pm/j6YxOI4pI+IbyHGb0o9ZG/vsfN9UuSnI7DjLlsj2ULtwJo3X0E1fyMtYHEd+wA9JnGPKLldWbsO9nX9QhD7mUzypcLERknK4B3F/zK4sV4igY4jMQuIHHIu4F5WJkJhmPDKJOBvZHWnmtfQgO3JZ3kff+fmFVLNh2LOkXjPoM/AsGyzIJd240ymDTLqy9U4rdxu8MWXN+xPtYdD2WfLv63GIjh3IsUw26NhM2sv+QKnAFpgNay5IlbmfvA/pEMTIq+r2eCz+H/lrqGsGb3KnO9lZo49RFFvKh4grM9YY4hgG3ka1GNgjkCQbPYidQHryMDGCflVkDpIg6NeIO9GBiOX5psgqfR3kGZmMTJ5OQIwfbyE8QE0d8kLmXm+DPM/d+P8mbYzBHY3RJeen2hmJJP+Jed2mGO5pTEaJrvgSMdmJfKyQrzepb5A8BKbJxYrI85fmvYh+Y5GJQFrnmLuiSptg+nHOpe+8diqSJCHNx5BtoXbgo+S3x39Rc5/ZmAU9+G/pf5B4FtmzcW+xxVpVXUL1FMhf6W3rVfqCdrTaN7u/y5zU/d2j99+LEC+SKgxFXA3L6vVBZEdhP8SvfVHEa34bt0X4seSfL99sjLE4LNN/F/L9NIP9sLvWPk3jsWsSgOtK8vruVaOOSgvZm/yAeQdyxjmV/MvjcmT2bGInmpei0bRtVjaBTSinkX8RZd1YbFxgqFtWHsJ+LnhUxH7+TfWoWV/tbetN5Dd3WET9Bou8ReOuworIALcQmbT7BJdxsSPVjiS6kYXCUYhR2LFIPIX9yW8Tl5VDLbofQX6gL2t3UpVs3IGZwHua0O9w5J1tOr65mUaDatuE7piadVRajMkA7SZkNpg9s5+ObBlmWQs5o2oG48nHu2+2QcwPyD8oPm55SwOvGOqWlQvIM4J8Ssqq8i7loo2lsSVjuRwJf/wrWp/Aph1lKuIGugTyXCZ/TwzoqkZwG41EFoyh6zWYJ9wrInkXQtoyGbXOIu/adqihbJm8FrHoJO8ZZItvEZuzkZ20LNcgIZpBjtBMocmLjkiUAYLJGrOHvix50OeLafrRXkNztqs6aXzh9SBWx812demgMe1jImd61N3HUK+KfBHZojscmXC941lvBuFeApcQ5qudxXTPLk59PhaZYOqgL5PtfTL3L5vroRuJ6leWjcj7VRfJHNzfz4WYB9oJmG0BFmNOHpXE0c/+/R7EpRVkkpP9DV+MfxjluliO/ILklxHbH4Y5cuTOmI03b0fez0OwH/HZjgCUAUg2BGQP8iAlM+kVkC2pLJsjA24zHrDTM/rNpnXGgh2YM835RNr7m6Fes+UDyEtjHWRQ+T7yUphbUO8hyvltg0zWsq6Bpnj8KwF/bYN71ApZhEx4ssaRY8gPbFX8xvegeFL1BvJbPQk5j09CThelzLWdlW+GObfCccBzhr9finmCcCZyRp29H3+lOUd5Pkwif63ZyVsVTiC/ZT8KuSerZ/7+MPJ9Z6MJZuVc+iZSygBmCcxna5f2fr4W5sH+h8iPJMswqht3pdmZxoe7G//MX3VhCpvZQ3H60VVp/er1bswvxlHIS+lC7KFQnyOfHc2XUTQG35mPPerdIbgT7ww0+R/iQmdi10zZKqlGj8O+q/MyciS1FeYJ/Mr47R591dL3IYayTyOx97PHiYuQnYusrovJb0VfTzXvkTo4nEYd3yI8dLeNdWn0fkh4lsY8BkORCXz2aMEm9+KXZEnpp6xGfns8LUcgbkmLyAcomQp82NDmF4k3y16RfGjOUyK1XZXhSGa67D37Ee5zQ5Nlf1XpQgbxM5GV2Oa4PQBsxpYJo5GofYnPfFrewJ4trYgJiHV+0tYnHGU3J56BVzvLbUjoYRvpc/XrKP9sJcaSWbkDmeQVTdDTKbN7kAnKNsDnaEy41YVM0HcytPlnQ/9HY94p+xNyFu26d7fTHkFsTFxBo663Es+e4BryScqmIC7JCTtivmeuHbz5yO+kXXZJlAh0IA9Z0Uy9C/lh9SCDfsISvX/LhlfdFnn4Y5F9wVxPewSsSBiFOUf3+dgfmKHI9lrVQeIlxCBpH8yJQa531J2NXybBDiSs7tOZ+m8hW7Nl2Iq+kLJTCspONPQ9kORPuLdPx9G3w/EI/olsspxg6PsO4EOe9T9hqL9j6vPVaMzs9wYSQ/8J5H2Q7AZNJJ9o6iXkPZKd1Hcj8Q5exXzv7qKaHUndLEte98MitX0AeTuha+jbae0E/on5no1Cjmi/g7g1mu7tnTTHk0CpmYm4V/M2SbtnrE6jz2/CVUhQDROhs8VPZ/p/gdbFPXcxGnmIsvfrcuzbi2WM9RYh59wn4WevsE1BeyErjaHIqiG9KniTxglgCEem2ikK5LEyA3PA/x3Fz8RZvWVnUf7lexCNuzwvEJbkagXEGyet+zWGcsvQ+D29lqkzF3vo3S9hdhu9Fon5kf37fNy7Ie3CrjTe+zcJMyreCPOEbBnycU9uoM8z6kfk75kpdv9SSPAh02p/LrID2GqjR6UEHcgDZVvNT0XO9CZgXq0+Rt+23FbIrDXNZOwGOmsT5os/MaNnF7BdQP1mMx7zgHQzjXnixyBhLLMWuzZ5HTlDPxBZ5YVSFC8/1NDrPchxQVL/DeQ39WMkytzjNJ61z0VWD48hWfUuQF4gm9K3Y3Q/xVvIrlDP/VFupficeR36IiJeiUy2z0AMaq9BLNanIfc3kdeRXaNrEaPWz9B3xr0YeT5DUpZ2kLfiXgxsYin/XszuXT6/83GYk0e9n8bfXCLpEN/tzEU06n1JQN0OZIW+jOGzx2j8Df0XeQbTaavTMtnRz8rIToyp3u1UC6GtNJlVkZet6ct8AfGlTs/gRmF2i0mixn0I8RtP8wvMUZiWRKxBQ7g60+/ZgfVbwarkE2P0IDPwU5D775MR7V7kPm9J9Vn1JuS3TdOygPDV+XAk3GzVAS99L0wZurLsQLzEQq2Uxynejh9F3KyJr1AcW96EKVT0pc4afZET07+xtymOqncqsIvh73cgFuXZv99T4npi0oGfIfIy5I8oPhDQz0mI3UaWO+jzmOpEdn9mYbfVmYNMyl3Z7HYjnzCtB9mROZr2OkJVDByK2br6XeQsz7bCGEvjOVwP8rI9AFlpzsuUvxtzatqLMQfksZFNxvEMYauRVrIZ5eLTP4DEaq8asc7EHwv6foxyRk4n4p5IhMopFL9MTo/YXytkAcXpm1dEVlOx+nyevDGXDxuT/y0vpPg3OhSxL0jqJNb5Q5AV5JZI7PjsoPQOskN2s+EadkMG9+zfWx3idX3Ey8C08k5zII1634X/wLkKMlHaIPP3W+k7AtsK83c/DdnNSU82FiBx8W1HoqOQ4yPT5Ow6yrvfKjWyAvZt3L/jnuFtSd82a1YW02clnX7wXyR/lrw78qP0ZRR5v9v+lJzhA/ifL09FIt6VdWXzZR2KV1UmVx4fTOFKq8gU8pHS0nTS6L7nkoWIgdi9BimTknYeskJ9FTmGSUtRjIJETNkk0+xL3OOKl/AzxMyyFObId75uf7ul6kzDbMdzoaH9nyKW/Nm/34ccSWT//hatz9I2GpmonoV7UnUDjbqbfO9HG/4GshjI7n49Sl8ExfPI35tp9AXgGYYs0tJueDOQXQNbGuhNMD9rbwEft9RRWsC+5I1qepAX1f6OepuRH+Sfwe4ClY7iNZO+hCcJd2M3BjJZ0maDdlzp0DVhTWSL0uazXTcjEWNC08ojK48gMfabben6Kw/djijZ9tHEHfAXIoOKbQWxFX47CjcV6B2S+GUGbsOqMzzaeBn7DspmyEQn1j3sQZ5H18TJRgfmGBKzkQWEL2lvkBMNn69NfhK6GLESN13PWZa/dyO7VxsH6FYHGyDHjxdjPhp7D/LbTvR+lLyB5oE0ejkk/AyZLKSZhdhYbUn+eOs1zJH2QO7TRfTZVjyJ3StjKLIgSeudyGW0p8H0oGFp+tKLZh+I87Ebea2EGP4kL9H5yA8i2X5fGbO72P30bUfNpHFl/57eMqbzybXJn1stR6NR3jzchiGbIu4nzcoulWUNxOrV5r6SyAtIwpzsRKiZrIS8rF16zkcMrMoQOyZ/D/IyOw3zaucSzzZcVuer42dD0QN8wdHORPwCAH3WUvd3xD0O6UFe/mXO6MHujx+aMnYSfZPAWZifZdO7qopMQY4BW2lBvhsyqb+B/HeQTZaTjTMxEtl5yh5bfhGJeZGwYW/98zDbCf2GYruQlYHv0vfOvRQ5QjKxOfkj3R5kUlE1EZNSgl0w59x+HvtW+HDkRZ1EdZuODEymL31pJBNatv0kQEt2sD+mt70sI4Hfk38gszN3WzS6nZDwmN/E7uZXJ+9DZrUuY7H5vWV2pn1cV3xWny/SFxo1hA7kZRHzxZ3Iq8juQdoYKj2QuOQF3PYI3/Ro4wHchljZdKEmeY3G3+rSyFmq72QjVMrGutgT8+/6Tcr5+KfDQ/+D/HexvaGvGPIk8v5pVcCdocjk7iVk8P4U8v0vTWMEzf8Y6p6LDMJpDkSO/RKO763vegbe6W2naPW9NGIL8zayg2VLlzwCMbQ29Xkh7R3zYMCwJGIJb/oSLsD+JeyEnGn2IJOE4yl+ODYnv4pJsm/NRNxkEs7ubT/Lr8hn61qJxnPP2cDyqc87kVXaXchsttlGIkOQoxHTZCctU5FVYJHBTitYirxVsO0ayuifDYfbg7gC7YL8Lj4EfBQxaDoF+W3ejP8Z9X007jyYDLlM4kpDvCTmCXIi3TT+prN82FOHr/eW70AMZn2v+XkkEtspyEt4b8QrYQvEFXV38sZ85zn0dfFB7G5zZZPuZA3HbiB/RvwE+f4eJo7nxXRkkpt+l5RhOcTff73AeiOQVflryPvxd+RterLBqZLY+uld2D0Q2xCQ35Bplf02MhjfSOO2+wzchtgJY4CTkYnd9Yh3kYmdMB/rPkX5uBuKB9shZ+rZG/8q9u3t8cjKuhtxszgGu5FGwnrI1qltu7GrV9IvhQtpnI2CTBaeJ79SOi3T3o96/74Ukh/7aeSlZzuHqosR/5+9845vo77f+Ptk2c5w7NhZxFaW7YSRQIAECoRNGWUVyt6rUKCQbihl00l/lC4glFVWGSVltmwIewYIhDAyndhxhuORHQ/pfn88uuiW5JMsjwQ/r5deiU+n00m6+37W83k+tvdPtqA0oclW7bGsuxXmpEm5e+X3vYlgi+R7JCcLpcIonFyR1wK+bhxq//w3qbsZoijyKcBfbMXv0V456KwUr03VZtaHYGTMKDI2O+CvauZesB9EvJogDlcfnGncd8lMJ34vkpQihoVyFlZHxuxkZp6hcmt2zEERvQV3q56JIs2pPttrgF/4bI/h7ABwP9YjQ9iRIMFAAkV/A/ZI87X9UDDl51je7bP/QpwB0SnIwII6EPzWXztRcSjS0LBfn/MIVvIcgEo580nO4ynCvy9/I07xFsz8XwAAIABJREFUtV5kASGSpyCfI/lCcTa6MVagNFN7faLD8U/PutWxrMeHtte+hAy7Hc+T6NW3kId3ofkNUoMy0U28N+ljL7xyvkHRD90sqdKsX6KboTtKCe2ibtSo4Q0jKk6uH1H554ZIxdsNkYoNKyPlZmlOOIiBNJFoi58Mb3s4ynWcdIl/Jei7TzWCtQF/Cddkj5dSvF8I/wlrJsmjG9A1GuS91+KvaGZ/vIyyBOlOHrNPrGwls2Er3051bi8OLTMbIhVmQ6Syvj5S8Z+GEeUX1ZWVp9NBckySY9cgp9JvLZmF1ia/TFQZ/nXqvVDmJ1kXkfW4g9SdSO2hADmcH6JsYzrKoH1Rx4H7nNzB1vPAr21/W8TlMpJzb57A68yE0JTAj237/Y9gpbr+KKN0J8m5XpcmOZdn6E3rZwXb4J/CbAROTPKaMvQjf47aJtrz0gtQSsdeX3oNLbDWeMXD8W/pOj3+/Ms4I/s8lKp39+me5nMM64Y/qp3zdCMHecS/JTMmsuXVJkt3NyNSUaZEtk7DytGjt2mIlJ/WEKn4R2Ok4mst0N7HM0NKTSO4kcx0rO3VtmPUk9lvASKIptL4T+eRKqpxT5YzUVtSMoyh4/X2VYhgmsqhSIXjbMdqIz2hFgvHkCKTcm5Boe81FH8sri+rvKchUn7q2m0qU3UqhFEbWDrfTRStcz/xee5C/KV17eWaESiSTybP24yycR2ZRDcSZWEWIuc0HePmJuod4nr+Dzi1763OkfaIoGtR5sMviNspfr6tqJ4/lWDZmr7o/kjW7TQBf/J2b1q/g/g2/jfOmyS/cM9BLNXvEezHPQEpbpnION+FvzzmKfgb+7Wo7vQZTmP/LXRjuOFWy2tEDkk6ak0FyMt8gczY+UXIuanH/yaqR7W/ZGzVLofJ/uHGEWP3bRhR/ruGSMXHDZGKWIqF2fG4qGBgOgvvEtJPWxo4JwJ+QeZDXIi/f0eN/gJSZ2Hete07l9SlLfc1m85jAyKfZiJ/bGEyzoX/Fxkc4yekqIsPCeWYC0vHBLqeGiIV0cZIxQf1ZRU31JdV7ml6o932ptf5PX6IauXuc3wF/Y7uLpiPfD5jCXI8k3XMNCPD25Ga/i7o2lwdP1YyKWE73AOB3KPC/0bC2Pt9VhOVy76NOBwP4HTaPiW5/kAFWtObUXYi04FWdvTDX1VzI/5dKL1IgTDyXN0181ZU7/ZLJfVBZKjDCWY4K0joYDeh6NjvJqjAf7Sr22DHkGNi4QjklNgxECcpaCXp6TBHkBe8iGAkFDcGoXRZsvnttahHeECyA3Ql1pRtN6ixrOKsxkjl9IZIRVNQ4+5+LCsrNyfk5qWz8LaglPGRqKWyDKX4U11XxThnAFiLdEdwOMlT7kEe7klhdtjLAqkcRneZIp3Hw3R8rrlblnk6qX+HIvRblNse7eou/GvQNhldW1bKvyFS+WBDpPy0eNS/i3XcysrKFW+//fbJFRUVk5CwzPX4BzCvxc9/hmt7G3K6b3Ftt7gRyb6Da0hu9NeidaAjDtiBJDgZc1DwkGpglZ3M6iYy303iWr3Y53zX+Bx7G7RmWwFLFOlVJHOyRyKnYg0qSbXH2wqCU/GfvfJvetP6gVCGP7GnitTDYYLWkvLQhbkBpa+vwP+HyY0/Z2fNfw2ci7IGfmnNNhKG8rt4a6duktUFAc43J36sJ9GF9UfSn4A1BDkJ9jKF/TEfeaTZuAE6hLoR25Y2jCi/qHFExUsNkYrWzBdg52PmNiPNklBOpkbLesRQhPEV6lS4E7GP90XX1WSczOAX6LjBL0Ap2kzY2i0kF1+5Ir7PMyneuy/+2uHtPerIzuCWCE5C7kJ0r1YiozANOVXzkGHLSOyonfR9uo9oY6Tig6JQqAkwDcMwly5dapqmudY0zcdM0zzz//7v/8bgZZhHUQnJj6j3Q3Rtubef2873V4SCo8Ykn70eEQb7oqxCJkJdB+AkJVaj++J4nBwiO1k2ivO+eBMZ+x3xX6OqSJ5tK0BkwKr4vrWk1psYBtyIBNDSzeD5YSxqV3Wf81yCZT26BD1R5P8IJG7j7pV8FBmjpg4ef3fkRRaii+9uZMzdmIKigQnxvz9BF+N/0IICSik9hbd974eoNfBUVA+3/+C3kOgJjqELb1WSc90VcRLOQN/HfSjbUZP6IzowDKU8L0QEFBNlE5rQ4vhZ/DO8iG7AbkHTyHHlsVj0OFRT3YNO6tV/vXkjx9fVdtYHXYd4FzvjZPa/jBafjl67U1BUm25p5V1E+IzZthWixagIseYXJXntDSgtnA5eRMTYZe3s1x7Gosybnf/wGYn55FnBtrl5vDo0Ql8ju8vhTxrruG/9GgCmTZvGhRc6srvRW265Ze6ll17q7ra5Hc1Wv9+1/U3kUNbgNKBPE0wvfyAyiD/GP/Kdj9aqtahT5H94ycbtYUdUQj0F5zVajdLso3BG5zvHtxvIGXkZtX2mKjE8Hv8M1T7PhVE59LL4+/wXlTqTfY5i5DC2obJLa4r3bQ99UQvoGa7t69B3Mr0Dx84KepKxD6HUyi9xnlczIoPc1sHj90Xps6OQkX8ART1uDERG/YL4Ob2BIuLnfPYNx8/rfNf2NagtbQJq1yggsdDOJNGyNhtn1NUfOSNHoXTfaGQg/oHST+4Ru6lQioz86Sg9+AxKDy5DF3e3o2FExQTDNL9nwrFgdBmx5fZ1q/lVUzL/qtMwFy1En3TwOCPQAp/u92VFwRZ+j+61X+PtFrEwFl2j6WR7/oLuVzPN83PjNHRvdWoqNN8weHFoGTvmZj+h9czG9ZxVvxyAQw89lOefd6q/rl27lmHDhrFxo3u+li9iyAnYFWdwsREFAn4Bix/aM/qvoYzPPqh89RCJqD0ocpBj8l0kWpSsTHkK6kDaG2+5E+TY3I7WMLvc9jp0zf4d/7XMQOWvy9F98nMS9XU/FKB1eCb+NiEdXIIcB3uXiYnus+tSnEOno6cY+0J0UbnrhtUosn2vg8ffBUUn01GGIFlgdxJKl26DPNs/oFStH76DnAb3ZCYL81EL37Xxfb6Mb99IIlX2NvJUxyK954kkWKWzEankn8jbDooI8mzPQfXSa+l4hJUVmGDUjyifHDJDx5mY3zP0ubsFlzau5F/r0/las4JWEqzjQCt8EvRHi+SRabxmNboOa1HU8yEqYW1PckPxHJJCDQITLa7JVCCDYjBq2zuzg8cJhJuLh3B2/87xJ9bEYoxdVkWraRIOh6murmabbZxJmWOOOYannnqqo291LCrxpYNiZAT9hMXaEIHuJpQRPAwFR/eT3lpkYTxa28/DOQTr5+i3vgtvu+oyNI9+XvzvPePncjIJntL7KIPkJ2RmYS+0HvZBQZlfRiDbmIJmLbi7ep5Ekf+6LjgHD3qCsa9AkYrfOMNT8JefTQelyKhYHIBk+9yJ2kEeQTXx2Un2HYpuBPcUpHUkF2WxLur+pP6hq1Dv6IOoTzQd7IzYxiej7+wY5Kl2O5pGlE82Y5xiGsaJdKzfN2toMU2OrKtlZsum7nj7JcjLvw9naj0d5KHyS1BjDFqATkeGfifkSD+WZN9jkSMaBCZarP+Zxrm4EUZR0bV0jDQWGJcOGMj1RelSX9LD4XVLea9Z19hNN93Ez372M8fzd911F+ef704Mpo37kNHLBMNRxvMcvO1r89E1sgTxUs5FJaHHUDC0Ps33KkROp4U/orLoOzj5VmuRwfRbg7dBZdALkWO4Eak1/o3U99IOyNi/i8hznY3h6Htyc8w+QU56OlnarKC7jf2B6AuxC+KYKPK5hq6pIZ+MopEnkUGuSrHv6ShNaa0QK5CT8ABK056KFjw3Q34G+qxjcLbirUIL6rsofZbqvf1goH7Qn5GY4vQRSp11+cVkR11Z+biQETo1hHmK2fkjbTNCQyzK0XW1fNGaceZuI2r/sTCA9kWb7PgEOYKvZvj+/VB5Jp2RyHPR72Fdk8mO+yXBWfS/Q/MmMkEOMihXkTxL5sYm5DSvif/djNaQwQQk6X6nb3/uH7RNWuowmeDmtY38ZnUDAJWVlbzyyisUFBRQUqIlr7a2lkgkgmkm4pAzzzyTtrY2HnroIc/xJk+e3DRz5ky3M1SPuDkdWS+3R7/jMa7tm1BU/iq6vi9CdfASxKd4CRnrL2jfcS3AmRl4B3Ev3DX695GzmSoj2Q+VWn+BgrXXkDLkkhSvAZUu+rVz7GwhF2WK3XMbqtF3miyg7BR0p7G/GEXI9sWxCf1gT3fB+5cgjkA98gpTZRAiqHZklRk+QXWZx9BCY8dhyHGwFwHb0AJbgjPaPg2VL9LFMJT1OB/dQHnI4/0EMWNXJ39p52FVZFyZYcROMkzzVHq4lK6FFdEoR9QtZWFbYG7O5+h3W4z/91yAItPhiHMxGjl5u8YffopxM5GjOZ30+RQlaHFMh7DWikpGXyZ53qrnB8FjqPyVbi0yFznPV+BfzlmBMhBfog6YeYhYuozk13cO+o6fJcUwlIm5+Tw7tCzrhDw/zGpp5sCVXj5teXk5++yzD8OGDeNPf/oT0WjCTu+www58+OGH7LDDDixevNjxunfffZfLLruMN9/0lLj3R4N3OorTEUfIntp3c4tyUEBxAQoywug3eRf9ZvNQULMQp1HdFX9tAAsmCZu0DjHm/0LqbGgfJFl+Obr3fkDXRO7p4ELEL7DbutWoW+HlrjqJ7jD2ueiD/8C1fQFKb6Sqv2QLRejmeIX26ydnIWegEHEHfkOiNz8ZzkN1KDtmoM9m11E+CjFGg57zkSh7cChiT/85/j6vIGO/Fx0ve6SF1ZFISRv5xxk6r33pORPvAmNJWxuH1y2lNhrIzpooZepmSwdBH9Q+dRwykO6a3hJ0b9xHer/jeFT2Caq58Cf8562DiFCzCEbK+wo5dUHJYZBgbJ+GN6KbizJdTyMHJt0Sh4GybKcl22FMOJdnhpRSmpNOAiZzxIDta6uoi6UXdC9btozHHnuMqVOdk4b/8pe/sMMOO3DIIW4BOv6MiJHZwNl4SzK74V8WHISyAUehNdVN+tuEjP4KdH0ma51ejta1UmS8v0tCifDHtG/A81CZ4XIU5U8lM35BZ+EQ9Bns308L+q4f7ooT6GpjX4xu5v1d299CaZsup0inQAFiL5+ODPWv4/+mwkgUEZ1HsIX3+/gPhRiKhEAqETFlb8Tsj6K+7dsRecpaDKejNGhXOEqbUVta2i/f6PcDIxQ7ADM0BcyeOPkuEOa3tXL4yqWsCrYoR9Fvd28H3jIHLQA/x5tOb0Xp0WdQ+nQB7ado78DbFeKH5WjI05okz79MsLnwLUixbFaKfXJRu9UuyBHdH28XQRR9ztvi750pWzknfoykuhWlOWH+O6SU0eF05fg7hu83rODxDYop8vPzKSoqYuXKlSlf8/DDD3PkkUeyzTbbsH59ojR+0kkn8dBDDzF69GiqqxNcswGh0Mo1sX3LDF7LVqfNYpxlnCYUZd9J8hJhGDmzB6GIfy+CrYN1iIxnzzSNQYb7bOR4voSywfPbOVYeIsGdiO6tLk2Vt4Px6Fq3dydEUZo/08mNgdGVxn446r+d4Nr+IFo43enw7sSuyNuai+pYfjOY7RiIjO2l6GJbh37UjchZSHbBz0MOhIFS82PiDzvRrwV5qo8hR6nB5zjDkOfcbTDBaBhZuYMRM6eAuQ8wBYx0lAG7HbNbmzmqrpY1sUABZQw5dpZQSEewR/xYR+GfGWlFfI4adG1tQGnAovj+Q1HLZhDxnrNR5sAPp6Cy0hxEnE0lsNKGFuda5DisRtmvAfHHSNQPnqwsvgY5KLeSPlfFjVz0mU5JtsPgUA7/G1rG2C429AD3rl/DTxuVqKmsrGTevHnU1tby/vvv8+yzz3LvvffS1ua00eeeey533303J554Io89luBQFhUVUVdXx49+9COmTZvmeM30wcMfPG5YyXnGnDkdbR8DGR8/xymKHNB/o6zk8hTH6Ida+I5Cv02yYOAnyJHwQxnKWPwAXUt/QOn99pi1YZQd+JT2HYSuxDCUudrdts1E5awbO/ONu8rYj0MR6WjbNhMxb61JWj0BBvKyJqG0mHtcrRshVI+5HtUIv0KL1wMk6oqHINZ0UGWqGCK7vIm+s1SlhtHoZnog4LG7FKrhR/c2TOIOgLEj6U3M6nJ80tLMCauW0RA87fooclaz0U5TiVjPZ9E5csXvoWjL734rRNdvX0SUu4j0xXSCYDESlrqD5NmFdDASZViSDsUZlpPDU4NLGZebySTcjmN+Wyu7LxdvzDAMmpqaKCxMtPs99dRTHHOMkxc3fPhwlixZwkMPPcRZZ53leO7ll19mxYoVnHaas1rxq8ISfl5YvMwwuC0nmnN7Ye3cjmRKf4WkaFMhhlL7T6N16jP8SzpFiHmfLOvSjNbQP5G8z30wujcuRdyNH5J6smNPRl9UBjzetf161KXTKegKY78rGl9onxLVjCKMR7rg/dPBLshI+w2vcWMSSqdPRqnMGxAxz28hPRy11CVbbWYhw/46YqimItiNRhfJCaiO9igpIpqehPrKykI2mXthMsUw2BulgXvcuNyvWls4dlUtK6LBDH4Y4+s2zHNoPwMUFAPR73s0SodmImHqRhR938kIUn9HrW8/QhyVfijCH52F965HZaf7UFSYabuhG6cjxyHpwKFITpgnhpRS0Q0RvR3bL6vafD0999xzHHaYs2Py4IMP5uWXnVyt22+/nV122YVvfcs532Xq1Kmcdtppnu175/fl6SGbJ7k2A/+OEbp1cM289zM45bNJv5UyikpOX5BQoxuMMld+9/kcVOaxMpnzaN+IF5K4Tmegen6q7EJPRQiVid0O0LU4pxlmDZ1t7HdDqXt7q8h6ROjoMhZillGI6vc/RCmiG5Bnmyw7MRxFSOfj35b1AYq2UlmWHdF3dgxynuy4BGUTtjiYkyblNixfPYmQOcUw2Qd9D6lGh3YZFra1ctKqZSwIztI3kfP6CzRBMVvoj4z0TqjevTOKvNO1XtNQzdMPu6Lr8Evk8Fo55WOQk5oOVqD7YSkqO8xCXSLZMvAgIuhvEZclKSrDuUwfXMrIcNeQ8VLBXre3UvR23HPPPZx3nltXBgoKCli3zpk0Kioq4uCDD2b6dKcCa75hUFU6hnxvl8EnJsZtzbEND5XW1gYlU56IAgkL56F781iUgu6I7WhFqXtLIfFctI6Vx59/EKXuU5FU+6HU/nko/d0js5vtwEAdaZe6tl+JysdZf7POwl6ItW73uptQ+9o7nfi+nYnvoQioBhl8axKeH/IRQeSXJDzXKiR36k5l16JF9UtEUixBtZ3JaKFP2kaEPOP2eku3CJhg1I8au50Rje1tGOyNyd4kFoAuR0Msyun1yzeLogSBARtNpZVvQRFONpGLsjrXk576YD0i5dX7PBdCGYndURbhFdfzL+CdPZ4KDUj97n9pvCYIchBb+8fAwe3t/K28Pjw0eDjFoZ7RHGKv2xcXF7Ns2TLy8xMND9XV1Ywc2dHhgPD0kFL2zk+aLFtmGFxcXL0giNreETg7hY4mMTCpDLUYHxx/pEPMXYscBvd1Zuna/wr1/Ncj/ZD7SV3m7YMM/o5oTc6mo91V+AMiI9oxFdmarKGzjP23UCrGXndciS6QjmqDdwe2QdHzINSD/EI7+++HCC7bxv9+DnEAXkHtc4/Q8fR1DN18bhGMTkVDeXkRLcZVGMYiA7PWNMxV0TazLi/UWldUU+NHHuwQnHV/Y18wJ9CFdf9m0+QXTat4cH3a5WUTpawfRIavIy2RI1G67zzSH4IDXl18Oy6MP/cC/mp86bTi2fEB6jR5lMx1HwyUyTgJMaxLU+8uHN23gH+UDPWLcLsN9ro9wO9//3t++UunlMHYsWOZP79jXLJfFpZwWWFx8h1MY1rJ0vnJMjx2HIyyshbWofLONJyDuELI0E5Gpc1JKAuVrPR0HcqGJjPgIdSaeiXSgngFXaNBWPjHIFJ1qg6RnorrUArfgomu+X9l6w06427YEdVS7DqUNeji6dLWsCzhLBTZ3I7/sAY7BiE1vrPjfz+FCIjuOuneKNWZ4q70xQYk+/tk/PVdrnm/csj4gnD+pmT9q60oM1FnGKw0TWOliVkXMlgVM1kRMoyVZtRcFTXMupx8VpQsXJi2EYg7G3thMgWDfdEi0+l1/8c2rOOnjXWsNzPKRsfQNfA8IjHNQfXJZG1SfVEJ7ADUrrYPmTs4s9B35FcmGoruyWKUEr0jyTHSEdlxYyNaD55HvfNzSC6zapEDd0N13kNJw7kJAZcVlvCLwuJulwb1w/bLFrMiruWQl5fH9OnTOeqoozY/f8YZZ/Dggw86XnP//fdz7bXXsmiRcyjhxIkTWbBggSfFf0iffjwy2C3fkIBh8qfipQuSaSzYkWw4TRRxi/6FpG797uFc1GY2CWV4j8aZnfwUsc/9hottPlXE4r+SRNR+E+1PpguTGKG7peEq9DkttKAZLJkqbDqQ7XuiEl0Idg+8Bi1WVVl+r85GMbrY5pBa9cnCGYhNOgjdBL9FF3Uy7I1a6lIt4svix/gQ/eDv0gNaFBsiFVGyI57TAtSBsQrM5WCsMg3qDMxVpsnKzc4BsVW54ejKgUuWNLoPYFZW5jdsMCcZIXMfCO0N7NVZ/f7z2lr5fv0KZrdm5SdoQb/vRmT8NqEFcRtSEM7ShImyTMmc1PtJjOSsRobWr6ugADkFZT7PpYsYIlTVx98rDy3Qw0k92jQlBoRC/KNkKIf16Z+FU+wcnNewgic2JL7eUCjECSecwDHHHMOoUaOYPn06N998s+M1H3/8MTNnzuSCC5w8rqlTp7L77rtz+umnO7YPDuUwt3R0irMw/lBSM/+KAKe7G8rOpEIzCjruRZmhZAY2B613xyFSpRXk/AfV7tsbTnMoMvoFqET0eTv7b8m4Dafw2mqUKf+6owfOprEfQkLr2EIdEgzZEn+cAoK1U41Fqa39UHr+dySXIbWO+xNEQLETF+tR1D4TORcfkzz1G0Ys6dx23qtT0BCpaKSLhpW4YGUOVplQZ4gMtsrAlJNgsgJCDTHDHGaYTEJ16Cmkp1efEs2myRVNq7g3/bR+d+B+lJnyw34kNB4s3IQIhn6wevB7HHbJy+eukmGM6WbGfXuYtq6JK5v8aBPJ8cADD3D44YczdOhQh6Tu0UcfzX/+8x+GDx/OqlXODruPtxmZQjgosLHfEWfrsaU7sm/84cc7ehSJ7qRak/ohhcNLULp/HeKg/IX2paL3Q9fn6yiwyibps6cgB+mpHG3b9hXKdHVIBj1b7JU8ZOjshn4Nioy3REMP7Rv6ECILzURZi+1QlJTsQjfiz89HNauByHDdgcoE2yAC4O+Ql2w39GF0g/0OqQ2uQWng7lp8u0V7Hzk3w4EdDTmRpwCXmhjXYxq3mRj/MTFnGOZmVvzeZHlByDcMbi4ewhPdoMSWJtbgJf1YyEURhNvZ/zFODXQ7HqZ9BckuhQFcMmAgzw8p6/GGHmDH3HRpD4rsS0pK2HPPPR3bZ82aRTgc5qCDvGKHn6XIPJnB57W7RzB/hurKB6K16lzERbHerBQFMXMQsS+ZCuMG5BBMjB/rTVT6/Jh2uiuQkT8y/pqf45Wb3hoQRdLjdru5HXLcOxScZ8vY/wOn5GcLYlxm0t+5JWA0qkHugC7a76P+0mTYAS2U9yOW/ZuIdFSKaqUv4e/VTkADd5ahC/0KFKmG8H7nXQYD86cEXzS6EzkE14tPC/vl9+WdYSP40YCBhHtkhZgbSN5//FP8J8yFUZYq2bowlfQH9XQKRodzeWpIKTcUDSK3BxHxUmFibr7jSnnnnXe47bbbOPHEEzdPwXPjk0/EZz7gAKdm0JIlS6irq2P//ff3vCbVFEeDmNuIJ4P7IHZPZRXqwT8SGf7vo/UthgzSEai1+hMUxSe7nmYgDZLd0KyP1+PHTdV9BBKH+mP8/1vGj58e1iP7aQ+qjkbdCRkjG8b+fJyzlE0kCJIVUkEPxDGIHXo+YkhXpdi3H2qr+ATVXe5Gfcz7IrlJP7JJQfzY7yBd55+QuPitOeij4+fgqWF3BYprFj5uGMYJbBkGv9PQxzC4tmgQM4ZF2DUv/aitE/EVYk77YRQaH50Me+EdUmXhc7pZ0yEE/KCgiLeGRVK1mPVIDAiFKLdlIEKhEBdddBGPPvooK1as4K9//Su5uc4Mxfvvv09zczN77+0Nej/66CN22WUXz/YOjGxOhWR8iia0rh2IukZ+TiIq3Rl1o3yGHINkmImkbXdFuhJfkuCSpMIyeo76arYxH0X49szkb0ieeWsXHTX2O+HVNLZEZrZGlCCv8pdI9jMVjkZ91pegnuty5AEnawspQGnXKpTat/J269ENczDSzb+eHqAYVVw9/2kwj6V9jeqtHuNz83hxaIRpJUN7hIALEnxKxlq21PFS4Q8kJ+NdQzddf5Py+vDS0Ai/HziYfkbP6J9PF/ZU/scff7z5/+FwmKlTp3qIeBs3buTFF19k/PjxnmM999xzbL/99p7ts1MaeyPTstZE2u8eWopq6Tsip/EeVA61BsC8hmrPyfApEvPZF7WBPoNzGM83Dc/itK/5qAsio8iiI3dMH1Snty8cz9FJUn89BA20v9CVopa7B9APMwalX5K1yfWLP78QLbJWy+InqD+6DHm5L9PDCCklNQufNQ3jGNIbcbpVIgSc1G8AHwwbye8HDmZIqNtGADxG8qzaUTiJP8lQSPIIfg2Zt+FlhKE5OfyteAgvDC1jl56VQUkbO9vOf+ZM78TYww8/3LPt/PPP59xzz/Vsf/jhh3nrrbcc4jwAS9paWZesRdQwg459dTvxU1CAczMSBmsP7yJdiDIkbbsYEezeQeXMVEqZX6L0/0/R2ngBW2e6Pgh+hZMoOYHkJNqU6MgX6O69XYj6ebsltdxDcA7qlbwfRVCpvoswSsVfSaKXeB0i3d2J/+xoP+zsrtpJAAAgAElEQVSCCH5/pJtSWk1l5QfFDONp2o8YvzFYb8a4de1qblvXFHSKXjawAamP+SkqZqJ1fxxiBrthIN5JstnkWUFhKMQlBQO5aEAR/bfQSN6N15s3cmydJsROnDiRWbOcib66ujqGDs24A3EzXhhaxm55Pro2hnlxSfXCZAJLdhShFL0fWhEJ705EJg5ygecihbxfoMi/HqX876P9dWs0Kgm8gf/Uz60dO6IOLavGk+o+T4pMjf2uiHxn5Sw3ofRMqr7yrRkjUFRu1UrbY6vviYhQE+N/f4hunIcJPj1tf0TYs6RM/xD/u1vQGKnczyT2PzB6bqNzN2CdGeNf69fyj3WrqQqus58pviAhaerGeFLXTf3QghTMqpHMqZ2cV4mcgayjMBTivP5FXDygiEHdlyHpFDTEolTWVgFK3a9Zs4a+fZ3cg6FDh1JX1xHBRfhz8RDO6l/ofSI7xt6OJcBdKGUfRKrWQKS8y5H+yuuIIxKkjzyfHqAz0k1wS+o+QpoD0DI19m/h9OqvQ7XkbyKmIO7Cv2h/ZGcJyoh8P/73k+hH/DDge+Uj8uNUxGB1I5UsaqejYWT53sSM/6E0cC9siAHPblzPtHVNvJuG1v43CUNzcriwYCDn9S9kQA/RtO8M7LyimiXxuvqrr77qYdrvvffevP3225v/7tOnD9/97nf597//jWk6g+CioiJWr/bGFucXFHHjQD9Su3l6Sc3CIBKsQY29hShqxbsTlXODKNjtiQzYt1GgcgtbL+GuoyhAzrxVQokhBz6wKm0mbvOxOGsGXyNVpC1RnrCjyEXCLu0p2xlI+elplAG5HzEtb0NiFO1hOPrOH4gfJxl56lDgbdTG0uW4cXXjkssGDHrdMDie7Ixl3WpgAONy8zitfyHf6duffMNgSVsbG8zetW3P/D5cVzSIvxQPYUp+3x6lad8ZeGPTRubHszwLFy5kwIABFBYWbp5x/+abbzrS+9FolFmzZtHS0sJbb73lONbNN9/MoEGD+Oyzzxzb8wyD0/wie/jPjWsaZwc4zT44y7RrUHtxslp7CM0CORX14Bej0m6qLGcNilCfQEGM1cIXNLv5TUILank8Nv63gRyAp4IeIN27ykDtYBY11ERe2dbaZpcNDEdyknsir/dmgqW7clG665z4v0FVQ5YRcGBIKpjsH15bWjuwsHbuqvb3dmLViPLdQqbhHm3cCxfaMJmxaSPTN6zlvxvXs/EbZPiH54Q5sV8BJ/YbwPa5nSKF0GNx7ep6/r7WGTQbhsGECROYOHEi77zzDgsXLnQ8P2/ePJqbm5kwYYJj+3XXXccZZ5xBRUWFY3thKERV6RjvmxvmqSXVCx8OcJp9cArrzEYZzOFozT8GMeZT8XRiyDbciYxSeyn40YjU9x7Zn5q4NSCMontr4mUL+j0C8RjSzZUdQsLQg3rFew19chyHvp830YX8M9o39Dsih6AGpfm/S2pDvxhn6qvj7B6gMVJ9YVsoWtMQKb/cTDMDNLh64YehmHEQGN9EMk1ghDE4uE8//lEyjLmlo7mjZBgn9Ctg8FZWp7YwPCfMuQWFPDmklNnDR3Ft0aBvnKEHqPBR+zNNk9mzZ/Pggw96DD3A3LlzGT9+vEd8Z968eZSXlzN69GjH9jWxGMuiPvpHsXZLjRbctSYr2l6GMozHoSj/ONQa7JfyDyHH4FGUwfwLWt+SoQq4GpU1M5nuuLXCardoA260bc9D4myBkK6x/4nt/zG+uXX69lCIWhBHoMlPvyG191WC+vFnojaLn5DcaK8BpiMhowhyIuy5vRyykEI3DGMJkA/GHxojFW82jdrWJ0xIjoG18z82TOMgOjba9RuD/kaI4/sV8I+SYXxVOppXhka4qqiEvfL79lSFvnaRaxjskd+HywuLeXlohM+Hj+KmgUPYN79v1qQ7t0SMDSccnLy8PHbeeWf690/Na509W5l3d1/93LlzAZg8ebLnNVVtPsbeyLjP3q9MuwF1a5yBjPPRqJvILw1fglrwPkMDdk4geRCxkh6gJdKDUETCSXoE59TITjH2ZUjYxcKzdMMQli0A+Yhl/xvkySbrQTeQfvS/kdf7d+QY+KEOEe8ORt70CahlxcoSzHHt32FGfFNO24skCId7xqJtHzZEyr1NwClQvHTeLAwONHXz9iIgQmi4y08HFPPfIaVUlY3mv0NK+XXRII7tV9BThHs8KAyFOKBPPy4rLObRwcNZWDqaZ4eUcXlhCbvm5W+hLkv2YY/s8/Pz+eSTT2hqauLdd9/l8ssvZ/BgL7HOEuDZdtttHds///xzotEoEydO9LxmoV/3Ryhwn70b7WUEmlEnyGkoUDkJ1eL9WlB2Q+veV2jCWy+/JzVWorkBpcjQP2F77lsElARPZ9U4DqdzcE/83xy+meS8ZGgm9dz7/ojQOBV/fXILDehHfRSVAlJ9x+7SQH/Ux5oxxlRVbWqIVDyCBC0ABoHxTH2k8tclNfNvMAIK/JRUL/h81aix+xvR2Kv0puYyQj8jxF75fdnLJg9bF4syu6WZ+W2tLIw/FrW1siTaRmsn1/4HhXIYGQ4zOpzLDuE8tsvNY4fcPEaHc3sNegAMzcmhKJTD6liUtWvX0tjYSHFxMXvssQd77LEHp512Gjvt5FRF/eADTZsdN26cY/vGjRv54osvKC310nQW+Rh7MxrKdLZBOhfVRmTM/43u+fNQet6tiFSJSMrXoZblaXwz++iD4F+I+3AyIjFas437IA2C9sYRp2Xsj7D9fyOK7A3gUrySub3wYhiq2Z9PcuLaakRkeRQNxwnamO0W7wnU+lZfVrnHoKXz30v2vBky/mrEzPNJEDlDBua1jZGKb60xc08vXPpVIIdi8OJ5X9aVjtk/JxR6lSyQB3sBQ0I5HNinn2cSUhsmNW1t1MeiNMVirI7FaIrFWGvG2GDGaLE5Amtisc0eW0EotHkxCGFQGAqRbxgMDIX0MHIYGAoRCYcp2EoEbroTFeEwH7fIf583bx6777775ud23HFHJkyYwOefJwafVVVV8corr3h68gFmzJhBZWWlZ/uiqHf5MIzYes9Gf7gNc6aTLpejwCOV9OFQlAn9JfBX1I78TWbkh/AGU2tQ59t3cSrqAYwji8Y+hNIFFt5CEewFdFOb1xaEkcBlqB0l2eSOt5HX9m+8oyWDwG3sA6XxDcwf1ZWVNwxZunCu3/ODlsz/oiFS8TzwHddTh7XROrNpRPkJA6sXBlL6G1K76OvVkYr9ospSBJHb7EUGCGMwOpzL6MDNG73oDlSEc/m4ReT0N954w2HsAXbbbTeHsQf49re/jeHTlnj99dczaZK3AugX2cdisaABhDu1nmmt/3TUP2/HWlR7PhHVoy0UIEXRc0kokfaIKYtdjGGodfEL1/Z7kPDaBa7tgwiAoC56Bc4fZQ6KHs8muWLXNx0j0TSoeWgwSTJDPxeVSO4jM0MPXmM/IMiLTIyNORh3mymuAwPjj0meGB0zjTfrIxXnBz3JopoF80M54f1of4hQL3qxVWOcjaT36qvehiZ3Gt+CW1QHoKGhgZdeesmz3c/YhwhlOscik1r/aajt2E7Eq0MT8i5ABOMr8JYch6O181PU3vdNwzLkCLk1DapQZ5bbswtUsw9q7N2Th6pQyuVhvB6fgb+62zcFg9Hkp7nIQ3X/EJ/g7DcdhzIlozvwnm5jX+S7lwuhUKwJg72bIhU/TLZPcc3819A5+6GPAXfUl1Xes2j06EAkm4GLv15kRGP7gdmbEerFNxb2UbcvvfTSZla9hREjOp78Wh2L0RBzUn3a8mKZzr9NN8L+AYrM7YZ+MZpoZ2UD16GUfTmq27tLBTsgNb7nSM1v2hrxAPr+3Db6ZTQcx45AWihBjb3fQn4Bikbd+CVSWvqmoR9KQc1D05rcNapPUGvKrigtbme3VqJpUBPIDBkZezAaAUz4XarWOtNw9HZ6j2KY5xS15bzT6G72TYLiZYsWmzFjP1PfVS968Y3DWJu+QFtbGyeddBIrVyaaVgYN8mZmv//973PxxRd7tofDYU499VTf93Ez8sOhUNDsods2BK31g9a/aa5jfIEY5X7yrmtQG/cYFCi5HYvD0Pp5PRmOd90CsQBlUy50bf+ShKiOhUCl1KDG3t06dRYagOBuxzgbGb1vGqPyRPQj/AYv+e4L1Co3iUTJYwZwAJLatTAcTXXak/ThFrQIZOxNDCt9VmDG2u4wkygqllSP+A/tT1jaxWzLmbmqtPzbQd57UO2C6pgR3p9gAzB60YutCmU5TrrUrFmz2Hbbbbnkkku47777eOONNzyvGTBgAH/72988ann9+/fnwQcfZIcdvMHvIlevfXEoFHQwQ6BSoA+uQQbbvpa8j4be1LTz2kY0CW8iWiPtyIsfexZyGrYm9MN/7b0NOTj2ErBbKn12/NEughr7z3D2i++C0tR2jAFuAv4c8JhbA8aji/JRvKWOZYh5PxGJ4LiLbR+ji7bKtq0YpWnchLj2kBEb34wl0j+mybcbIpXeodmAwWtthmkG+V0HhULG8w2RisuSOQ52DKn+urYtHN0fs1evoRffLBSHQvR1dTU0NTVx6623cvbZZ3Pttdd6XlNdXU1OTg6HHHKIY/vatWtpbW3lpJO8+iruSYvG/PmdNTXOQOpubqG1F5GeSDoB4Beorn8yXgdhOxQU3c7WI8fdjIiMbnv8Gvrejon/3Q/ZFDt+G/RNghp7SzDBDrfC22+QmtI3IaovQC0is9CoWTvWoZ7ScWj0Y6pa13xgL5yeWT8kk+ufl/NHC840W7DI3ow5fisD80/1ZZURv31bW/reFVD+Nge4sWlExaMrh4wvaG/noVVVy3Pb2B/4vL19e9GLrQllOYlytlvz3g+LF4vX6lbRi8ViVFdXs9tuXqpUtVMyN1MCcHvIAW5FXUd2PAIcRXolADseRXPbb0RrnAUDcQLmAN/L8Ng9CVHUOvcnn+feISFmdyVObtebqIMrENJpmHX30u9JIqVQghjlf/V53dbWV/0dZJim4m1dfBR5nr8heJ/oMmA/1H5nIQ8RNC5J47zs0X0gYx8OG55avxGK3ea379C6OesMYn8LejKmyQnh/E3vro5UeBuAXRiwYsHKcCznADBntbdvL3qxtcCeyn/wwQd57733+Pvf/86BBx7o22L3xRdfEI1GPSp6INnc7bbbzrN9udPYZ8rET4V8ZNQvcm2/FbHxMyUEWliHeGC7ogE5dpQC/0EGr4QtG18jp+gc1/aPgMloCJF92mwLsg+BxY7SMfbvoYjTQh8UwYIG5MzGK9u6IxqEsDVgCBr48CwwyvXcV+hznkywiXZuNKLv8L+2bSEkoXtdwGPY21eCEfSMsDdSN42jGiKVp/vsDeHYX2lfNtOOCVEIJLNbWDt3VQ4tB2HwcRrH70UvtlhEbLLHS5Ys4Vvf+haXXHIJr7zyCjNnzmTIEGfn1fr165k7d65nO8DMmTMZOXIkeXnO5h+HsTfTap8LUrMfgNbD413br0eGKNPefD/MAaaguSHuTMEJKAA7wv2iLQw3oejdzs5sQAHkXTgHol2DV1wnJdKVwvopzmlI5yHi2f54CRXDUKT/UJrv0RNxIqojneba3ox+nInAKx18jw0oJfWAa/u1yEtubxRa2pF9y4ZwkiE15p/XDqvwDOIprqpqAsM38k+BgWA80zii4ur26vhFNTUNRk70IENTr3rRi60a9sh+yRIn/3XXXXflBz/4gec1r732GgUF3urY+++/T05OjkdJb0XU1npnpGXs27MNw9CabxdxNJGRvy6N90kHMRKT89zCAsNRsHQXmZMLuxJ+o4GbUJvhmbZtpcjI22s0byHHIC2ka+wXkYjmQWns+5Cxdwul3IJGtW7JCkjFSJP4UdQ/b8dM5Oj8jo6nqiy0ok4Hd8nk4vg5pOpltxv7QIpKQ+vmrMP/3Ae35Zq3+r0mt42bST8dGDJNbmgsq3iyvrIyJXmwuKqqycwzDwbeTfM9etGLLQp2Y19VVeV53k9Y58Ybb2TatGme7S+++CILFixg+PDhju11sWhCItnMWPIWnLM5ypHBmeR6/iwUmHQ2FgGHIh0TdynyPCTGs1cXnEdH8B38x/1ORyVxC4e6nl+Nvue059FkInL9Z8SGtDAe2BanIdoBMfb/l+QYW8LA7oNRmsRNlLOi+T3xli2yAROlqn6Fsx5zHPA8yRmo9oveOzYrOXxJdybG8Y2Rcg/5ZcDy+XWmYdyRxvETMDja2GR+sGrU2O1T7VaycOHq6KbwoZiO0b296MVWhVKbsbfId3ZEIl6u7OLFi/nzn72NMa2trWy//fa89tprnueWW9F9epG9u5/d4iDtjPhF9hRCC0qlu7OSnQkT+CeyNU+7nhsDvI7W6Z46yOFJ4I8oI2HHhyT66PdCnQwWTOTgLMzkDTP5IiwPzt3bfYDt/2ejFjI3ecBA9Z1s1nKyjT6o/PACknO0YyYiS/yOzs9Y/B4JF9k9uP2Qo+XutYQMIvs4kjLsTYxbV0ciHuJLjJz/w6kCmA62DUVj7zWOqDgm1U5DVn29tqWt/2Hopu1FL7Y62CP7+fPne54fMCC9bHRrayvRqDfgWx6LL1VmWnwbvyzifih1b59euQEx7p/w2b8rsBwNh7kAJyk6jIjSL+O/XnY3oqjk4E7TbECO1jDkPNlLnzejjreMkKnXU4UMut2Yf4fEsJwD8BdL+XV8e+fO4Mwc26H08VScX7I9mu/KFrG7kMdsN6w7Is/aTb21G/t+BJ8RnaRuD8A2USPfE0YMqf66FoN/Bjy+HwpNk8cbyip+k0qXf5sVn63fFNt4uNlxPkQvetHjYDf2CxZ4RUcLC70Vr/z8fF/WPcDIkW6pD8Ei6RnpRfbumvIheDOLa9C6/2Iax+0s3ImyyW7G/gEorZ+udkm2Md5n2+MoQzLZti2MRHTmoXKJhbfQHIGM0ZEUx1MoDWE/1sPIIxmP14gcEX8ukNpPN+AslELZ2bW9K6N5PzyBV153FPrx7Wp77gg9UHRvtqeLYHJmQ6TCc6MYOdEb6dj3YWBwZWOk4r9NI0cWJ9uptLZ2Q3Ns49Eo09KLXmw1GBAKMSCkJXjNmjXce++9fPXVV8RiSnz6jbMtLy/npZdeIj/fqxr7xBNPMGzYMM/22s1pfDMdY+8em3gAzgCiHqWYvVJ/3Yf5SKnvOpxr0yBE3ruG7kvr90UZEDtMRGA/z7ZtImq9tqd1VgInEXzkuS86+sGvRCo/FsagEaZ9caZUcpBgwK99jhFoYk8nogCRDO+N/99CFF00XR3N+8FivdrldQehFNWR8b/dRtvbn+ODEGYQoZw73MS64qqqKtPkwSDv0Q6+E4vlftgQGeM/5gsZ/OI+xndRm08verHVYFgoQV8655xz2H777Rk8eDCHH364r4pefn4+kUiEAw880PNc3759mTp1qme7FdnHzFA6afxUNQRLGySQJnsXow21/k1Bxt9CKL79abpHeW8m6uZy69o/ibcEbkcUOAWo7egJdNTYR1Fvuf1ELIFmuxd4ICIVuPXV++H8oF2NbZFy0Zmu7UtQh8H19Jxugo/QxKgq27Z+KPK/BK+xDyQyYQZTxYsYzaZn1G0M8/dkh39RAcY79SMqvHqfcRjz5zcXF/U5FtNDxulFL7ZYDM7xcpUbGxt57rnnfFn3a9cqON933309z9XV1bHHHnt4tq/ILLJPRqKuQYa+M8jJ2cQHKCPrVn49Ahlev7R6Z2MaCiztJeIvEaegAJVo3f2W16AAusPIRkpjBTL4bqNov+qOwJuGNRARzl1j6SochQY0uJnhj6NUfk9kgs9FHqs90xDGX3wnqKJUoPGImFzQVFbhCCeGLF04F7UEZgFGf8Pk4YZIxf+ZSRYaY86cluKBfU4wO0BS2RIwbd1qrl9dz8Mb1vJJSzPrzJ7MZ02OtbEYH7Zs4v71a/hV0yruWZdOYPnNwGBbZL/tttu2O9rWMvZ+KnqrVq1i3Lhx3u3xMbdGeqI6fi2yy1BwtqVMq1yNyHvX4+SJVaD1/SC/F3UiXkc2105ONoFqNPH0XzjLJ48jonZWkK36xZtI0tCO80mQyCpQZGrHVPQhO9L7mQkMJFTzFE7xmWbgh6jFzd272ZNQizxrdx+6u680YM0+UGQPYMQM7lg+bKf+riP8nuwRLg3g5w2RihfWlI7zbR805sxpKRk28GSM4JrQWxo+adnEX9c28cOGlRy0soZRSxex8/LFnLBq2Waj+UbzRmqjPSPptCoW5a3mjfxz/Rp+2bSK41YtY6dlixlVu4hDVy7lx4113L5uNV+0ddYMli0XxTZjf/bZZ7NkyRI+/fRTrr76asrKvCTyuro6Nm3axKhRbhFPGftIJOKp9a+OcwBM03B3UKWCWwq8HrUje9sGejZMFAgdg5P3NBAJ2Hy/E9/br0R9P84aPShDey/OvvvZwBlkkczu/kE7gptR2uTk+N/9kEDAFNSqYY8gByFmYabz2zNFIWpnONq1fQky8j2xBuWHBiTPO53kLFOPAp4fQsQazPYH1FmoyM1d/1vgx9aGkpqFsxsiFU/h9FY7BAMOagtFZzaVVn5vYO18j3yu8dFHrSac2hipsOpZWys+DUG+CZVL2trCS9raPG0JBUaIinAuI8JhIjlhRoZzieSEGREOs00oTHEoRJ6PznpQtGFSH42xKhalNtrGkrZWquL/Lm5rY0m0laaYf+bBgDYT5oQx8tsw/Snk33AMtaXxm5vlDO20007stNNOXHXVVeyzzz588MEHm/cxTZNFixZRXOzltC5fvhwQi3/jxsTMm6Z4ZE/I0y6dCi6nnh/R81P3qfA0sDuqkVvXYi5i8Y/CKRaXLeyM1mG7DPqLwB9QYGMiTRRLJc9CHbJRWZ1lkE1jbyKPxd5KYI2A3Q6nzO6paJqPO4VciXSPl2XxvOzH/i+q09vxPBovWO95Rc/GBpSiuhf/CXleWq4vQg3pOI8GXFJfVvnooKXzN2cWQob525hpZM3YxzEqFjLfbiyrvKB46XyPWIcBUbNmwRmNkYo25AFvjXgkpoUhjNpwLAGr7QwYb8C268zYgE9bm/m0NXnUPCAUYlAoh0GhHAoMA8OAIkNGJtcQ6SJqwlozRtQ0WWearDVj1Eej1MfaF+oKQVNMJab5iJvzFfC5qXpkS5uyP+7MXy+AEltkv2mTc9R8Xl4eRx55pMPYA3z99dfss88+nmNZvfr9+zvtdCKyj6Zj7N10/7NRJvZNem7rdHv4GrWH34/WTgtXoUDwx2T3s32ASMXvkbB1C9F3W4Hul8txGnpLoKgqi+cBZNfYgwzQsehDWspAu8T/LSPxAY7GW3ctQIu2l4LaceyMjLrdAJpIdOE6erbITyq0IkdlFSqL2LGNd3cvYiHqjPQ+fY5hcM+i0aN3GVNVtQlgYPXCmQ2RihfwSjt2FH1Mw7y/PlIxuWTYwJ8bH33kaD2JG/xzGkZUxAyTs7L83j0JbciYzrU2mGxelYrR2EvrMQoYnQPDcwxjWNQ0B6+NxfqvjcWoyqBzJ4yxNmRQ22qai0yVkKrRsCfr/9Wxnl326tEYFEpUUtes8XIa3Fr3ANdddx3f+Y43offiiy/y2muvsW6dc+BmU5zzkYtnymUquHU6vh1/LEBT5v6DtzS7JWANslF/wDmSdyrKZvyADKRoU+AOZNCtiXWx+DlMQLyqH7v2n0onCYll29iD2JrHohO2e4cnIDGYEBL1d6dN/oKkeLONffC2W2xEsoOPdML7dTUKUAveMYBdVcMtw+iLvBZWtqZ9FZjbFUVD1yBJX8GI/RYzlG1jr0PD1MYVjTuvGDPmxGGLFq1wPRc1qxec2xSpjJqY53bG+/dwNMYfn9g3RoGouTlIyUPpwsHx/1v3QgGJqKINWGv7dy1Q04a5YYuN47YADLFF9g0NXvqMn1DOp59+yqeffurZvmLFCg44wNvc1GqabDBjFEVz0ons/Qa1gCLSK+KPz5ExuxfSIv91N0xkgKuR3bF+hPPQ/XEW6Uf4YZTBdrdpP41azq8kMYdkA3IqdsRpg28D/pHm+wZGZwkMvI8IenZcggge5YgYZxeD3gV5VdmuCR2BV/XJIrhtqYbeQN/XlYhR2oAuKPeqEKhmP2D5/DoyEWswjV80jazYPAijpHrRmyjF10kw9s1tDX20KjL2W55nIDawZv730cLTCy9a0HX/GeKlvBx/PAk8Fn88Ed/2GorY5tI58897YYOdoFdf760kDhqUjvJ1cjTFYhQsj6QT2btFdfwwAfgbGkzzS5w6JVsCbkETTe01sDNQd1O6aEOaLO7hNjGk4GcXQOsLHIZTxncGmonSaehMNaEHgP+z/Z2DFhWrvmx3Y3+C2vCyiVPRAmb3UD9HNZstcYSqRSKZB3yMShBTSJ6dSUcPekX7u3gQjsW416ys3Jy9MaUy2JkoCxF7vT5S4XYkMcAsrllwIQa3d/I59KIXWYOdoOdn7Pv18wbYO+20E5MnT/ZsB2+9fvOxo9E2g9fSad/wE9V5Psm+g1CL2EKUrvY/iZ6Jx1FWdKNt2w/R+pouHkKRubtt8WsSff1D8AqeLUQKedmanuqLzpYOvALn5Lsi1PMICW8qF0kEuvvtc/DOjw+K7yISht07fQ9F9DUZHrO7sBvqZZ8P3IDSaEHQl4BznU0Nk8gEExqbzWusPwbVLHiezq/j5RtwR8OIitvtjgbEDX71gouRx96LXvR4DLJF9p999hkHH3wwt9xyC4sWLUr6msmTJ/P888/7DsqZOXMmJSVeiY0mM5Zu36NXq1fiY3fH//8R3tr2ECShvhC4kJ47cc6N55HNsGeyrkTDddLBekQCdwuQrUGMexAZ0I7VyNlINaMkK+jsHyOKDPYXPs9Z3s14lAZy4//wKu4FwYGIQGIXZnkJkUuC9pT3BOyE0vMfoFRTe5V190UEAev2hmFm3v1gcpk9nSSg1zQAACAASURBVG9gdnZ0b73vDxo3mTNWRcY5MhjxCH+qmf1MUS96kXXkGwb9DC3DbW1tvPzyy1x66aWUl5czduxYfvSjH3les379egYNGsQRRxzheW748OEcd9xxnu0N0Wi6pTo/UZ0BqMYNKslOxr9zaihSi3sfBStbAl5CPff2Wv3fUYCYDN4BBaq7nwTY1ZFaUKb5XziJ1FHkQHXJvJiu8LwsFSN3vchiQo7Ha4SnIJGYdGvA26O0jF3M4NX4+69P81jdheEoK/EJ3sEJoPp6G7pQDkJEyDn4z5IOxMg3TCOTNL6FcCzGP83x4/MABtYsfJKu68fdM0R0ZsPI8r3tGw0wB9Us+LFhmjd30Xn0ohcZY4iPZC6ole7JJ5/0bLdU9PxS+evWrWOvvdz6WtBkBuihdMLP2FeiUugnKKiahXQuTHTPu7MHk1FG9XaCK3p2FvrQfmnzYZylyDxUei73353voW4YO5pQL709K12M5sa4W6R/BF0n/91VaZb5iI1vv+B+hr6Q0Th78EH1n2Rkq2QXzWD0xdlV8d5HP8hG31f0LITRj/8lIon4/TY3oM85D7W+vIq87TfwZ88G6rWPYXR0yMKODaubrwSR5eKqel2FbYgZrzZEKi5xP1G8dOHP8KbUetGLHoUBNtGj66+/nksuucS35c7CqlVq2R4yxDvrat26db6vXRsz02WX2429ld6eGP/3frSugoKN+xG5czQaeGbnBoQQ8/xr4BwIruCVZWxC0fY1wKQU+12N1FUtDEFkbj/C4n+BW/Eq5b2FU+zMz1mYFn9tl6ErayqvAJfa/jaAe1Cbnp3QUYH64v3kUC/E6z1ax7oXeZ4WvkSRcVfL8WaCvVEN7C84nRWQ99yGLo5rUepoHGpTzIn//038L8ZSn20eGEZGBD3nMTCvaCwbuzNAcc3IR1E/blchF/h7/YiKexeNHu3oDy6pWXA5Rpc6H73oRVootNXtDzroIP7+978zb948Zs6cyZ577unZ31LK69PH3QoPy5YtIxKJeLavM6PpNtjajf1sRAq2jOQDKLK39vkVMv7rgJ+jrKw7vT8Yrfdv0T1DaEBZhhsRE/7p+L9u58NEQag9tb4bCrTcWIvS/ze6tleRUOkrRWl9O57FaQu7BF1NoJiGWjUs5KELyN42dgSqUzuVIWTo5uGfjr80/joL9Ui4JxXpYRzdM+rQjmFoCtIbqEZvxxJ0A52PPo/V0/491E3wHipbFKB2Kj8d5kCRvWHGMiXo2ZFrGtF/mpMm5Rq81mZ6b4BOh2FyVlFbzlsNpeWONsSS6oW/Ms2M2LW96EWnwx7Zx2zSw5MmTeLRRx8lFHIu07W1tTQ3N7N+vXcpXL58OYWF3gz8BtNMN6K2Bx21KJg6DDnW9SjaPc32/J0oGAOtT/ui9dfdf78XCmyuonN0XtpDM/BbtK4eFT+Xs3HW39ejddZ+7r/Af0LrvxDBzt5y14p4CwXoe7K3JM5G6fxsCvcEQnewJX+Kt04xhQShYSxeQt9eSCbULQ0OMpL2VG0LIrT5DWwIox/xJtQuko7IRDZhABcjWdEz8XqXT6KU2RPoIrucxLmeRKIPdA/EhZiPfxQfTEXPDGVJntjYuWlF4xUAJUV97kNKa12NSYSMme4JfYOWLrjawOwMdcZe9KJDGGAz5suWOW/FESNGeMbWtrW18eqrr3r2BZgzZw4FBd52942mmc5aH8JpoFahtrK+yIiDMovn2Pb5E3A8CRb/fCROcy7woOv4+Uho5kOUxe0OrEAtdqcBh6MurZtIyKnPR9owFnJQJ4L7y21BAdtPXfuCHAG7rvHK+Ht1S7a5O4y9NbzErviVi1JDechouQ31bTh79i30Q6QKu1f2S7zzf4ehyPgd5HH9Eu/UuK7CWCRcciv+mYW/IIekCZUlxpAg341DF+P0+N+HoVqZScLY21m3gdj4OTmhDqfxLZgYVzZEync05sxpMUzzpmwdN00MiRm8UD+i4mf2jcU1C2/A8O1a6EUvug2FNmM/b553euxOO7mTfnDEEUdwzTXXeLbfddddXHzxxZ7tG2NpRfbu1EAbiuafQGVXUOZxDrB//O8NKGtrdwCeQzbmTGTk3N1VO6Ms7q/xz0xmggK8WdJU+BIFh4ei1PuXSOn1x2idfs227xiUFXDjFZRZtn5Ii1dmH7i2If53t7V+d1cfpN8H3w/V6cfjbH/YB6X0HXKgcfwJ2MH293MkWkNAAjoPoLp3NP4et+MkkHQVwqie9SkJ79hCE+pOuBd5iNbn/1n8NVZu73yULmtB7NJDSegYDEff59e24wZK46+Nbcjm4KE8MP5psn94o7npDrqgfzQJwobJTQ1lFQ/bx/KWVC/4LZhXdNM59aIXHgwwEsvwjBkzPM/7Seaapkk06s0EL1++nLvvvtuzfb0ZDaKIZ8Ft7C0C9R9RCtqK3m9ApGILD6Nso/29nkTr0HNIce9WnLNIclFK/2M0la6jWIe6u65EROegTsTHwJHArsgpuQmpvLrX6kvQZ7TjM0Tks8ZyH+l63kRZjvcDnkunoDtFD2qQt2ef/vBdFLnaiXbHowvGjQMRy9PCGpQyKkZiCB8CLyCyxPaohtxdrPwdkbf4fzjFKkxk4MchD/diEoZ+GPJS34j/3Rd51Vb/+MHxf62BQuNRRsNuuANF9iNqajaS3dTSpMaymstKa2s3YBqdMe8gOAxOzsvd8HbTyHGbGbElNQv/YBqbB1P0ohfdCnsaf8aMGXz11VeO5wcO7Di1aJNp+vf3+cNNEraCho9RsGI18i9CpTor4DJRlG5v9G8hIdq1FhnL/XAGJaD16x28a2QmqEEReA1yMq7Gq1qXDFY74TjUEeYODEOohGHPlKxGGdXBqCxwgus1vyKRje02dLfC0WzkfbldVDtLchxedb2+6Idwf+H3I7LIH4BnUNrlaoLX5nNRWso7LDoz5CFi4Uy8Xuu8+Hudg6Lf13E6IxehiXwWTkees6VXcApS1rNIJFPQhW2vkw/BKS6UCtkg6SVgmNfUj6wcT37sNrqPGxGHOTEWi31YH6k4zNoyqHrBTaZh/Iwtd1xnL7YS2CP7WCzGmWee6ZhcV1Tktr3wu9/9znfozbBhwzjwwAM925sx0yHDuSP7XW3/vwmnstxvcQZd81AmIFXZ4C2Uwv8dTmOagzKZs3DWujPFDJT9rEfB1J0E7wRYiD7X+Pj52LEHzhQ9yNgfjDoO7J99GrJH3Y7uNvYgsp67DWEccHL8/6PxKuz9Aq9s7Ij4vlfF/72B4KM3I/H9/4gu1myM7JyMjPx1OFNJUVR+mEgiandjIDL8VvtaCGUtLJGYQTij/HLkVT6Hk0GaQyK11B6ymcoHyA/FuKd44cJ1ptkT5GvNEgP+21BW+SszfjMOqp5/s5H9Gda96EVaGOBi23/44YdMmTKFd955J+lrJkyYwFVXeeknO++8M9OnT/cw8jfGTOzlrHbgNvbj0JoDKhuGSTgAyxDZzZ5FfMbnGG5sQqn23VDGwP1+ryHZ60CS3ynQhjhfO6KA5l0UWJ1JsAzCfBSUuYMh+3yOfMQf+xPOtd7PtnUbeoKxB3k/boMwDdVLSnFGp4OR92dHLfKqtkWep3cwtD/2QwpJD6Pex5/QcQZ5X+Q0vIt3AtIcFIH/nNQlhcNwTl46CkXxlhNyJlJpsnpB90ckkdV4WxMD9drTcWEdD0zM3Rsj5T/PNXP+ireVsjuQg2H+tiFSMb1u8LYDAIprFvwNw7iEXoPfi26CPbK38NlnnzFlyhQmT57MI494B3SuXbuWPfbYgxyX+l44HKa4uJjdd3cmEteaMfqFW7yN+f5w1w1CONXfrkQkZws3IzlyC1GClwVnIW7VFTjF1UKILf85Wg87inUoy7tt/D1vR47KHch2pKrtrwb+6dq2Hwn7OSX+r/3HmI1S+l3eYpcMPcXYgyIse0teEfLuCnG2kJ2M19u7gAQrvT0MQXWj2cigPoCcCnepIBPsjy6kX+DsIW1DU5Qm0T5Jow9qybMPZTiWhNqSgTScf217/lTgLtvr7QjUfocRW9z+TpnAuL41HBtmGOadnXP89GHA93Ly296vKysfB1BSPf82TC6i1+D3ohtQGEq+DH/00Uc888wzvs/169ePoUP9J1mPHTvW8fcG06TNbAka2buJvY/jZNnPQA6Bxa3aFN+WKdpQqntnlOK3YyTKWN6Lv3pqId6gKhWWIVJhZfyYJ6PAaQVqLzwdf8U7t0hYAcog98XbKWbx0XpCgLMZPcnYWy15n9q2WbWPg2zb7P8HET3+R2oUIC/rfyhyvxTVi3ZGDkZHF/kiNNrwVZSCsmMWSlVdjb/6nxttOGtE+6A+Vaul7qj48zPjf49ALSOWxKPzLvfOufdHzOgkY690fixq/Jlgn79rYLB9jmF80FBaeRRAydIF/zAxLqDX4Peii2GP7CsrK/n000+5+uqrqahIPuCyoUHjRNxqeY2NSv656/wbzBihnFBQRr699BdFwcQKnLX7q8BBcs1GS9nXKGK+BK8Yz1lIf+V41/Y18cdPUVAUlKNUiwLMUuTIfIHszwPIsC9DrYY3INuxv88xxiAegP17WU2ib79HoScZe1A0eyTeL+oSEvWVbV3PJTP0o1AE/Ci6UB9ErR8XIdLFwzhbQFIhRHI25zHoQrkAJzFjE7ohdsNL8EgFN/tzAMpaWJiKUl4WTsfZTuj2ckcHeVMzZFQFPsM0YWLuboQ4BcOTCutuFBEyn6qPVF5nQmhQzfy7DMM8jx6UeuvF1g97zb61tZWddtqJG264gXnz5vHCCy/4yt+uWCFpDPeY25UrV/pu32iahGLhoERZezZwNXLSL0PiXhY+QOtde8Nl0kUMZTF3RN1UdgxDZddncXZsLUalhKUoLX85wblK61CEPwVF9FORBG4JWtuvRrbjdJ/X/hXnwJsWpJHSJVPs0kVPM/aQSIHYaz6lyIPKQUbcjjb0w++JSGy3oDR4Vfw1x6O2txNR1Hs3wfvs+yOv1k/1aBt04T2Bty7+OiLg/TaN90oGe3psb1RusMQpclCbi8V3mISyDPboNFBkH4tGqzp0lu3jekyepns0DlLBMDCvbYxUPN04evTA4uqF/zRMzqXX4Peii1Boi+w3bkxQeQzD4JBDDuGWW7z81urqagD69nVyzJYuFeXImoxnYW0sRuHSr+oDnpI9sLHu19ko2t7O9tx1JCRys43FqFZ/Nt6pqN+Jn88NOEl2HwDnIU2Wx1Gd3TsaMDkWodLuIeg7OD5+jGSdSnZmv4nsj1vQrcegJxp70A/5PeQpWTgNDXxxT3e7DDHo30GG/IfI+L+O0kxj0I/3mOt4qVCBauw/RfWc/9peG0IZA7+UUhNiaR4AzA34Xu3BTuQ7G2cbx3HI+7U89pNRD2i1bR+3c+SLTaFWt7pVttEHuBqMRzv5fTLFEWZbzszGsjETi5cuuB/Ms+g1+L3oAuTbtPFXrlzJmjVOfvFBBx1Ebq4zA//uu+/S3NxMfb3Tfm/cuJFFixaxYcMGfBC0Zm+P7AeRWHOvw8kur0Vtw0Gj6ExwH+rjd0vuxtcT5uBtg3sR8bAeQ8b7A7SWJxtV64c1aLLouSh78YPUu/MrJI/bY9FTjT3IQ3IvuN4RUAmsRgp8ZyBJ3P0RMz+oEQshT/JxROC4DZHgVtn22R2x7O/E24v/byTecxedU/e1yCt20sf56DOCCIGHodSSXXMzkLGPC+tkt9feiz3B3EDw8klXo8I0Qu80RCpPL6lZ+C8MTqfX4Peik9Ev5GxJ/+CDDxx/FxQUeNLyc+fOpaysjPff9/J9zzvvPJ577jm/t8r32+gDu/HOIaEiV4PWQ3u2cBrOaL8zsAKt6wfhFeMZg/hKz+EtYT6LbMbVSM52Pmrzuwqn8mp7iJG6lbDH9NKnQk829qCJQe31Kb6CIvehaEjMg3jTPqmwLfLKPkYKfj9BdRt7K9pgZMTfxSuOU4M8y5PoXGM5BXm5Fg5BfAWrHe97yJNtwhnZl+I//tYPVR07xUA4HbXT9FT0A/OBhkjF34qHDvyPaRqn4Jw30IteZBVhDAfZ5/HHH/fs4zfcpr6+HtNnTP2MGTN8NfbxDnFJBntkvx6niM6NiCRsoRUvg76z8CrSvb8Wb+vyYYgbdR/e0uULyFGYgMqgl6GMwEq0hl6LSrXJeFn9SB7Z96he+lTo6cYe2veaPkWEiqApetCPfk38tW+gqPjbiLxnZ6WHUVlgHqoF2b+vGKqV74BEJDoTo5BTY7+zjyPRjgdK8VsiO/YcXojERMHUMOksRr4dfcFMTjPuObi0cWXTjFgo520T8xTSu7560Yu0YCfpPfDAA5tr71lGkMi+H85S6SMoYLAM6AYUGHXXePAWVKsfj/hSdlhDd+Yhwp67vPAFkiQfjjhcMxD7/zpk9FciXsIc1Pb9EsoYfImTEGjhTcTg3yKyf1uCsYfU9ZAT8PaW29EXRcU/QQz8KhIzhW9FhvQGnOl6ULT+CTLo7gt7NiLLXYq3RaQzUI9IhxZ25//ZO+/wOKqrD7+zKxe5yZJ7BQymmxZCJwRDIBA6IfQSIBBaPggEAiSBhN5MSEgMpNBJKEmoCSFAIHQCBNsYDEiysSTjKjfZliXtzvfH2fHeuTOrnd2d2SLd93n0aGd2yrW8O+eec8/5HfmgOx7nbsgHz0ki1ENOgUL5WEUx9oAVdO2wtNjsGbe73rcse7FlcSzG4Bsioo/i27e1tXH22We7Gt3ovetjsRi33OLXCBQmTcq4NB1EVEfvp9GCODxnKPveIrwudfkyF4lm7ou3SVpf5Hk/D+nEp/9B1iBR0GMRb/4bSDL1G6lzt0YmAfsjEQO/JOdZSITDNzmiHKkUY99dpuMEpOnN7xDDfDdSK/kvxECuRMJM05DQ9wvIev7WSJlGu3a9qciH+SkkAqCyAlG/25nitsjVxRk2Ap5Xto9DPtQOeo/ogMbenpfrwHoBo7FjL2HbG5G0vo0x+IYIqLbc6/bPPfccBx98MA0NDbS3t3uy60ePHs0ll1zCllt6l8uvvfZarrjiCr/b6MnNfuje8FrgfcRAqssAiwNcqxi8gjyPz8C9fAmSkHgBkiz9GKLUp7MOKW3+CeLA1SEG/mYkV8CPekrYlz5fKsXYQ/c1jNsiGfLnIetLJyGzssmp429AZmqjUu+/ijdJbDdkgvAS3haGSSRhbzKif1zKB/5I3D2WxyBhJmfqPx5vbb2+7Y8dXa19hdPHxvolMft427ZOpJzEgQw9At3YA7zwwgtsscUWbLfddnR0uB85VVUi0LnHHnt4zhsyZAiHH364322C5O7oiptOacAvScvClhtJpAHNZki+ld7nI45EgN9G2tH+CNgRd6SjH/Kc3BHJ49oC/yqDLxCnsexEc7JRScYe0upEjRnet5H1ll8jE4PhSO35FcjavF7j3Q9Z43kH8dT3x8uLyMzxPLyh/lKwAneP+H1x6zafjogQqev7futNHuyYFXX5XaVzvGXZPyN7bwODISf6KMb+nHPOoW9fiZInEgnfZDunvn7CBG86Tt++famr81OWzdqcBrwGzjGIHYiTVM50IM/+TZHvqO7pg2Ts34zkHTitvRNIhHcushx6B5KsravxNSJRYb0xW0VQacYeZEaVaWbVidTbP4FkSfp1r6tCSkluRj4M9+PNsCd1nX2R9Rx9TaiU6FGF/yj7qpAymPtxlxwGqi/tXD9gXqGD6wVMQUoy/0AFrdcZyhtVMvc73/kOH330Eeeccw4DB/qnt1ipycHw4V7ns7q62lOqlyJIm1vds1eXMvUlz3JlHRKB3RTJzfpvN8cOIbsdTCA5Y1+hOBVLkVCJxh5Eu/hA3B4uSHLF95AZ6FLE4N+JZPPfg6z5O73jf4R/qcW7iGTvnrjD5eWKOun5FummDKqoj66X78voRTPX2OWzFlfODEUiPR9SOQ9AQxmjevZffvklkydP5re//S2NjY0cffTRnuMd0Ry96x1Ae3s7/fv75uIFKb3Tn4nBKnmiZ+M8zulEkrJ3QQz1beQWfl+EdPibhCwNB5UbLkuCzPTKlY8RD/05/D3XobjrQbsjiajk3YqEcSqVDtJRiHokKgESmqshQEKJZfE5Nv6ttAwqFrAHJpxvCIEBirFXFfRGjhzJo48+yuTJk5k7d67vMTpr1671ZO+nCFJ6p3r2CaRJTBWlk7keiThs30bq42/t/vCMfJD6uRRZlt0TaTI2OXUPv2feH5GGaT2CSvXsHeYgWfXfQkRvcm0p2ICEZLdA1mjyMfTlMmGqRkL6DvXa+4Fq2y3bnpP9KINCdfZDDIbuUSVzk0l37nA8Hmf33d3ioStWrGDWrFl0dnr1nubNm5dJLjdI6Z3q2TcipXel7GfxEJJcZyFLr76ZhzmQRKK3tyN5XVOQxO1BeCV59ynwXmVFuRiqQliPyCL+HdGzbyBzm8PlSGvY15DM+3coTNr2m0hXvZuREFEpQ7q6h6n3X56MzGy7xcbS5SgNBkPEqMa+rc3rs4wZo5e/Sya+n7LetGnTmDPHd84epPROLdP1S3ArNo+SjlBaSD7Sbrh1R8JgDSKqth9prYE9Uj9vhnyvklDpnr3O8bgN/S8Rj3YjxAOrQ5L7rkHKMAox9OOAB5AEj2uRko6w2z0Wgi6QE0y1LmkZz95gKDKDlAS99navz6A3wgGZFCxc6FXo/uKLL5g+fbrfbbKV3lm41+gXZDqwiDyCO4+oBtFAqYngXm3Az7V9l/sdWIn0JGNfjdRYOqxDPO5GJDM9TK+7CpGRVENeSaJvJJMLp2rbgcrvEiTC6tZnMBgCUqV49hlC8MVgNG5lvKCNc6JkHRJyV9kcSbzLFMEthHvxJj3n0jSnbOlJxv4U3FKPD+IVVwiL6xC1JZVrKR+N5COQzn0qgYz98AUbNWAavxgMRWWQlo2vs369W8fJsix+97vf+Yb3N998c4YNG+Z7myzD0JU2x2c5vlhMx5sJfxAilhY2HbiTAC3gwgjuU3R6irGPISIKDknSJWhhcwxStqfyKTLTLAc2RmanuiRXIGNv8UoXtie5z2AwFIkHHniA7bffnssuu2yDoI4e2h81ahRnnnkmP/+5HnWGW265hdtv151hILsnrGvA74a3bWwpWIkomOpcgizdhs0fcE8uTsJfTa+i6CnG/iDcxuwZvNnoYbAdcB9eQ/oLysOr74toQPt1pBqTYb8XCxPKLw9MDX8vxLZtZs6cyc0338yWW265QWRHZd06ycfdbTdd2Vuy+ffcMy9lW93YOxnwXi3f4nM73iRkC6nC+krI92oD7lK2q3G3+a1Ieoqx1/sJ3+F7VGGMAJ7Em9H6KZIxWg7cBny1m/cDrj2ZJL0ywWjw9xIGKS1uDzjgAEaOlLLvZDLJ448/zmuv+VcFjxo1yrNv7dq1bLTRRn6CO9k61fl1d/smcFmW84rBUiQhWmcA8lwOWxvkV7jVSs+kwu1lRQ8+xdZIhr3Dx4SvfBdHEvI28XnvesrDqz8Z0cRX0dXwtghyIctKmvI7g6GIxBTned9992XWrFmcdNJJG2RxdVavXk1HR8cGjXyV9vZ24vH4hgmDQjZNCD9jD1K9NDXLucXgVrwNzEByC/5KuG13v0Se+Q6bUB5/g7zpCcb+Qtxhpl9SWEmdH7fh/x89FykNKTU74g47gfS731fb5+2H6UMyYWrtDYZSMnLkSB588EHee+89vv3tb3veTyaTNDc3Y9veR11zsyST+3n9WcjUCrsK6f8eKO8nQuqR55ofeyKKd2EuOfxS267oUH6lG/tBuBM0luNVQSqU0/BmtjvcTGnVpQCGAX/BvbzwDtLj/lPc61yBwvhVsfUmjG8wFJF+GTz4nXbaiccff9yjoAfQ0NDQrbH3E9zJgurZL8FdglaHSIpHUd+eC93J5Z5IuPK2/8PdROdw/PupVASVbuyPxV1O8gfC1SqfCtyd4b0FuFvLloI4EllQlxeagcOQ9aYEsqzhsFWQi9Y0N7fibTJkMBgiol8Wh9TP2L/00kssWrTIs//tt98GfI19d4Z6EGLQHT5E2omr/TS2QDqKRlHfHpS3ccuC6/wYUcILiz8qr/vi1S+pGCrd2J+uvE4gvYzDYgrdrwPdQekTqK7Bna+wFhGBUNfqZyqvNya4UIbx7g2GEqDX1AMb+tur3HrrrRx+uFcqftasWdxwww0sWJCTAJ4ewv8UmIXox6uJavsTTQJ0LkzL8v6vEYcnDB5BpHQdTgrpukWnko39VohuscMLuHu4F8J4RGs/00x4He4ZXyk4HpnFOthIGGumdtwM5XUcUZ/KjuWKCBgMhgipUhz71tbWQOckEolMGvhcccUVzJypPwq6RU/Ocy78MuLNqusF5xGu95wrT9O9MxJHdE92DeFeq5ByZoftUz8VRyUb+9O1bb+yjHyoQQx9d+pRDyGlIKViF6S+VI39/QQpQdGZpW0HCuWDPSP7MQaDIQwGKNr4X3yht7UoCrqxV5N0/wxcpb1/B6XLTrfxLqE24tZWGYDorYSRVPgHbfvkEK5ZdCrV2Fch8rgOK/E3dLnSFwndd6caZePN0iwm4/Em5D1MZulI3dgHU8RKWDm5BQaDIRxee+01T796v/71F198MZtu6u1vtfvuuzNiRM55ZN0ZexA58IeV7T7I+n2pMvQfwJ0cPRI4BJin7BsB/IPCa/DfQCYTDidS2ryFvKhUY78f7v/ARylcbcxCQvP6bFVfGngFShbiHoB8wdSowztISUimcsMluBv0bBfkRomOqpndXNNgMEREa2srNTU1bLvtttxyyy2sWrWKjo4Oz3Ff/epXue222zz7N9lkE5588km/Gv3B3dxWnTW04c7EB3kWnIU8bxxq6X65M0oWIobcYRBSWrwf7rFvBrxI4WNUQ/mjSbfdrRgq1dgfp23fH8I1r0dmbCqX4A3X/z6Ee+WDBfwOrSCZ5gAAIABJREFU9zpUM5JAk61NlurdB/LsRyz9dDXY83IZoMFgyI/BMe+jePbs2Vx66aVsvPHGvPDCC573Bw0axNZb+1fT7rHHHmy3nWde393zXtXg+Bz/if5aJPFNNaaTkUhjKTxdPZR/FOKBH4yUYTtkS7YOwp+17e8UcK2SUInGvj/yn+rwOfBWgdc8H3eyG8DPkCSPHZV9rciHphRcDpygbK9FutsFSbn9UHm9Md3P8DdgY32Y/SiDwVAoqg9eU1PDV7+aVr1evnw58+f75x7X1GR2WHMQ1bEQo+3QXfLbYsSYtin79qM0GfrP4a48OgRZXpiF9EtRnaCpFCa6MwP30sYRqXtVDJVo7A8ChijbD1BYuPlERAdZZRpS1nYw7g/HQ5SmOcnhyJqZgw2cAbwf8HzVs7cI3MnK0tf7DcXFtBruhdTU1PDuu+/yzDPPZPTcHfr37+/Zt2aNVIrV1tYGveVE3DlA2cpuZyHPTVUm/Dzg+0FvGBIduEXU6oC9U6/fQSqW1DEWKrqjeve1yCSnYqhEY3+Ctl2IXK3fbO9h0u1yv6Ud/zDFZwryb1THeD3esFJ36B56oNKRGMmyzMhfkUzS4aMc1gPJtjxjKALLkgk+7FjPM+vWML1tBZevWMoJSxey16Im+5qVwcrkstHfR0HvkEMOYcaMGdx0001+TW1IJBK+a/ldXZK3FovF/HTk/dB7ZnwS4JyngSu0faXI0H9Q2z5Cef003iZphYju/EXbPibP65SEqlIPIEeqcRvgGbizJHPBbx3nZaSkz0bEZ/ZX3msA3s3zXvkyAglVqbPup4Gf5nidOYgAkCOoE8izj2HNLIcOPzqTFswFYGQ8zrh4FaPjVUyIVzEmXsWYeJwJ8T6MjccZE6+ibwYZ0gqhHP/8PYr1tk1ToouWRBfNXV00O68TnSxIJGjq6mRd5omltVFVOJHcvhmiy1VVVVx66aW89dZbPPmku+BowYIFrF692nOOs6+lpWU5IqedDV17I4ixB7gF2IG0ZHlfxAnZg2hajPvxIZJE7VQTHIHImzv/adOR1t6qR/9roAV5lubCLO1ehyNJixXxPa00Y78/7s5N+Zbb+YnmvINbLWo/3FK8xW5j2xd4Cpig7JuFKDjl6tZ2IhUETv5BIGM/pLmhcfn4Tdtw/x3KhsWJBIsTCTIJGcaAkfEqxqd+xlbJpGB8vIqx8SpGxeMMi8Uz6pKXAW3ZDzGoJBFPfHkiwbJkktZkgtZkgiXJBMsSSZYnEyxLyudmQaKLJcnsz+k4VlvcorHDtueQrudeCzxSrAjT5pt7tbB++9vfMmuWd6Xto48+orW1lc8++8zr9vujam904S27y4SNtH6dDOyc2jcCaVazF26p3Sh5jrS3PgHpb/+e8v4Nqf3OMY7ozlTc1QW53msYkjD9Zu5DLj6VZux1CcSn8riGn2hOPXAo7g/nIdp5j1FcfgeogthLgCMB71Q+GDNwG3uLLJMGC5KtMsHwCnOXB6cAs5H/y42RL/R4ZOa9URJGL0x0xRcmulzffJ2BVsweFY8zPBa3hsXj1MViDI/FqYnF6WeJ4MlgK0Zfy2JwLMYAy6JPyhMbGIv5ZulYQE0svwTljvT/SrEelkXhj22ruL9ttT04ZiVrYvFYbSxmDbFiVFkWgxVRmcGx2IbU7n6WRT/LYlUySRc2bUmb9bbNOjvJOtumA5vVySQJYGUywYpkMqeZsAWJGCxJwjxbvL0WJNu8GYnmNSSwlyW8F50CsMYOGikPztq13tUbv0S8WbNm+Rr71tZWRowYQTKZHBPwlupMop7cckXWIs+l9wAnI3BbZC39CIrj9aoGmNR99a/8BcA40jbEEd3JNQqh3+tAjLEPnRiSMOcwD+lKlAt+ojlLkKQ/vfGLulwwH7fsbNRcils0qANp+tNQwDXVdfsaYFKg61nMxC5bY98KfJD68aMKGItMAEalfo9BvvRjU6/HrrGTtY1dSRrLLx+uRxl7gAS2tSJpx1ckk4StE2eBHcdqi1msStqs7MJuReROnZ+lwCKgCaliabJhUaIAg9QegWfvp41fVZXbozqZzGkSoq7Z56Mh4pQA/5v0sughiEd9aR7Xy5WXEQlzJ+p7CKIoqpJAlhteJl2+7Iju7EHwxl/6vQ7Eqy5YllSSsf8q8oB2yDWE7yeasxbx6PWZ3Q64FaWey/FehXAY3ozRC5EvUiHok5WdCGLsk/wv1A7R4bImy/tdyEQtW8+EamQCMAb3xKAm9dMP8QQGIeU2TprzEFL1xVYqgdKW4/P6i8VgVdyy2uOwrt22F1DY5K6cuBMRg8qHDrz/z2vxrt2stqGrC7uoUlBRhPFXr17N/PnzGTp0KEOGSOGRk3Snsskmm/Dll1/S3l5QgdAg3FHOoOv1Om8C5+LWIfkR8BHhSZlnYh1ihB0HbQryHV2uHec8798krfy3GeLhTyVYQuw65FnsOJ47I1UA4WRqRkglGfsDte1cjb0umuPM9PzWbA7Vtotl7KcgXww1/nsXkmRSKLqx3xl4PNtJsTjv5eYkFBXvEzA/1iETvryTisJ45CeBpG2XX3yhcJzwuCEgG220EePGjeM3v/kNBx98MIsXL/Ycc8kll9CnTx/OOuss1/5Ro0ZxxBFH3HH33Xf/gOwTz8naMYWog/4BUej8gbLvLmQpMNcobK48R9rYx4A9gWd9jnMiuW+S7k2/K7KGfxTBojyvkjb2cURNr9g5XTlTSaV3+yqvVwKv53DuOXhFcy4gczamGsJvR2aNUVOLTGDUxbl/I5mlYbAct4f7lSAn1YwYOpPSaAsYDL2alpYWjjjiCEaNGsWDD+oVZjIhUMV3HLbddlv7rrvu+gWSz6IyxHOwWzkPCpcC/yHu52U1EtUZWuB1s6E/o/fq5lgnR0v15A8jeIv0V7XtipDOrRRj3w/YTdl+neDrbH7/iTeS2VuuIZ1ZCvA24vlFSQyp4Z+k7GtE1umDZtQGQV2334kA4Wbr/fc7iX5WbjBUGgOyH5If/fv3dwniLF++PGPbWz/hnK6urpWWZbXiDWP7fd/V9fokwTPxM5FAnltqlGwSkrAX5YLgZ7hD6TtkOf4d0mXWDn5OoR/v406U3jnTgeVEpRj7XRGZXAd9ZtXdeX/CHRZ/Gm/yhspu2vGvBbxXIfwMCS05rEYySoMmjQRFDeXX4p5cZMQuvr6AwVDuRCaVOnLkSL744gtuvPFGhg8f3u2xPs1uWLFihdP4ytsqz4uaiT+XcBybpUhIXDWI38IrwhMmNu4l2SDCYY/iHdO1eKu+dLqQTngO2+C2T2VJpRj7r2vb/wlwziQk8UKdgftJKOrsoW0HnVjky8GIsXewkX7JUUjV/lfbDhTKt7D18wwGQ4QMHjyYyy67jM8//5zzzz/f95jVq1ezbp3XNjc3N69IvQySk6XW2OebnOfHLKSiSPWcfw4cEOI9dFT58NEEa217I5JX4BBHoqzZtEjUZeSqAMeXnEox9vsor1eTXRO+Bln/Vps6+63T+KGGf5LkLrqQC5siHyx1en4V+ekHBEH30AOFn+JYUf4NDAZDBoYOHcqvf/1rTjhBVwkXY++XuNfa2uoY2GzqeX1wG3t9jb9QngSuVrbjSDh/gu/RhaPnG0z2PcrL/+Fe8x+EOIoj/A8HvOW+OwW8V8moBGNvAbso22/SfRa284EKUkvvx7bK63qiUzEbgGgtq4krz+FueBM2ixB9AodAH9AhzQ0NYJV9aYnB0FOZPNlrt5544gk++ugjz37btjdGnoPZ2t5tQ1pCG8L17B2uwV12OQKR1I2iJa4+Wdkk4HkdyLLDZ8q+jZDJSqa2uMbYR8DGuOVas2Xh34Rb/W49/rX0fvRP3c8hysS0u3GvK81FwvdRVwmr3v3OBPgMWGBDsjsROoPBEBJ+dfN+IjkvvPAC5557rt8lxiBO0bgst9pR2y40E98Pp0PnXGXfHgRLhMuVz7TtjXM4dyWSV6A6hHsgSqZ+LMLdXjxQ/lMpqQRjr6+FdPeBPB24WNl2PmhBw9ATcP9Nournfhqice/QDnwbb/ZsFKh/ixrcYbyM2MTejmY4BVG+CgAGQ574GfvOzpzVF3Yh+/NdNfY20Xj2IImCekvcqxChtDBpx93ffnymAzNQD3wHdwXUKYB/0oR7OTmoNHHJqARjv422nanX8j54y+muILe2tPpaUra+zvmwGd5SwAvILPkaNrrR3s33KA0r2a28fKnIt0+AwVC2rFq1ytO61s+zz1VCF2/pm2rs5xNt46W3gF8o232Q5daBId+nWXndfSmDP6/gdhhBuvv5ZferywbG2IeAuobeBXzuc8wYpFGNur5yF5JpmQv6f1i+7XMz0QfpTa8uS9yHW2Iyaj7EnfOgVx/40idhmyQ9g6FI7L///kybNo1ly5YB+Layveaaa7jooov8Tv8S0XzXUUV1YriTkYvR++M63E1jNgemhXwP1dgHae/rx51IXoFDf6SEW9dWmKe8rqPMy+8qwdirYeZ5eDsyOQl5apnFm+SnPKcrVIRt7H+BO3Q1h8whoqhYi/uLvWeQkwYvalgM9tzsRxoMhkJ57bXXuPjii5k4cSI//vGPWbBggeeYrbbaiuOPP97nbD5Geq0v9HszxWa4nY6olixVEkg4X63/P4vsde25EIaxB/ge7mWNrYA7tGN0+zCWMqYSjP1o5bVfQ5MrcTe3WYx33SUoqrFfQrhhrX1xd4DqQD742Zq5RIGapLc5MivNjmUVQ2DIYDCkWLt2LTfddBNPPeWtxq2qqmLYMF971o44Rd0lJevZ48Xq6jkPaZijchdumfBCUPOeClkiaAOOxm0DzgSOUbb1RlVB6vpLRiUYe3XdRTf2X8MtSONINebbdEMN0yzN8xp+1AIP4v57X0nx1ul1VGNvkW752C22bQURMzIYDAUwceJEnnvuOV/de50M6/ZO9LM7Z0XPxC9mC++HcTeOGYOE+MNAjRoU2ujtE0BfJ7mddESkSXtvcIH3i5RyN/bDcMtSqsa+DvnQqPWalyMJFvmihrUWFXAdnZtwl8G8CNwW4vVz5S1tO1CSXhVJY+wNhiJw8MEH88477/DII48wceJE32PWrVuXKUvfeWZ2pxSqGvvVhL9kmY0LgGXK9vcJJztfNfZhaPH/AbdNGUdaYrcTd2Q2U01+WVDuxl7PplSN/bW4SyteAG4t8H7qxGFZxqNyY28k/OPQildGsth8irtEZfcgJ9U0N36OJP8YDL2dyL04y7I4/vjjmTNnDrvv7v2Krl69mqVLfQOQTki8uzVr1dh/SPGfR0uAS5TtOBLOL1RsRzX2fl3+csUGzsbd+fMi0oI9auZkWEsRkVDuxl5XgHISTnZAEjsc2pD/kDA/sGG0de2HiOeoM8wfUh4GU/XSdydoyMsO1JfAYOjpFO3ZWV1dzS677OLZ/95777FokW8A0nluZio9m6C9V8wQvsr9uL3mnfCu5+fKygLP9+Mz3Mqm/Uk7lqqxN559Aeiz5yWI4bwT9wzwp7jLIPJFvWaQjlHZuAx3NcELyAe8HFCN9iACNsUhZtbtDYZiU11d7dk3ffp0zjzzTJ+jmYzUhmfSoNeT84qRie+HjYTz1VLga8ku8xuUftkPCcztuPO4jkT+jqpT6P1PKiPK3djrLEUy2NVysXfxitTki7pmX2iUYAvc7RPbkHWpckE32vv4HqVjJ8spIz+M6IvBUHLUh83KlcGcU9u2WbIkY7uPS/AaO8fzLFUmvh8f4e46NwTJvQqDMOve1+K2MxbuJj8QvkBQqJS7sdfXQFbhbRTzU7pPRMmXQj37X+P+sv0Mtz50qZmFu0zla0FOqm1u/Ijw8hkKZX2pB2AwhMFqO62Qt359ZB9rx/NUEwAShN/tLleuxpusF1VnvEK4E3eFwyG4m+2YMH6InI90I3L4HxIaj4JCkjumAt9Qtj8hvOhDWCRxNxXaiwDJMdIUJ2szIoPBkCft7e3Mnev2C9ravFV0++yzD6NGjfKLbtl4xccc4rhLbT8F1uU30tBYBlyvbPfDXVJdLrQC9yrbFu5osCm9KwDd+PxQ2745wnvnW7Zh4f7ggmgtd9eWt1Soofwa/PWfPdiWWbc3GMIkYbtXDSdPnsxee+3FQw89RFdXl2+J3emnn87FF198n8/lZgD74d8oalvcjkwU/T/yYTpufZTTCN6PXkUN3ecjrJaNcsm5yplyN/aDtG115vQF7j7JYZNvGcURuGfOL+CvU10O6Eb760FOipt6e4MhVNZoxj6RSPDGG29w8sknM2XKFN58803POePGjaOzs/OvPpdrBl7Dv0W3rqnxNbya76VgHXCNsl2Fd008CKqNiCJi8T7B2qWXHeVu7LvjIaL1lvP528Rx5xQk8XZQKic+wF06Emjdvqap8X9gtUYzJIOhdzNq1CiGD09Xxs2ZM4dZs2Z5jhs6dOiXV155pZ9Bd/Th/bL39tK2h+PWASklf8Sd13QcufWkh+KE0h/JsL9Qxb5IqWRj/2j2Q3JGjZXl86E5Cdha2X4CyTYtV7pwd6H6GgE+ExYksOwXIxuVwdDL6FA8+2OOOYZ58+Zxxx13MGZM5s6pK1aseAP/JNUV2m8VP7XMi3ErlZaKTtzKojHgvByvEbVnD5mNvcnGj4BZqZ+wWau8zkfJSe20Z+Nduy9H/q28riVgvb1tW1ElRhoMvY52xdjX1tYycOBAfvCDH9DQ0MC55/rrzMyfP/81un+G6w5LHdLtTmcicEJuI46MP+KOSJxJbssMQ5XXUQjsgCQ1RmF/IqVSjf2fsx9SMHq+QDa+jluC8llKW78aFN1of8P3KJ2kbYy9wRABAwakbVt1dTV33nmnb1Oc22677VP8hVyc5GK9C1t3z7RLKQ97sA74lbI9FNFWCYraJdUvshEWf/PZ55cQWTaUw39uPhTD2OeqhnShtl0JXj2Iepaqk39AkJOGLWhoovT1uQZDj2B9N3bCsiz2228/z/7Zs2ffir9Q18GIcM62OQxha8LtK18Id+POpP+/TAf6oPaUj8qzB39jH+XkomDK3dj7rbn8j+g6NKlh/NEZj/KyKXCosv0u8HYoI4oeG+nC57A7AaMalmW8e0OvJdSmJ+uVZPx167yPvZoa39ttC1zls38KkjWeq8Py4xyPj4olwOPK9jYETB7GLcYTpbH/EK9IWpT3K5hyN/Z+dZJ+pSZhoSpXjMjhvO/j/lv+JpzhFA3VaPcloHRu0qzbGwyh42fs+/cPU/k1I7sC+xbjRgGYrm2fEvA81bOPuuHYk9r2gojvVxDlbuz9ZHCjNPaqZGNfJGEtG32B05XtpbhnpZXAv7Tt/YOctJb1r2L06Q2GglmnyOW++eabHs379nbfr9nfIxhKuXj3bwAfK9tHkV2OdhTuqGRT2IPSeAyJoLwPPAw8FfH9CqLcjb2uT/8p7g9A2Oj9Isf6HuXmm0iWq8O9lF5+MlcW4M4uDZSkN6G5eR3YRmDHYCiQTiUb/4033mD06NEceuihvPTSS9i2nalv/WH4C3b9ivxlxA/A2yinVDyovK5FnrXdsZW2HbWxfxvYOfVzEu7IcNlR7sZ+LlIH7vwR/xLx/fQGL5v4HuVGL1m5L5yhFB3Vu98GGBfkJNsyoXxD76W/la+qdvckk0meffZZ9t9/f7bddluefFKPGLMOiXz61XzPozAp8XLx7h/BneF+fJbjdWPf7HtUL6Xcjf0cpJ3tYMR7viHi++nT52zGfjDuxLwPiTbyECW60T4oyEmWbZL0DL2XviEZe1Uud7vttmPo0HS5+Mcff0xDQ4N+ipPP5JfG30phhu5o8tOlD5v5uJtuHUr3wjXbaNufhT6iCqbcjb3KcqIPkyzWtrMZ+yNwCz5kUlaqBP6De/39W0FOqmtunIXNvEhGZDD0EtQw/plnnkljYyNXXHEF1dVZE+r9ZhuduNtX50oMuKyA88PkaeX1QNzOlc4U5fVC/OWCey2VZOyLwUJgjbKth4V01BB+EvhT6CMqHutwN8bZH2k1mRXbKu/EFIOh3GlTEvQ22mgjamtrue6665gzZw577rmn3ymZhHNAvsuFdnw7mYBLeRHznLadydhXIWvnDhWncBc1xti7sZEkQIcpmQ5E6mxVpYs3qfw1IvWLNYiAWfkxLM+CosFgCM6qZNrYjx2bzgueOHEif/6zr4bYECRpbbzPeyNwt7HNh754W4r7UYOoh25R4P0yMQdQ1zAOxN9ubY87yjozovFULMbYe1E/JONwZ9qrHIS7eURP8G51ox0olD+0uf41vPkOBoMhIKttf2MPMH78eAYO9F2qvh//DPXD8NfAz5WzyPz8m4BUHn2J9NeYgzg8UdTpq8+lYYBXO9jb4OeNCMZR0Rhj70VXvvP7YIE3nPS071GVxXzcev6BjL0FCdu2nolmSAZDz6ctmV6z9zPsgwb5iloeirvLpsO3cKti5ssg4AJtXxXi8X8MnIZbpW934CVyk7cNgh7K93su7a28toHXQh5DxWOMvRfd2Ov9n0E64qkz6jn0nMxPddIyke6XMjYQi/WIyIbBUBLUNfuODu9ye79+gdJnVMKqCTyftFDNlkh2/G1kltS2gNuBQ0K6P6l7qlK0urGP49YG+QgTafRgjL2XWbiz8vf2OWZ33OGtnmTodA89kHffZre/APaa7EcaDD2CfFpgZ2S1smZ/4403Mm/ePNf7iYRHTPRF4PkMlwuz/Hc4Es6/GPgAkdTNhoUI4gwPaQydwKvK9o6IWp6D/jx+JaT79iiMsfeSxO3d7oa36YVuAJ+NdETF5T3cGs9HBTlpQnPzOhvrn9EMyWAoO3Jtgd0t6pr9tGnTmDx5Mqeddhrz58+nq6uLJUuW2NoprwHfxlte1oosPeoCYYVwa+onl8Y6Q/HvyJcvquiXhTuyqj+Pe8KSaugYY++PukbUD29ISv1wrQTeinxExcPG7d3vjITzsxKzTVa+wZArnbbNettty7u6urj//vuZPHkyO++8Mx0dHXpYvh0pE/5I278C6d4ZZoJavksC5xRwrs7L2rb6DD5ceb0cdxTAkMIYe39eBNYr26p3q69jv4R/w55KRjX2FgG9+5jV/hwScjMYDAFRvXqAU045BSulzNfR0cGMGTN8T0v97qPtd5bSPg9xiPkyFpgU0rU+BlqU7QOQf/tXcOuhPIt5BvlijL0/bbhnh98kLdOoh4z0jnE9gZdwqxUeHeSkmubmVtstzGMwVDp9gU2BqUj2+dVIydn5Yd1AzcQfNGgQ9913Hy+++CJHHnlkd6c5ywiZ5GPLpSnLmBCvpXr3NYgOyGnaMVH3T6lYqko9gDLmaWT2CCLW8E3kg6Qb+564Tt2OaOU7Hv0eyJc2e39oy34E29ov63EGQ3kwGhGmGY9E7SYiNeTj47BpQgRqMjpFsRCi1Gom/ujRo7Esi6lTpzJ16lSeeuopjj322MT69ev1hMDBqd+6qI7Tlns9pacLKecNi38hyn4OV+Du0LeYaNr+9giMsc/Mo0gJiRMmOxVpJzlVOaYe6czXE3mctLGPAUcCv816Vr/YE7TbvwH6Rzc0oS4Wv6I1mXgLeaA0pX7K4SFnKA01yDOtBvn8jUDkZEemXg9HsrhHWikDb3fTIz2BNLoZH69iQryKiVV9mOj8rqpio3gVo+KFP0JV9bxhw4a53jv88MPZd999X3z++ecP1E4bgyTBjdD2O8ZeTyouNgngB4Rr7PV1e70s+iFMCD8jxthnZinitTvJeQcBZ+POSO3JHd+eQRJ9HAnKowhg7IfV169aPn7SszbWt6McHEBrMnE28n+i8iVp498MfJH63ZzavxD/TmGG6PC0bOuGDmCNBZYFdRZWLGal3eeY28vuk7AZkMTul/SuXXeLEzgfFoszPl7F2KoqJsarGOf8pLZHxqsiX+tU1+xHjvRK3a9cufJZRCZW5UTS3r3KQGTZIVtfjyhpQpyjf4d83RZk7d5PSAgqt714UTDGvnseIm3sq4BbtPd7ctbnGqQq4ZjU9tcRzyiAWIX1CFIWFAlPjhjLF12dzE900dzVRXNCfr5MdNFh22MQrydTPXAnUlrYhBj/FtIdspYiocDFqe32DNcw5EbOSVo2jkG2SehFZz4MsGL0s6AmFqefZVFtWQyxYoyIxxkei1MXizMiHmdELM7w1L5x8arI+tHnQpvi2Q8e7LHfDW+99ZaffkU1cGyGS35MNxGLiHkaWUcvpOted/wbf2P/Hqb5TbcYY989zwCrSDeV0NfNerKxB3iMtLGPp15Pz3bS0P7W35e32yuQMGPofK1fNfTzlvwmgcWJLpoSXbQkumhJTQSaUq+bEl12azLRB9go9ZONttTPWmR5YC0yAVin/I4K52FZj3eSWXHs3a+aO2r1iHPuxLAYEkv72lUWDLIqO89YXbNva/Pk1f2T3LvPlcLQJ4ArgZtJB06i4BXgPJ/9v47wnj0CY+y7Zy3wMFIvqjMHWFTc4RSdvyPGzsn8PYEAxt6qr1+/fPykv9hYZ0Q5OJ0YMDpexeh4VaaGBla7bbMsmWBpMsGSRIJlyQStyQTLEkkWJbtoTSZZltq/OJkYtDqZDFU8JQ9epwcY+2rLYuOqnCLtvYalyXTl7rx583j00UfZa6+9GDduHEie0EE+p/0VqS/XHZA1yNJbsUMWsxDhnSgNPYiDZeP+9y0FfFsDGtIYY5+du/E39r2hxGwtEt04PrW9J+IRf5H91NiDYBfV2Aehv2VtWJcNssrbYdustW1WJZN0YNOWTLLGTrLetlltJ1lr23TYNiuSSdptm3atZlpCyv6eZ3/Lon8q5Owc54Sg+2Jx4JKWjk476menodQsVaRwZ86cyXHHHUdNTQ3Tpk3rOuyww14FLvQ57Syk1v5Ubf9diLH3e2ZFyQ7Ist9xiLBPVCxBlim2UfbdheR6GLrBGPvszADeBXbR9vf0EL7DY6SNvYV49zfXjNm2AAAgAElEQVRkO2loc/1ry8dv2oSUMVUsfS2LvpbF0FjxQ8Wx6L0kQxmwMOnV5Fq5ciVnnHFGFZKBPll/G5HDfROvsW9ANOyLbexBkgjfRiIOn0Z4n1dIG/suxCEzZKGyF7uKh9+HqTd49iBhxFXK9klBTrJkCd2E1gyGLKie/Z133snmm2+uvr0z3jK6xtRvP+GceoLoYUTHFojB16sHwuQV5fVfkEobQxaMsQ/Go7hDU/X0ng/YetyNJbZGQnZZsezkw5GMqJdgFX/d1VACFia6Nrw+8MADmTFjBhdddBFkLhF1GlX5dd6bS+lr7IciIf2LI7r+K6SjXjdFdI8ehzH2wViDOzEt7PrRcucRbfuEICfVtsydYcF/IxiPwdBjUBP0amtr6d+/P9OmTVsAHIbkzeg4+/ykaNuAYT77i00cSdi7H2kmFiZLkXX7V4D/hXztHosx9sH5NekkkFdKOI5S8ALuJhTHE7CfdxLLrKflScqtj1yJ0FA6Omyb5UqdfW2tI4DH84h3fJXfaanfG/u8t5a0il45cAryvAxTI5/UNX8Z8jV7NMbYB+dLZA3apvd59glEYMhhPAHX5BLr+z2Ke83fEByL8L0iQxmxRPPqY+lE0OdTv/0Sgb+CCFzt4fPeQNKlsuXCbkiEb+cQr3kf7u6chiwYY58bNyB9okuZAFMq7te2Tw9y0sgls9uwLbN2nwdmwb7ns1hJzlPU8xJI50nw/xhsiag8bu/z3j/xF50pNeOQpOZAS4ABeA8je50TxtjnxhwyS1SGxfCIr58vnyBZtg6H4m3C4YtFwoTy86Mn2Psh2Q/pvSxWPPuamg15de9YltWaej02w6mZPhtTyCwVXWqqkQjhDRjbU3TMHzx3FmQ/pCDOwC0YUU7cp7zui7vdZEYkUc96N5IR9Wh6gq3vGf+IqFiiZOLbaQGl55VDvJ1xYF50I4ocC/gx8CTlt9zQozHGvvzYhMyz+VLzGO7mMIFC+QBJK2m8+xwxVrLns1AJ43/00UfssMMO7L333oNIC575PQvOBp7w2f8EEoGrBA5FRIEmlnogvQVj7MuPWqCu1IPIwHJkRu6wDZJ8k5XOjkGPIspfhuAYe9/DWaap582YMYPXX3/9UkQFb0dgc5/TZgOP++z/N9KKOih+ojzFZAqSuLd7icfRKzDGvvyoJeBaeIm4T9s+M8hJoxfNXINtm0S9HDCWvufzpeLZT5rk6gQ8BXgHOFg7pRV3GaxKE4H6VgDwWuoerwc8PipGIpOUQMqchvwxxr78KHdj/y+kD7zDcQRsZWvHY7/B6L3ngrH3PRxVUOeqq67irLPOugdp9gLSqklXw/tMeU+niexRwU5kzfzryNr/nTkNOBr6AQ8C12M+85FhjH350Q9/sYxyIQnco2wPBL4b5MRh8+s/RrT2DQYDbqnc7bbbzr777ruvArZCjJ8fi1O//ap2FtC9o9CA1ObfRLps7W+UTynx5YjW/cBSD6QnYox9eTIp+yEl5R7cLSXPJeBnycKq+N7sxcJo4/d8FqSMfSwWY/LkyTMty1qIdLQ7Bfi9zynLUr/9ukm2kvnZ8SdgJ6Q+XaUjw31KxZHI0sL4Ug+kp2GMfXmySakHkIUlSGa+w2bAN4KcWNtc/wpGzzoYxtT3aFYmk7Snyu3GjBnDwIED9ajXUz6nOYqK22r7VyHtXrf2OecBRMwmk5Ll3alzy4UdkMS9ci1BrkiMsS9PxlL+mui/0bbPD3ymxc3hDqVnYmx9z2aREsKfMGECuOvrQbQsdL4NTAP20fYPQRrn+Bn7v2UZSgvuKptyYDSSuGcMfkgYY1+eWEhf6HLmbdwe+sEEXH6obZrwBO4kP4M/FkaBrsfypZKcN3bs2E6k7lxlnM9pfYGL8HcGngKO0fYlSUvvdoc+eS8HRlB+k5CKxRj78mN16nclzGjVB0QMOCfISRavdNkWv4pmSD0Ly3xHeyxfKp59dXX1F5ZldWqH+Bn7bFRp23NJP1O641WkbWy50VDqAfQUzIOk/HB6VfuF48qNRxChHYczgcEZjnWRaO9/N7AiikH1JEySXs+lqatrg8jUBx98sBpZV1dL7fyie3/NcLmVSAMdndkBh2MDvw14bDExbWxDwhj78qOSjP064I/K9lBEyjMrI5fMbqO8soAN0WDKqDLwUUfHBnGcTz75ZEfgYeDvpD163di3IGH6D3wudxVewSuAj3IY0v2UXlVP5SW8eQyGPDHGvvxwvmyVEMYH+BXuTN4L8Bf88JCwqm5HJgyGnoseVjakmNm1Xv3sO2JTewAzge8hVS4q7yJr8H7h9n/jX+US1LMHefboraxLRRK4tNSD6EkYY19+OOUxk/GqZ5Uj8xGPxGEicHyQE0c0fboA490beiedLV2date3c4H1qdd1iJaFPmmelfqtPxfWIxMAP3XKXDx7kFB+Oahc/gb/CIYhT4yxLz8WpX5bwM6lHEgO3ExakQvghwRca05YVTfi7qRnMPR4Om1+1ZXS06iurl4G3AXsAszp5rTG1O+Ntf2fIdE1XVUvAXya49A+RpL1SsmniKSvIUSMsS8/VOnKSjH2H+MWANkeOCDIica7N/RCVnx3xcKHSNXRd3Z2/ie1fyZi8DNJSrcAcbwlrgtSv3XVuUbS0YJcKGUZXheiHrg224GG3DDGvvxYqLzetWSjyJ0bte0fadsZPf0k8RvJ76FkMFQcFvbtf1+zZrSz3dXV9YbytpOV79cOegEykdaTHh1jryf15ltK9ySZO+tFzZVIboIhZIyxLz8WKK+/jszkK4F3cYt37AfsqWzHkDwED8ObP2sB23j3ht7Acrsvd+D+LszUjlmBv7H/CrCXz/4EEiXYTtv/SZ5j7EIkdIvNdDDqmlFhjH35oYbxa5GwXqWge/c/U14nkOzifviQpOoGTGa+oYdjWUyra2xciXjoDrN8Dh3ks+8+4Dqf/UcB1+DVuMglE1/n97ibXUXN00gljyEijLEvPxYiPacdAjWYKRNeRBpYOBwA7K5sv4KEKD2Id18WvbUNhoiwWpP9LEc5cofU76W4l+4AhuHflz6G/ySgDv8ytUIU8b6keFK1LyMVPH6iQIaQMMa+/OginXULARPdyojuvPt1yERmot+JcdbfiH/4stdimzr1noPNbcPq61cB1aS71rUjNfWjlCPDENRKknsmvk4xEvWeAr6FSciLHGPsy5PPlde7URn19g5P4g4ffhN3ouGfEVldDzXNza1YmH73bgaUegCGwrFhcUfXgDtSm/uQXs4aj9TU/xPp9AayNq9zBPCaz/4W4EOf/fOANfmON8V/8F9iCIsHkC5+pvS2CBhjX56oxj4OTC3VQPIgCfxE23eV8roLSebb2+/kjo6Bv7TsDVoDvR67PARODAUSw75+9KKZjvH9ls8h2yMKeEcCO2nvrUVkdP206x/DvwHVe3kOVScK774T0eI4Dbf6piFCjLEvT+q17UNKMor8eRJ4S9k+CJEBdXgW6b3tqTQYvWjmGtvi2miHZzAUlaYVVUknu30QcJLy3l9Jl52OTm3rCpTvIQZyrM+1X8YtaOXwTt6jdfMw4S6ttQBfA27HTGSLijH25cln2vZRZMhiL2Mu17Zv0rYfAE71O7G2pv89uPMWDJVLpX1uQ8eGazaZN88JVR+PNIwC6Rh5DLLMpX7n9TwNx0ufou1PIqF2v5LWsDz7NuS7GgaPATsCb4d0PUMOGGNfnszQtofiH/orZ17F3bFqL8Sbd5gFbEr6wbcBa/bsDtu2Lot2eIYi0b/UAyglNnxe1zzh3tRmFW4Z2DcQgz0DWcfPVBfvrJtvr+2fh/TS2ErbnwDez3PIfkynMC+8Hkk0PhZYEsqIDDljjH15sgRo1vad5HdgmXMF7ofEDbhD978CLvI7cVhL/RPYvB7h2AyGyLGwr7Z4xVmXPo10+1pwa9AvRCb0fkqSs5BJsS6a4yTC6locsyk8OU/lE2S5IFeWI4p42wH/CnE8hjwwxr580dtVHoyPF1zm/A8J3TlsjTt0vwiRB93S7+RkzP4hZl3PULnMqm1u/HPqdV9k8qtGu/Ts+rmku16qrEUSWvUcl8bUdXVZ7f8SPn7JgZlYghj5jYHrMWJZZYEx9uWLXk7TDzi6FAMpkJ/izri9GqkzdriTDN798KbG/wIPRTYygyFCLMv6iZVOnjsXeJ10GW0Sb1nbeGCEz6X+gtTi6+wMnAgM0fZHYeyfBpq6ed9GJi9nI938rsd/4mIoEcbYly+6Zw/yxa40Pgf+qGxPAC5UttuREKFvToKd5EqM4Iah0rB4Y2hT/TOprVrgYkRwyqlKacT7ud4xw9W2Ag712b8n7u+Wwxs++wqlC9ED0Pe9hQhnTUay7O8h3CUEQ0gYY1+++HV++jrhqGsVm1/gDuVdTlpABCTU/x18MreHLWhosm1ui3Z4BkOo2Ek7+UMrvQR1JXA/kpDaN7VvGd7nr5+YTq4spDBN/O74PdJ+9zrgQGQSsweiy98Q0T0NIWGMffnSgrf8zMLtFVcKLcA0ZXswblldGwnnn+t38np73Y3AF5GNzmAIFetPw5vnOpP1SYhK3E2I3oTDrogehRqC/6Z2oQSyDObHv3D30HB4iejyXBYiuUM/AV5AyvIMFYIx9uWNXzb6ScDwYg8kBG7E3SP7FNxZxP9FMpUn6CeOXbBgrWVV5CTH0PtYRzKpakxcD1yLJKLqS1WHIhG83RDBnK9q77+SOneOz30uAh7x2f+Szz6DwRj7MsdPC7sa+H6xBxICbbg7c1nAHanfDjcgIX8PtU0NTyL64b2NgaUegCEHbKbVLWicn9raDQnd/xFpfOM0gFqhnLEFssb+T7zP4ydSv/tq+5uRUP1qnxGYEjeDL8bYlzf/ybD/XLwPgErgT7gnMLshHr7DstT73/E7OY59Af51yD0Z0/WucliYWF+lKkXegmjAJ3F/ps9DGts4iWwx0l3wVJ5BPP5J2v4XU7+/pu2fg1efw2AAjLEvdz4D36YwY4DjijyWMLCBH+DuW30d7h7d9yL/tlr95Jrmxs/Buj3SEZYnW+COgFQKfZCx9wps+NmIpZ863vbRwHzSk1vn+7oWKWN7CtgXaM1wuU+RZa+Dfd57HRiJVz7XhPANGTHGvvx5PsP+y6lMr+9D3CU845BsZQcbCeVf53dyR+eAa+l9yXpz+lhW2wDL+igu0ZGfIcZjJyTZsdRYiPd5KHAZ8CDwgSVLN4+XcmBFZGZdc4NTBtcH+T9ylq2+Qlq//hnSiW3/BfbDX0LWaWRzlM977yGRAX0C+Fzuwzb0FirRWPQ2/oF/w5gtgdPx1r5WAj/F7b3/EGm24WiDf4iE6/fBLSnK6EUz17SOm3QelvVskcZaMg6vHsSszvXM6eyg3bYHdMI2yI+LKqylWMzpsu1PkGjQZ4hnOBfoCGEogxExmHFIWHlC6vU4YHOkHNSTW2ADQ2MxNqvqy979qvW3exTJpH2xlY5YnYestzsJqWcohz6Gmw+Rkja9cVQjEsH7hra/C1mvv0Pbvxzj2Ru6oRJDg72NOmAxPu1gkYfJZCpTjvIHuB9Y/0F0BJyyoSFIqPMgRHjHReuETR/F9l/b72kkgfldnXza1cmczg7quzqY19VFY1cnXyYytwO3INHfshbaMK/dthcgxmgVYjCciX5/0oqGgxGtgxpEmrk29brbCGAcGF/Vh0lVfdi8qg+b9+nL5Ko+bF7Vl5Fxv49tz8LCfqK2ufGY1OYIJBq3J/K5HQAsQP6ObUj4fZ3rdGkUo6/L34/8X12g7V8C7I9MEtTn973I5N9g8MUY+8rgNaRrnB+XATcXcSxhUYWoBKqJSacjDy2HExD1ME+t8ZKNNhoTT1TNxmdtvzexzrZp7OqksauTL1K/56Z+tyS6fBud50Mfy2JsvIpJVX3YtKoPm6R+T6rqw8R4FX2tXvsoabNta6thLfVOYty9yJr831Lb3yWtcvcXpOZe5Wto0asALAOGafu+Bfw9x+sYehG99htaYfwEUanyYzlS3rO8eMMJjX2R0KPzOVyKLE8sU455HrgE+Eg/edn4Tb9nVeYyRlFYb9ssSybkJ5Fkaep1azJBh+2vu9LXshgWizMiFmdkXH4Pj8epi/V8Dz0fbIsfDWtquDW1uRfwc2QdHuRz/QGwQ2q7DVGee1O5xAPAyfplye3ZvBwYhb/IjsEAGGNfKWyDj7FTuBHvml+l8EfE+1G31TXOLZGOW/uD21G1wVo+ftNXkY5gBkOx+ah21NCdrPff70QiVe8g+TXOd/VAvAm2K5HP6yxkTX4e7jLaRqQX/TF4WYDkTOiYEL4hKyYbvzKYDXzczfsXIolSlcgluMsLv4t7yWIOUld8jn6iBXYymTgLnzV9gyFibMuKnZcy9CA5KG/gnpRfrLx2kitqkHD7GPz1Mu7BvwKnHbfcrsqfchi3oZdijH3loGfxqvQH7qIyIzWtyIPSwQLuxt0U52ZElGQj/eThC+bNAa6KcoAGgweLB2ubPndErzZGEul+rhyxF+lM+tVIZYlTYjceiWCpn3uQCpQ/4G4S5fAY/kt19ZgsfEMAjLGvHLoz9iDr35UaynsMybx32BqpU3boAv4PmQR4JjS1zQ23Ia02DYYiYLX26eBHyo67kQmnmmtyrfL6dmSd/kjSHv438fahfwzJWzna56bT8a+5nw6h5WEaejCV6An2ZmbhL6vp0Ipkry8uznBCZRyyXFGT2u5C5HTfV475OfJA/ZV+8tKxG28Zi8X/h0Q5DIbosDi+rqnhz6mtUxHJ5/1Jl42qa/XLkLK6Vantq8kcidordfwn2v4PEGGeD3D3vF+HrOGvwGDIgvHsK4tsa3N1iBdRibQAP1a2q5DEI3VN8zqk659HgnX4gnlzbCtjO1CDIRxs/qwY+pFIV7tzSBv6PsAvlTPuJG3oQdbk/TzxuYj3f4nPe/ciE4Edtf0PYwy9ISDG2FcW9+PWlffjBMSzqETuxt0oZwpuKd0O4HxkvdNTC1bX1HA7JpxviI7X2u11aqXIb5Fcmc+Uff+HVJCAJNXdqV1jFf7P3VlIBEAvwwOJElzhs/+3AcZsMADG2FcaLWTWyle5F/E6Kg0bOBN3dv3lpOuUQfp/v45PqaEFiYRtnwb2Gv09g6FAmvt0WUePXbBgbWr7JETfQu1ytxnuEP0nyBq8yh4Zrj8VaXPr183yRLyZ+C8golQGQyCMsa887s1+CGOA+6jMnIzPcPe074P8W9SH4FXAscCu+skjWho/A+uHUQ7Q0OtIkOS4wQvr1Wz6mxAj7PQeiCORN7WD445I3weVyzLcYxAyefDjam3bxp3AajBkxRj7yuMZ/Ltk6RyE//pfJXArMFPZ3h53dnM7sk76ED5d3+qaG+7B5ulIR2joPVj2zXULGt5wtpBlpBtwa1/8BH+v/VrE4wfpCjg1hBE9RbornsEQCGPsK48OxNMNwrXALtENJTI6gbNxJzJdTFqGFCSU/zcyrFv2SVhnAgujGqCht2B/WDuk+mplx3lIBvxvlH1H4g7f/xhpVAPSZOj3SLRNPcfhQiTL3o9VPvuS+PSKMBiyYYx9ZXInwWpr+wJ/Jl3OVkm8jdQQO8SQMGmdsu8nSKnhifrJqZDr6aSzpA2GXGnHsk62Zs92QvVTEIGn35D+XE1B9O2dJbPfISH+U0nX1O+DLE9N0K7/MtIcx9O2GMnyn+mz/2G6l842GHwxxr4ymY+E84OwCfIAqsT1+ytI9wQHqcX/vbLdgSRK3Yq3RSh1zQ3/wJsNbTAE5Ud1TQ2OYR0APAo0kO5i1w8JqTvr9P9GqkVADLUadVLX8kE+u2chE4N+2nv/QiSi9U6Xq5EJrsGQM8bYVy6/zH7IBo6hMkN/q4BLtX1HAt9Tth253MfwPjSprel/CVbGMKnBkIl/1DY3qGH3XyEJdCchsrYgz88+qddfAseRTtiD7jUv7kld7wRt/yrg+8gEVufHyETfYMiZSvT2DGl0Ra3usJFwd6U1zYghNchbK/vWIIpinyr7/oY8cM/VL7BiwmabJm37A7zypAaDH0u6qhLbjZw3z8n5OB54BLgI9yT7F0guST8kn0TvSz8a+UzqrEU63/0daU2rcj6S0Hehtv9VRBLbLEsZ8sJ49pVNLt69hYTAPeVqZU4St+Y4wEDgcSS06nAmcDjiXbkY2lTfYFucFdkIDT0J27KsMxVDvyUinHM/7u/bj5Fo2YDU+7qhBxHY8eMDxHPXDf1i5LOun7cGaftsDL0hb4xnX9lUIYk/m+RwzmLEK26OZEThczKSAOXH/cBpyvZ+wF+RCc0c/eDWCZtOx+b7YQ/Q0HOwbHtabUuj05p2MFLi1gZ8jbTY0xm482BuwKtwdwDiuXuUHruhDentUKXt/wHw6xyuYzB4MJ59ZdMF3JjjOSORh5CnPr0MGQ5M6+b9U8Hlsb+ESO7qXj8AK+OJi8D+UN9vMKT499CWRidHxKmnr0O6zTmGfiqSeKc6SvpnagckhyQXQw+SxKcb+gcwht4QAsbYVz73AU05njMFeRj5SXOWE79EDH533AHspGz/BKnTvxctcrXJvHntcaxjgJVhDtLQI2jq02Uda6V7T1wMHIa0m3WiYJshpaz690btUrctImWrl7u24V83D5n7XbyFOxnVYMgbY+wrnw5y9+5B+mn/idy9j2JxID718z70B54AalPbHYiU7oHg6jkOQE1zQz3YJ2DWPw1pOpKWfbQih/sN5Dt1AeAo59UgS0QjfM53JHH3Rxo56ccsQL5rA33OfQp3Ix2HJiQHpcPnPYMhZ8yafc+gP1CP1KHnyoPIuncQkZ5iMRARDtk4h3OeQx6Ojpd0BBLOPwRpMOJi+fhJV9lYVxc0SkNPwAb75LrmxodT21shHvUjpCs74oihPyzzNXgEydrXHagVSM391zKcOx+YqO1bjgjxzAr4bzAYslKuXp0hN7qQEGGmh1F3bI+UCD0X6ogK4xYk8pALmyPh1ZdS23OQdfsbEJWyVvXgG1ct/0/7kLqvApMLG6qhsrGvqGtudJQaRyBiNu8hE2An+nMDkpSXCQvYDn/nqYvuP2N6uL8ViSzM6HbYBkOOGM++51CFPCC2znZgBm6jPBrn7IGEQvNdYjoJkRQFmcw+j5Q47Y22Vt86aVINHdZ7pBuVGHoRFtYfa5vrHSPeF/msDECS8JxWtudQvL7xS5EsftO61hA6Zs2+59CF1P7my8V4W2kWm37AHyjsc6lqCSQQhbKhyATAFcmqa2xcCfZRmIS9XocNLw+t6XdOatPJvJ+AdKZzDP1hFC8T/iOkaZUx9IZIMMa+Z/EM4hXny1XANSGNJR/+DxExKYT+wJNIz3GQdsDHIKHRX+kH1zU3zsK2TyRzRrSh5zHL6msfpTS4uR7xqA8i3T56J4qXwPpXJKI1twj3MvRSjLHvefyIwjLNf4KE9Iu9xFONV5gkX0YjWc5Orf07iPzouUhY1kVdS+NztmXpGvyGnkmzbVsHS1QHkM/DDxCPvj61bzzuz09UrERyA45GmtwYDJFhjH3P4x2kxrwQfohXOCRqtiXcVry6ZzadtEDJwfrBw5rqp1nYfwjx/obyY62VtA4b1lLv1M0fhmg5HI98b0CS9F4gHRmKir8hehf3R3wfgwEwxr6n8mOkfKcQvo8I9hSrYqMhgmvqa67nILrkf8KnR8DQmupzgVciGIeh9CQsyzq+dkG9sya+L1IudwHwdGpfDfAPpPwuKt5N3fsochfDMhjyxhj7nskS4MoQrnMKUqteHcK1sjE6pOus07bPIZ24uBZ5yK5C8htcWfjW7Nkdfbqs75AO5xp6BjbYp9Y21TtGfVckTP9TpNUsSMj+aaRvRBR8hjRp2g0zoTSUAGPsey73IPXChXIkUns8LIRrZcICbg7hOkuQlr9PavuvJ63G14yE8fsiXpxL7WzwwvolcXeilqHCseBCRTRnO6TE7mbS/eb7IpPaTMI3hbAIqdHfBngUo9xoKBHG2PdcEkhCWhhZ5nsAbwKTQriWHz8AvlXgNWykxv5TRC73JeU9p7TqoNT2LCRqsQni4btyBVKSuvthSvIqHtvmmtrmBqcKYwtk4vob4NrUvjiSy+HJ4wiJ/kgOQFdE1zcYAmGMfc/mv0hmfRhsjhh8z1p3gRxGOGP8FfJQBdETP4x00hWI9/YE6fE/jazX7oqUPvVTL1bX3DgrZnMURpu8crGt6cNaGn6W2tocmQA+jFScgEwCpyOTw6ioQToxGgwlxRj7ns9V+PR2z5NRwKsQWk/43Qinlnk2XkGhtUgzHFVffAASut8utT0dqTqYik8XwKEtDS+DfTom9FqBWA/XttSfn9rYAvg30tr5h8pBN+PtKpdI7d8LEboJg4ORqJPBUDKMXG7vYHdEbCfMzPoHkOS3tdkOzMBBiIEdVOA4OpFlhkz5CWOA/+BOxluCrM/Owd3k5FFkbd+19LFs3GYXWZY9rcBxGoqFZT9TO6T62ynRnK2Al5Goz3dJN3y6knQo36EVKcNzIkTjgbfJr8GUTmtqLItDuJbBkDPGs+8dvIX0fQ+TU5Aw+V45ntcHCaM+TeGGHuAXdJ+I+CUysfhS2TcC+BewKWLYT0QiAMcCv0ObBA9rqb/dxvp5CGM1RM9TiqHfGvHoXwdOJ23oz8Nr6BcCXydt6EGSOb9NOEs5dUiugMFQEoxn33voj9T4Tgn5ujbi5V8FfNHNcTEkCe8XwA4F3G8d8D5SHfAPpHlPkDD7FCS6oSbjzUU8/GZgLLJEsRkS2j9fv+6yCZvdbtn2hQWM3RAhNvy1rqb/8SlD/xUk6/5lJITemTrsJOTzqj77vkDklD/PcOkrgOtCGubRSCTJYCgqxtj3LrZCvOAoZECTiDF9DvgY8ZT6IKHQPRFDX2g72TWIIMl/8zx/T8RzU//9nyEGfxGwMfJvGA/chVQzbDD4Nlgrxk/6nWI3tfEAABLySURBVI3VXbtTQwmwsJ8YOqr2BOv99zuRXvBPp35OI70sczjS7lhdzvoU0cWf383l40h0YLcQhroQKcNrzXagwRAmxtj3Ps6icrODv4uo+hXCVKTcTjX4c4D9gAVIMtdrSKj/HiQZUTX48eXjN7sf7BMxlAc2j9a2NJxoiVE/BMkFeQjJKXEM/X5Igp6ahDkDSeJcFOAuk5GOdANDGPF9yGfZYCgaZs2+93EPUoJWafyVwg09SFj3KGC9sm9LZG13POLpfQOpsT8LaZm74XtiQaK2uf5U4MEQxmIoDBuL62tbGk6w0u2M/4poKpxN2tDvinj5qqF/G4kSBTH0ICH+sJolnQZ8M6RrGQyBMJ5972Qo4qVsXOJxBGUpEvoMM5P5W4hhUA1AI+L5f4GEbF9CIgD3IypoG7L0bYi3Ttj0D5bNqSGOyRCcNgv71NrmRmf9+3JkXX0a7s6PfrkaLyMh/bYc72kheSIH5jtohflI8yfT7c5QFIxn3ztZgcjg5ls2V2wuIPySpeeQTOt2Zd8kRLd8E8TzOxSJAJyKREM2CO9YkKhrajjDtq1COwwacsSCz+yYtWvK0PdBoi/Xp37UhM3NkAmbauifQ0L9uRp6Utc9g8KbTAFMBG4K4ToGQyCMZ9+7ORFZ2yxn3kQS66JiKtIURS0DbEJC+Z8i9fdPIEblJeAIFENhQ2z5+E2nIyF/Q+RYz1pVXSfXzpu3AjHiTyDr8VcCNygHjkA6HKqtap9APvOFltKdgCjxFYqNLCW8GsK1DIZuMcbeMA24qNSD6IapyHp6lOyKJG/VKfuWIKH+/yIh30cRz/5dRBFtmXOgDdbyCZOuw7Yuj3icvRnbtrm2rqXhaksqPyYi/2dbIlUT92jHP45EbhweRJLiwugVAfJ5+E4I16lHFB31bo0GQ6gYY2+IIwIz+5Z6ID7MIdre4ipTkLI8tdXuamS54yVgfyQCMAApLTwIrVxr2YRNL7FsbsZ8r8JmlWVxam1Tg9PN8KtIwl0d4qk7CacWcDFSSz+edKfGuxAhnSThUYfI6Y4J4VrTkHEbDJFh1uwNCUQ5rhx7uD9fxHvNQurt5yn7BiPe4zFIt7QDkSz9rRFVwh3VCwxrarjVtuwzCc97NMCnyXhsN8XQH4lEegYiERbH0FcjNfS3ANuTNvS3Ip5/mIYepE7+TMLpm/B/wC4hXMdgyIgx9gaQkHU59nD/sMj3+xzYG3fjoL5Is55zEGGVqUh1wFhEc99VQjWsqfGPlmUdBfaaooy4J2PZz9j9rV2Gf/H5J6k9FyHh+XXIOr3Txng4kmF/pHK2jSTrqZn5YfN3JDmwUOJIuWC/bAcaDPlijL3BoR7JPi+nDP0VJbhnM6LA9j9lXxyR0L0ZmYB8DRHgGYQI9JypXqC2qf7pWMzaJ3WMIXeSFvZVtU2Nhw+rr1+FGMG7kHB3MzIhc1QUJyOVE6q6XSdSQRFWe+fuuBiRXS6UbRBZXoMhEoyxN6i8g3T9KpcwdHv2QyJhMZLD8C9t/4+QsPF8pAHQXKAKaZ5zM4oM69D5De/btrUr2MWOTlQ6y2zLOri2ufEXlnjk45ByyLOBmcjf3Ym87IMY+k2V89uQhMpiiR6tJrxw/uWk2y8bDKFijL1B52mkrr0cqMl+SGSsRNaEp2v7j0RKpdYjJYHvp/b/CPnbbRjzsJb65q711Xsj4V5DFmx4j6S907Cm+n+mdn0dKZ/bDfgnYuibU++dlNqnV1BMRYRvisnLSOSnUPog4fyqEK5lMLgwxt7gx3TEyyg147MfEildSHLX+anXDl9BoiCjkJD+46n9ByOJe5s5B45cMruttrnhUNvmWqJbO658LO6u62/tVbegcT7prPp/ASORsrpDEC/aQjosPoB7jftzZPKVb5OkQrkMaAjhOl/BZOYbIsCUCBm64xqk93ypeBjx4MqBA5Da6qHKvrVIePlh4Grgp8h3qhU4Dm0ZoHXsZocSsx/QrtHbabNszq9tabg/tT0IuBepkbeRSaejNNcfSYjTmxC9ivQ7KHUnuX0QL79QJ6odqfSYk+1AgyEo8eyHGHox/0YMUxitPfOhBvhlie6t04DU2R9EOnTcBzEytcik6GNEiGcIorKWQDL4AbhpdetnVwyp/auNtQ8SFejtvJ+w7QOHtTS+nNreEilx3AcxeCeSFsvZBNFBOEC7xn1I6Wg+8rdh8wXy2Sj0+1KFJBn+M9uBBkNQjGdvyIaFrEd+v0T3/yrwXonu7Ucd0kBnH23/64ii2njgSaQ0D+BZ4GSUyoIFY8cO6B+vnobN2dEPtyyxgdtqa/pfac2e7UjXHoV49EOQTnRHIksiIOWND5GunXeuoUvklgMDkIqNyQVcoxnYAUWl0WAoFLNmb8iGjaxb31qi+x9fovtmohXRzf+dtn8vJFmvGhFIcdaOD0GSzHZwDhy7YMHauqaG72Pbh9rhN/gpdxbalvXNuuaGH6UMfRy4EalyGIJM7HZGDL2FGPRncRv6NmRiVW6GHmRp53QKq2i5GGPoDSFjwviGoPyLdOOOYrINUmNdqjI8P5JIff1cxPA7bXIHA6cgoi/fQ9afd0HC/KchE4UNUYqbVi//7OJhQx+MJ2NbApsXa/Alw+bpPl0cPHRBw8zUno2Rv+PxiGG/Hzga+TsNAR5DxIxUp6QBUTKMul9CIcxHlqB2z/P8duBv4Q3HYDBhfEPuXIiImxTzs3M54v2VI1sCf0YkWlXeRNacd0CSyhzP9G9IXbYrmWzZhE2PjSW5w7Z65Fr+csvmwtqWhgeUfScB/9/evcfIVZZxHP+e2RawUrZXFJgi3R0CBUoj95sBWdAahBqiNIhKCSpYtSIaEmjCLUKgBIqKXESIgIqWGOMFVKAGJVgt4SKUFrELYneB0u3uNkVqu905/vHbYWfP7Mze5syZs/19kvljz56Zec/M7D7zvu/zPu8PUFDfiZYuFvIzjkVVC2dHHuf36DWtxhazcXsfGtE5eBT3zaPP05qqtsh2aR7Gt5G6Fc3f17LwzuXUb0Lbyygh667I8RNQFb7dgSNQaV3QXPRzaMnee6ZvaP1F0NAzJyC4l/G1RO/hPA1ziwL9VLSq4QEU6DtQT/1W9P/oCpT/UBzoQ+A6NCWShkAPGt0Z7XB+Bq2EMasa9+xttM5Fw64Ta/R89wIX1ui5RuszqBe/V+T4z9CIyHkoaE1CvbfvoeA2YHvTrmzu5JBwOZGNdlJmSxBwydQNrT8uOvZR9JmZ1ffz39ASxddRpbyfoEI6xbpR0EzrsPaNwGWjuF+IpgH+Xt3m2K7Kwd7GogXNq04b6sQqCNGytlpXRxupJtRzPSpyfCPaZvUFtFzshL7jr6D5/FXFJ4eQ6ZqVu5gwvAZt9JIeIb/JBw2LZ7S90t53ZDfUU/026rWGKOFzKVpitgC4h4FJeACr0ZeBatSeT8oeKE/j0L6f8wx/RPVxlBNiNmYO9jZWBwIPM7alRsP1Ftp3vqMGzzUWu6NM8Uso/RtbgbY0XQhci0YB8mga4Aoim/90HXDAlHzvhKuCMFxMfyJgXQpCNuYJlkxvX7+i6PDRaK18YTXCJuAC9JlpRJvVREdsQpQXcjn6MpB2ObQU8zV0/Svp/7I3lBZUqMdsTBzsrRqmoZKxp9bguVaiOd562aynklPQ9EM00WwTSkh7DAW1hX3H30ZDvvcTmbfv/tBBs/O9PddC8FnqL9cmDAPunxBuv7Sxra2QeDgZ+A4qNVxo719QsaF2tHb+bkpLInegkY6H4250gmaiZZqzhjoRTXWMNqvf7D0O9lYtE1HxnS8OdWIVfBf1mtNgMhqy/hKlf29PoaH9mei1K4yOPI1qrZcsL+vMNs2FzPUQfjK2Fo/M2kwYLpnS/urKomMLgNvoD+Q9KPBfh5Yj3oLm4aMeQ73+9kF+N97MQys2Jg3j3AVokyWzUXOwt2r7FkpKiruGwyUo6KfF6WioPtrL34kC/XWo0t7l9M9d/wGV4X0mch86srOPyYSZpQScSTJ/xx0EwVVTN2R/GPBEYZOgLPB94FNF561BtQeeQ6WG70bJeMXeRSMddzC+ViIM5WxUTGio9+9FNA2Sj71FNm7V23Cgpd/NKOs67t7Zcupnk5zheAw4DLiJgTvoTQCWoBKr3Whd9s3ADjTU/TTaInfAUr0Zba+tntbeuiAI8x8OAh6idoFgZxCEy4MJvQdO27D+9r5An+m7hrX0B/qdwPUoUfEttCLhEUoD/SoUyG5n1wr0oLLLVw/jvLkoUdFs1Nyzt7jMQFnnZ8T4HL3A+WjXuTSZh3q4Rw/yu7VoCP9lFAjOpf9L+VPoS86vGfiFgS3Z5lyvAu4iNHVQbTsCwgcyBDc0trWuLzp+GrCMgcsE16Hh+GfQNEUhEXHA46HrW0Y68i/iEqCiTOcMcV4r+iK4c4jzzAblYG9xCoBvoup3ca3HD1GQuy2mx49LBgXEGxh8ad0TKOhvRUHx0/QH/XaU4X438GbxnTqbmhrDnsyFQZj/GgTRKYPR2Ab8KMxz0/Q3WjcUHT8U5SLMj5y7DF3TEai3Hq0sCPAk8GW8hWvBJJS8eOQQ511E/y6AZiPiYG+1cAzqvVQj+JRzNXBNjI8flymo7V9FQ/rFQtSLvx7VS78KVeArBP0etO3rg33nvVN0x8zmfZtOzWQyiyA8G5VvHYluCO6a2BPeMnlja/FmPfugZLtFDJwGfAQtKXwH5R9cQOn/l240N38Pu96Q/VCyaMrmgxXOaUdJnNsqnGNmlqgpaBlaHv2jj+P2IMr2TqND0HKzctf2KFrKdxCq0ve/yO/fQdMZZxAZRelsamrs3K/5oq79co92Zpt3dGabw/K33LrOWbnFb33g8PdH2rcnCvL/jTzv62iefk+UTLi1TPt/TuVAZtoTIPq+Rm+XJtY6M7MRaEHzj3EF/BepTYGfuJyC1laXu76/AmeiIi03AFsGOWcTGkI/iUjvunv//ad2ZnOf65rVvKIzm9vcF+TzndnmRzZnm+eHpb3xyWg6YWPkObaikZS90LLCN8q09yVUF8GG5/NU/nxvojT/wcysLk1CGec9xBPwu1HxlrQK0Bz9S5S/xhfQHO4+aBvYcuf+G73WJxBZfRNCw+b9csdv2nf2QYO0YTpwJdpXvfjxtqMlj3ujLx3lnrcLDetHpyZsaDdS+fN9ZXJNMzMbuaOAfxBfL/9X1O9uecORQUuu1lD+GregrWLnoiWPD1H+S1Qb2nznZMrXQTgcJYFFh+t7UWW/JrQ+/Nkyz9GLRhXSVc+/vjQAv6Xye+7X18xSZSIqxNNFPAG/A63HT3MyagYtzXqOytf6JBrRmI2G3tdVOHcjKvJTmEc/FtVgj57Xg3ajm4dex3JfPPIoSXBuHC/ALqgRTUmVe/+WJdc0M7PRm4GGm7cTT9BfhfadT7vT0M5/lRIdO1Dv+iPAiSiod5c59yTUk4zO/W9DIwbz0DTB+grP9yhacWHVlUNz9IO95u9SWqDIzCw1csAviSdrP48quUU3X0mjQ4A7KZ/9XrhtQOvhT0TL9h5EmfuF3x+HRgIKP3ejpX6fQMP5lR7/cTQlYPE5lfJfgO9IsF1mZlVxHMo8j6OXv53B69Sn0WTgYoYe4g+BV1Agn4+G+x9COQ0tKHfiFrQOfnWFx+jtu99Rtbg4AzSyMth7sQPlUJiZpV4L6kHGEfR7UEnfw2p1MTE7EgXscsvgim/daDrgahTgn0SBvNz521DFvjQva0yzwt4B0dt9STbKzKzajkYbh1QKSGO5/RnVod+9VhcUowbgY6j4ztuM7XV5DbiM/p34LBkTgZWUvj87gTkJtsvMLBYHo0p8cSXybUQ70x1RqwuKWQPaMW858CrDew12oGp+Z+GdMevJdOBflL5fK5JslJlZnPYFlhJvNb71qM77YJu5pFUzqlt/H5qnL2R7v4l6jl/Ba7jr2cGUrqzIM3DXQTOzcScDnI56NzuIL/D/B81ZLwSm1eTKzAb3cTR8X/z5/F2iLTIzq6G90fzyWuIL+iHKG1iNMttbgD1qcXFmRZZQ+rk8PtEWmZkl4HC0UUulUrPVum1DpWTNaulOBn4O/5Rsc8zMkjUHbb/6PPEF/M6aXY2Z7EZphn5Loi0yM6sTOeDrqI77YNvDjuXWWMPrMAOYycAM/VXJNsfMrP5MQFu/LkUFZsrVjx/uzZvAWBIOYeBn98xkm2NmVt8yaJndYuCnqLzsSIL9KTVvsZnMpz9D/3nSvcujmVnNTUXV6K5AFfxaKV/Fzz0qS9I36P8snpNwW8zMUm8SqkN/Pqq290egDTg7yUaZoZ0KQ2Adqp5oZmZm48xuaAleCHwh4baYmZlZTAoZ+v/EvXszM7NxK4d2PDwv6YaYmZlZfI4FnsU7Fxoe4jEzG6/aga1oHf6ahNtiZmZmMToL9+7NzMzGvQlJN8DMzMzMzMzMzMzMzMzMzMzMzMzMzMzMzMzMzMzMzMzMzMzMzKwq/g/BRrMwhqvAiAAAAABJRU5ErkJggg==;" vertex="1" parent="WIyWlLk6GJQsqaUBKTNV-1">
          <mxGeometry x="-180" y="570" width="87" height="102.96" as="geometry" />
        </mxCell>
        <mxCell id="MFehWvs3WyKKxc41Y9VR-84" value="&lt;font style=&quot;font-size: 40px;&quot;&gt;SAC-CAS Onboarding Prozess&lt;/font&gt;" style="text;html=1;align=center;verticalAlign=middle;whiteSpace=wrap;rounded=0;" vertex="1" parent="WIyWlLk6GJQsqaUBKTNV-1">
          <mxGeometry x="-100" y="610" width="590" height="30" as="geometry" />
        </mxCell>
      </root>
    </mxGraphModel>
  </diagram>
</mxfile>
